<svg width="23" height="26" viewBox="0 0 23 26" fill="none" xmlns="http://www.w3.org/2000/svg">
    <path d="M19.8719 19.4637H21.0212C21.4899 19.4637 21.8696 19.0208 21.8696 18.474V13.1732C21.8696 9.81172 20.7014 6.76842 18.8134 4.56537C16.9249 2.36281 14.3162 1 11.4348 1C5.6719 1 1 6.45023 1 13.1732V18.474C1 19.0208 1.37964 19.4637 1.84836 19.4637H8.28314" stroke="#014FE6" stroke-miterlimit="10" stroke-linecap="round" stroke-linejoin="round"/>
    <path d="M14.5862 19.4637H16.0065" stroke="#014FE6" stroke-miterlimit="10" stroke-linecap="round" stroke-linejoin="round"/>
    <path d="M14.4869 18.9035C16.5402 17.6278 17.9384 15.105 17.9384 12.2014C17.9384 8.01102 15.0264 4.6134 11.434 4.6134C7.84167 4.6134 4.92969 8.01102 4.92969 12.2014C4.92969 15.0973 6.3204 17.6143 8.36477 18.8933" stroke="#014FE6" stroke-miterlimit="10" stroke-linecap="round" stroke-linejoin="round"/>
    <path d="M8.75748 16.4133C7.65394 15.4572 6.9375 13.9249 6.9375 12.2014C6.9375 9.30905 8.95489 6.95557 11.4342 6.95557C13.9135 6.95557 15.9309 9.30905 15.9309 12.2014C15.9309 13.931 15.2094 15.4681 14.0992 16.4235" stroke="#014FE6" stroke-miterlimit="10" stroke-linecap="round" stroke-linejoin="round"/>
    <path d="M14.49 22.9185H8.38095C8.06714 22.9185 7.83028 22.5863 7.88746 22.2263L9.03223 15.0193H13.8387L14.9834 22.2263C15.0406 22.5863 14.8038 22.9185 14.49 22.9185Z" stroke="#014FE6" stroke-miterlimit="10" stroke-linecap="round" stroke-linejoin="round"/>
    <path d="M9.03125 15.0194V13.081C9.03125 12.7576 9.25594 12.4955 9.53314 12.4955H13.3358C13.613 12.4955 13.8377 12.7576 13.8377 13.081V15.0194" stroke="#014FE6" stroke-miterlimit="10" stroke-linecap="round" stroke-linejoin="round"/>
    <path d="M13.4125 25H9.45738C9.22311 25 9.0332 24.7785 9.0332 24.5052V22.9186H13.8367V24.5052C13.8367 24.7784 13.6468 25 13.4125 25Z" stroke="#014FE6" stroke-miterlimit="10" stroke-linecap="round" stroke-linejoin="round"/>
    <ellipse cx="19.6918" cy="17.0124" rx="0.424178" ry="0.494846" fill="#014FE6"/>
    <ellipse cx="3.17613" cy="17.0124" rx="0.424178" ry="0.494846" fill="#014FE6"/>
    <ellipse cx="17.9357" cy="19.4638" rx="0.424178" ry="0.494846" fill="#014FE6"/>
</svg>