<svg width="24" height="24" viewBox="0 0 24 24" fill="none" xmlns="http://www.w3.org/2000/svg">
    <g clip-path="url(#clip0_1827_25540)">
        <path d="M3.30711 23.5306H3.27186C2.11639 23.5306 1.17969 22.5939 1.17969 21.4385V18.0605H5.39923V21.4385C5.39928 22.5939 4.46258 23.5306 3.30711 23.5306Z" stroke="#292929" stroke-miterlimit="10" stroke-linecap="round" stroke-linejoin="round"/>
        <path d="M4.51053 14.3691H2.06844C1.83059 14.3691 1.62978 14.5459 1.59955 14.7818L1.17969 18.062H5.39923L4.97937 14.7818C4.94919 14.5459 4.74837 14.3691 4.51053 14.3691Z" stroke="#292929" stroke-miterlimit="10" stroke-linecap="round" stroke-linejoin="round"/>
        <path d="M4.23455 12.1172V14.3681H2.34375V12.1172" stroke="#292929" stroke-miterlimit="10" stroke-linecap="round" stroke-linejoin="round"/>
        <path d="M13.0488 9.93406V7.58984" stroke="#292929" stroke-miterlimit="10" stroke-linecap="round" stroke-linejoin="round"/>
        <path d="M11.1582 9.93406V7.58984" stroke="#292929" stroke-miterlimit="10" stroke-linecap="round" stroke-linejoin="round"/>
        <path d="M3.28978 12.478C4.07438 12.478 4.71042 11.842 4.71042 11.0574C4.71042 10.2728 4.07438 9.63672 3.28978 9.63672C2.50518 9.63672 1.86914 10.2728 1.86914 11.0574C1.86914 11.842 2.50518 12.478 3.28978 12.478Z" stroke="#292929" stroke-miterlimit="10" stroke-linecap="round" stroke-linejoin="round"/>
        <path d="M12.116 12.478C12.9006 12.478 13.5366 11.842 13.5366 11.0574C13.5366 10.2728 12.9006 9.63672 12.116 9.63672C11.3314 9.63672 10.6953 10.2728 10.6953 11.0574C10.6953 11.842 11.3314 12.478 12.116 12.478Z" stroke="#292929" stroke-miterlimit="10" stroke-linecap="round" stroke-linejoin="round"/>
        <path d="M4.23455 3.41992V8.69861C4.23455 9.21639 3.81483 9.63611 3.29705 9.63611H3.28125C2.76347 9.63611 2.34375 9.21639 2.34375 8.69861V3.41992C2.34375 2.90214 2.76347 2.48242 3.28125 2.48242H3.29705C3.81478 2.48242 4.23455 2.90219 4.23455 3.41992Z" stroke="#292929" stroke-miterlimit="10" stroke-linecap="round" stroke-linejoin="round"/>
        <path d="M14.4294 12.002H13.2227" stroke="#292929" stroke-miterlimit="10" stroke-linecap="round" stroke-linejoin="round"/>
        <path d="M13.2227 10.1113H19.997V12.0018H18.7001" stroke="#292929" stroke-miterlimit="10" stroke-linecap="round" stroke-linejoin="round"/>
        <path d="M11.0091 10.1113H4.34961" stroke="#292929" stroke-miterlimit="10" stroke-linecap="round" stroke-linejoin="round"/>
        <path d="M11.0096 12.002H4.34961" stroke="#292929" stroke-miterlimit="10" stroke-linecap="round" stroke-linejoin="round"/>
        <path d="M21.0589 12.8295H20.4648C20.206 12.8295 19.9961 12.6197 19.9961 12.3608V9.75391C19.9961 9.49502 20.206 9.28516 20.4648 9.28516H21.0589C22.0295 9.28516 22.8163 10.072 22.8163 11.0425V11.0722C22.8163 12.0427 22.0295 12.8295 21.0589 12.8295Z" stroke="#292929" stroke-miterlimit="10" stroke-linecap="round" stroke-linejoin="round"/>
        <path d="M12.1038 7.66847C14.0919 7.66847 15.7036 6.05676 15.7036 4.06861C15.7036 2.08046 14.0919 0.46875 12.1038 0.46875C10.1156 0.46875 8.50391 2.08046 8.50391 4.06861C8.50391 6.05676 10.1156 7.66847 12.1038 7.66847Z" stroke="#292929" stroke-miterlimit="10" stroke-linecap="round" stroke-linejoin="round"/>
        <path d="M12.1035 0.744141V1.40503" stroke="#292929" stroke-miterlimit="10" stroke-linecap="round" stroke-linejoin="round"/>
        <path d="M8.78125 4.06836H9.44209" stroke="#292929" stroke-miterlimit="10" stroke-linecap="round" stroke-linejoin="round"/>
        <path d="M12.1035 7.39331V6.73242" stroke="#292929" stroke-miterlimit="10" stroke-linecap="round" stroke-linejoin="round"/>
        <path d="M15.4265 4.06836H14.7656" stroke="#292929" stroke-miterlimit="10" stroke-linecap="round" stroke-linejoin="round"/>
        <path d="M12.1035 4.06787L13.1147 3.05664" stroke="#292929" stroke-miterlimit="10" stroke-linecap="round" stroke-linejoin="round"/>
        <circle cx="16.5625" cy="12" r="0.46875" fill="#292929"/>
    </g>
    <defs>
        <clipPath id="clip0_1827_25540">
            <rect width="24" height="24" fill="white"/>
        </clipPath>
    </defs>
</svg>