<svg width="24" height="24" viewBox="0 0 24 24" fill="none" xmlns="http://www.w3.org/2000/svg">
    <g clip-path="url(#clip0_1422_88252)">
        <path d="M20.7725 11.8812V14.7593C20.7725 19.6039 16.8451 23.5312 12.0005 23.5312C7.15589 23.5312 3.22852 19.6039 3.22852 14.7593V3.75C3.22852 1.93781 4.69758 0.46875 6.50977 0.46875H17.4913C19.3035 0.46875 20.7725 1.93781 20.7725 3.75V7.60997" stroke="#014FE6" stroke-miterlimit="10" stroke-linecap="round" stroke-linejoin="round"/>
        <path d="M11.9809 21.6562C8.16858 21.6456 5.10352 18.5048 5.10352 14.6925V4.21875C5.10352 3.18323 5.943 2.34375 6.97852 2.34375H17.0225C18.058 2.34375 18.8975 3.18323 18.8975 4.21875V14.7593C18.8975 18.5688 15.7928 21.6668 11.9809 21.6562Z" stroke="#014FE6" stroke-miterlimit="10" stroke-linecap="round" stroke-linejoin="round"/>
        <path d="M6.97852 14.7723V4.7265C6.97852 4.44609 7.18838 4.21875 7.44727 4.21875H16.5537C16.8126 4.21875 17.0225 4.44609 17.0225 4.7265V14.7724C17.0225 15.0528 16.8126 15.2801 16.5537 15.2801H7.44727C7.18838 15.2801 6.97852 15.0528 6.97852 14.7723Z" stroke="#014FE6" stroke-miterlimit="10" stroke-linecap="round" stroke-linejoin="round"/>
        <path d="M11.9996 19.666C12.693 19.666 13.2551 19.1039 13.2551 18.4105C13.2551 17.7171 12.693 17.155 11.9996 17.155C11.3062 17.155 10.7441 17.7171 10.7441 18.4105C10.7441 19.1039 11.3062 19.666 11.9996 19.666Z" stroke="#014FE6" stroke-miterlimit="10" stroke-linecap="round" stroke-linejoin="round"/>
        <path d="M13.7038 6.39511C13.3019 5.9933 12.6505 5.9933 12.2486 6.39511L12.0005 6.64327L11.7523 6.39511C11.3505 5.9933 10.699 5.9933 10.2972 6.39511C9.8954 6.79692 9.8954 7.44839 10.2972 7.8502L11.8008 9.35381C11.9111 9.46406 12.0899 9.46406 12.2001 9.35381L13.7038 7.8502C14.1056 7.44839 14.1056 6.79692 13.7038 6.39511Z" stroke="#014FE6" stroke-miterlimit="10" stroke-linecap="round" stroke-linejoin="round"/>
        <path d="M10.2129 11.2278H11.2403C11.3623 11.2278 11.444 11.353 11.3949 11.4646L10.4713 13.5657" stroke="#014FE6" stroke-miterlimit="10" stroke-linecap="round" stroke-linejoin="round"/>
        <path d="M13.2871 11.2278H13.7868V13.5657" stroke="#014FE6" stroke-miterlimit="10" stroke-linecap="round" stroke-linejoin="round"/>
        <circle cx="20.7734" cy="9.74939" r="0.46875" fill="#014FE6"/>
    </g>
    <defs>
        <clipPath id="clip0_1422_88252">
            <rect width="24" height="24" fill="white"/>
        </clipPath>
    </defs>
</svg>