<svg width="24" height="24" viewBox="0 0 24 24" fill="none" xmlns="http://www.w3.org/2000/svg">
    <g clip-path="url(#clip0_1827_2501)">
        <path d="M4.26562 6.03125V1.10938H9.89062V6.03125" stroke="#292929" stroke-miterlimit="10" stroke-linecap="round" stroke-linejoin="round"/>
        <path d="M4.26562 2.51562H9.89062" stroke="#292929" stroke-miterlimit="10" stroke-linecap="round" stroke-linejoin="round"/>
        <path d="M8.48438 3.92188V4.625" stroke="#292929" stroke-miterlimit="10" stroke-linecap="round" stroke-linejoin="round"/>
        <path d="M7.07812 3.92188V4.625" stroke="#292929" stroke-miterlimit="10" stroke-linecap="round" stroke-linejoin="round"/>
        <path d="M5.67188 3.92188V4.625" stroke="#292929" stroke-miterlimit="10" stroke-linecap="round" stroke-linejoin="round"/>
        <path d="M14.1094 6.03125V1.10938H19.7344V6.03125" stroke="#292929" stroke-miterlimit="10" stroke-linecap="round" stroke-linejoin="round"/>
        <path d="M14.1094 2.51562H19.7344" stroke="#292929" stroke-miterlimit="10" stroke-linecap="round" stroke-linejoin="round"/>
        <path d="M18.3281 3.92188V4.625" stroke="#292929" stroke-miterlimit="10" stroke-linecap="round" stroke-linejoin="round"/>
        <path d="M16.9219 3.92188V4.625" stroke="#292929" stroke-miterlimit="10" stroke-linecap="round" stroke-linejoin="round"/>
        <path d="M15.5156 3.92188V4.625" stroke="#292929" stroke-miterlimit="10" stroke-linecap="round" stroke-linejoin="round"/>
        <path d="M23.6484 20.0781H16.6172" stroke="#292929" stroke-miterlimit="10" stroke-linecap="round" stroke-linejoin="round"/>
        <path d="M23.6484 18.6719H16.6172" stroke="#292929" stroke-miterlimit="10" stroke-linecap="round" stroke-linejoin="round"/>
        <path d="M23.6484 17.2656H16.6172" stroke="#292929" stroke-miterlimit="10" stroke-linecap="round" stroke-linejoin="round"/>
        <path d="M7.38281 17.2656H0.351562" stroke="#292929" stroke-miterlimit="10" stroke-linecap="round" stroke-linejoin="round"/>
        <path d="M0.351562 13.0469V22.8906H7.38281V17.2656C7.38281 16.489 8.01239 15.8594 8.78906 15.8594H9.89062C10.6673 15.8594 11.2969 15.2298 11.2969 14.4531V7.42188C11.2969 6.6452 10.6673 6.01562 9.89062 6.01562H3.16406C1.61077 6.01562 0.351562 7.27483 0.351562 8.82812V11.6406" stroke="#292929" stroke-miterlimit="10" stroke-linecap="round" stroke-linejoin="round"/>
        <path d="M23.6484 11.6406V8.82812C23.6484 7.27483 22.3892 6.01562 20.8359 6.01562H14.1094C13.3327 6.01562 12.7031 6.6452 12.7031 7.42188V14.4531C12.7031 15.2298 13.3327 15.8594 14.1094 15.8594H15.2109C15.9876 15.8594 16.6172 16.489 16.6172 17.2656V22.8906H23.6484V13.0469" stroke="#292929" stroke-miterlimit="10" stroke-linecap="round" stroke-linejoin="round"/>
        <path d="M11.2969 7.42188H12.7031" stroke="#292929" stroke-miterlimit="10" stroke-linecap="round" stroke-linejoin="round"/>
        <path d="M11.2969 14.4531H12.7031" stroke="#292929" stroke-miterlimit="10" stroke-linecap="round" stroke-linejoin="round"/>
        <path d="M7.78125 11.6562C8.94623 11.6562 9.89062 10.7119 9.89062 9.54688C9.89062 8.3819 8.94623 7.4375 7.78125 7.4375C6.61627 7.4375 5.67188 8.3819 5.67188 9.54688C5.67188 10.7119 6.61627 11.6562 7.78125 11.6562Z" stroke="#292929" stroke-miterlimit="10" stroke-linecap="round" stroke-linejoin="round"/>
        <path d="M7.78125 10.25C8.16958 10.25 8.48438 9.9352 8.48438 9.54688C8.48438 9.15855 8.16958 8.84375 7.78125 8.84375C7.39292 8.84375 7.07812 9.15855 7.07812 9.54688C7.07812 9.9352 7.39292 10.25 7.78125 10.25Z" stroke="#292929" stroke-miterlimit="10" stroke-linecap="round" stroke-linejoin="round"/>
        <path d="M14.8125 8.84375C15.2008 8.84375 15.5156 8.52895 15.5156 8.14062C15.5156 7.7523 15.2008 7.4375 14.8125 7.4375C14.4242 7.4375 14.1094 7.7523 14.1094 8.14062C14.1094 8.52895 14.4242 8.84375 14.8125 8.84375Z" stroke="#292929" stroke-miterlimit="10" stroke-linecap="round" stroke-linejoin="round"/>
        <path d="M14.8125 11.6562C15.2008 11.6562 15.5156 11.3415 15.5156 10.9531C15.5156 10.5648 15.2008 10.25 14.8125 10.25C14.4242 10.25 14.1094 10.5648 14.1094 10.9531C14.1094 11.3415 14.4242 11.6562 14.8125 11.6562Z" stroke="#292929" stroke-miterlimit="10" stroke-linecap="round" stroke-linejoin="round"/>
        <path d="M23.6482 15.8594H21.1426C20.3659 15.8594 19.7363 15.2298 19.7363 14.4531C19.7363 14.2361 19.7855 14.0305 19.8733 13.847L20.3025 12.9499C20.3903 12.7664 20.4395 12.5608 20.4395 12.3437C20.4395 12.1267 20.3903 11.9212 20.3025 11.7376L19.8733 10.8405C19.7855 10.657 19.7363 10.4514 19.7363 10.2344C19.7363 9.4577 20.3659 8.82812 21.1426 8.82812H23.6482" stroke="#292929" stroke-miterlimit="10" stroke-linecap="round" stroke-linejoin="round"/>
        <path d="M0.351562 15.8594H2.85722C3.63389 15.8594 4.26347 15.2298 4.26347 14.4531C4.26347 14.2361 4.2143 14.0305 4.1265 13.847L3.69731 12.9499C3.60952 12.7664 3.56034 12.5608 3.56034 12.3437C3.56034 12.1267 3.60952 11.9212 3.69731 11.7376L4.1265 10.8405C4.2143 10.657 4.26347 10.4514 4.26347 10.2344C4.26347 9.4577 3.63389 8.82812 2.85722 8.82812H0.351562" stroke="#292929" stroke-miterlimit="10" stroke-linecap="round" stroke-linejoin="round"/>
        <path d="M22.2422 20.0781V18.6719" stroke="#292929" stroke-miterlimit="10" stroke-linecap="round" stroke-linejoin="round"/>
        <path d="M20.8359 20.0781V18.6719" stroke="#292929" stroke-miterlimit="10" stroke-linecap="round" stroke-linejoin="round"/>
        <path d="M19.4297 20.0781V18.6719" stroke="#292929" stroke-miterlimit="10" stroke-linecap="round" stroke-linejoin="round"/>
        <path d="M18.0234 20.0781V18.6719" stroke="#292929" stroke-miterlimit="10" stroke-linecap="round" stroke-linejoin="round"/>
    </g>
    <defs>
        <clipPath id="clip0_1827_2501">
            <rect width="24" height="24" fill="white"/>
        </clipPath>
    </defs>
</svg>