<svg width="24" height="24" viewBox="0 0 24 24" fill="none" xmlns="http://www.w3.org/2000/svg">
    <g clip-path="url(#clip0_1422_88341)">
        <path d="M23.5294 9.89473V6.83372C23.5294 6.44465 23.214 6.12922 22.8249 6.12922H18.5744C18.1854 6.12922 17.8699 5.81379 17.8699 5.42472V1.17423C17.8699 0.785155 17.5545 0.469727 17.1654 0.469727H6.83274C6.44367 0.469727 6.12824 0.785155 6.12824 1.17423V5.42472C6.12824 5.81379 5.81281 6.12922 5.42374 6.12922H1.17325C0.784179 6.12922 0.46875 6.44465 0.46875 6.83372V17.1664C0.46875 17.5555 0.784179 17.8709 1.17325 17.8709H5.42374C5.81281 17.8709 6.12824 18.1863 6.12824 18.5754V22.8259C6.12824 23.215 6.44367 23.5304 6.83274 23.5304H17.1654C17.5545 23.5304 17.8699 23.215 17.8699 22.8259V18.5754C17.8699 18.1863 18.1854 17.8709 18.5744 17.8709H22.8249C23.214 17.8709 23.5294 17.5555 23.5294 17.1664V14.1054" stroke="#014FE6" stroke-miterlimit="10" stroke-linecap="round" stroke-linejoin="round"/>
        <circle cx="23.5302" cy="12.0001" r="0.469667" fill="#014FE6"/>
        <path d="M15.3704 16.398C14.9046 16.8638 14.2945 17.0966 13.6843 17.0966C13.0741 17.0966 12.4639 16.8638 11.9982 16.398C11.0671 17.3295 9.55696 17.3295 8.62589 16.398C8.16013 15.9327 7.92773 15.3221 7.92773 14.7119C7.92773 14.1018 8.16013 13.4915 8.62589 13.0258L9.94791 11.7041C10.2975 11.3546 10.814 11.2275 11.2836 11.382C11.5083 11.4559 11.7485 11.4959 11.9981 11.4959C12.2477 11.4959 12.4879 11.4559 12.7127 11.382C13.1822 11.2275 13.6988 11.3546 14.0483 11.7041L15.3704 13.0258C16.3014 13.9573 16.3014 15.467 15.3704 16.398Z" stroke="#014FE6" stroke-miterlimit="10" stroke-linecap="round" stroke-linejoin="round"/>
        <path d="M6.62417 11.9918C7.15011 11.9918 7.57647 11.4331 7.57647 10.744C7.57647 10.0548 7.15011 9.49609 6.62417 9.49609C6.09823 9.49609 5.67188 10.0548 5.67188 10.744C5.67188 11.4331 6.09823 11.9918 6.62417 11.9918Z" stroke="#014FE6" stroke-miterlimit="10" stroke-linecap="round" stroke-linejoin="round"/>
        <path d="M10.0756 9.39928C10.6015 9.39928 11.0279 8.8406 11.0279 8.15142C11.0279 7.46225 10.6015 6.90356 10.0756 6.90356C9.54965 6.90356 9.12329 7.46225 9.12329 8.15142C9.12329 8.8406 9.54965 9.39928 10.0756 9.39928Z" stroke="#014FE6" stroke-miterlimit="10" stroke-linecap="round" stroke-linejoin="round"/>
        <path d="M17.3742 11.9918C17.9001 11.9918 18.3265 11.4331 18.3265 10.744C18.3265 10.0548 17.9001 9.49609 17.3742 9.49609C16.8482 9.49609 16.4219 10.0548 16.4219 10.744C16.4219 11.4331 16.8482 11.9918 17.3742 11.9918Z" stroke="#014FE6" stroke-miterlimit="10" stroke-linecap="round" stroke-linejoin="round"/>
        <path d="M13.921 9.39928C14.447 9.39928 14.8733 8.8406 14.8733 8.15142C14.8733 7.46225 14.447 6.90356 13.921 6.90356C13.3951 6.90356 12.9688 7.46225 12.9688 8.15142C12.9688 8.8406 13.3951 9.39928 13.921 9.39928Z" stroke="#014FE6" stroke-miterlimit="10" stroke-linecap="round" stroke-linejoin="round"/>
    </g>
    <defs>
        <clipPath id="clip0_1422_88341">
            <rect width="24" height="24" fill="white"/>
        </clipPath>
    </defs>
</svg>