<svg width="24" height="24" viewBox="0 0 24 24" fill="none" xmlns="http://www.w3.org/2000/svg">
    <g clip-path="url(#clip0_1827_27223)">
        <path d="M18.4034 3.59864C17.3294 3.59864 16.4556 4.47244 16.4556 5.54648V22.0522C16.4556 22.6093 16.0023 23.0625 15.4452 23.0625H10.9041C10.347 23.0625 9.89373 22.6093 9.89373 22.0522V20.951H11.2118C11.4707 20.951 11.6805 20.7411 11.6805 20.4823V18.7439H13.016C14.2211 18.7439 15.2015 17.7635 15.2015 16.5584V5.59261C15.2015 4.38755 14.2211 3.40716 13.016 3.40716H9.89373V3.36173C9.89373 3.17442 9.98472 3.02264 10.15 2.93437C10.653 2.66564 10.9655 2.13155 10.9655 1.54059C10.9655 0.691078 10.2744 0 9.42494 0C8.57547 0 7.88439 0.691078 7.88439 1.54055C7.88439 1.79939 8.09425 2.0093 8.35314 2.0093C8.61203 2.0093 8.82189 1.79939 8.82189 1.54055C8.82189 1.20802 9.09241 0.9375 9.42494 0.9375C9.75747 0.9375 10.028 1.20802 10.028 1.54055C10.028 1.78486 9.90545 2.00208 9.7082 2.10745C9.23734 2.35898 8.95619 2.82788 8.95619 3.36173V3.40716H5.83389C4.62883 3.40716 3.64844 4.38755 3.64844 5.59261V16.5584C3.64844 17.7635 4.62883 18.7439 5.83389 18.7439H7.16945V20.4823C7.16945 20.7411 7.37931 20.951 7.6382 20.951H8.95623V22.0522C8.95623 23.1262 9.83003 24 10.9041 24H15.4452C16.5193 24 17.3931 23.1262 17.3931 22.0522V5.54644C17.3931 4.98933 17.8463 4.53609 18.4034 4.53609C18.9605 4.53609 19.4138 4.98933 19.4138 5.54644V12.1086C19.4138 12.3675 19.6236 12.5774 19.8825 12.5774C20.1414 12.5774 20.3513 12.3675 20.3513 12.1086V5.54644C20.3513 4.47239 19.4775 3.59864 18.4034 3.59864ZM4.58598 16.5584V5.59261C4.58598 4.90448 5.14581 4.34466 5.83394 4.34466H13.016C13.7042 4.34466 14.264 4.90448 14.264 5.59261V6.91059H11.4394C11.1805 6.91059 10.9706 7.1205 10.9706 7.37934C10.9706 7.63819 11.1805 7.84809 11.4394 7.84809H14.264V8.70173H12.9985C12.7396 8.70173 12.5297 8.91164 12.5297 9.17048C12.5297 9.42933 12.7396 9.63923 12.9985 9.63923H14.264V10.4928H11.4394C11.1805 10.4928 10.9706 10.7027 10.9706 10.9616C10.9706 11.2204 11.1805 11.4303 11.4394 11.4303H14.264V12.284H12.9985C12.7396 12.284 12.5297 12.4939 12.5297 12.7527C12.5297 13.0116 12.7396 13.2215 12.9985 13.2215H14.264V14.0751H11.4394C11.1805 14.0751 10.9706 14.285 10.9706 14.5439C10.9706 14.8027 11.1805 15.0126 11.4394 15.0126H14.264V16.5584C14.264 17.2465 13.7042 17.8064 13.016 17.8064H5.83389C5.14581 17.8063 4.58598 17.2465 4.58598 16.5584ZM8.10695 18.7438H10.743V20.0135H8.10695V18.7438ZM8.22386 8.34427C8.13677 8.21489 7.99103 8.13736 7.83508 8.13736C7.67913 8.13736 7.53339 8.21489 7.4463 8.34427C7.33 8.51695 7.1538 8.73684 6.96728 8.96967C6.33039 9.76453 5.53769 10.7538 5.53769 11.7164C5.53769 12.9831 6.56838 14.0137 7.83522 14.0137C9.10192 14.0137 10.1325 12.9831 10.1325 11.7164C10.1325 10.7538 9.33981 9.76453 8.70288 8.96967C8.51636 8.73684 8.34016 8.51691 8.22386 8.34427ZM7.83522 13.0761C7.08527 13.0761 6.47519 12.4661 6.47519 11.7163C6.47519 11.083 7.18244 10.2003 7.69886 9.55584C7.74498 9.49823 7.79059 9.44137 7.83508 9.38541C7.87956 9.44133 7.92513 9.49819 7.9713 9.55584C8.48772 10.2003 9.19497 11.083 9.19497 11.7163C9.19497 12.4661 8.58498 13.0761 7.83522 13.0761Z" fill="#292929"/>
    </g>
    <defs>
        <clipPath id="clip0_1827_27223">
            <rect width="24" height="24" fill="white"/>
        </clipPath>
    </defs>
</svg>