<svg width="24" height="24" viewBox="0 0 24 24" fill="none" xmlns="http://www.w3.org/2000/svg">
    <g clip-path="url(#clip0_1422_88732)">
        <path d="M23.974 3.36405C24.0444 3.00415 23.9705 2.63843 23.7658 2.33417C23.5612 2.02991 23.2502 1.82357 22.8903 1.75316C22.5306 1.6828 22.1647 1.75668 21.8604 1.96138C21.5561 2.16608 21.3498 2.477 21.2794 2.83685L18.8194 15.4103C18.6355 16.3503 19.1472 17.2678 19.9949 17.6294L19.5733 19.2791C19.0831 21.1966 17.3586 22.5358 15.3794 22.5358C12.9925 22.5358 11.0507 20.594 11.0507 18.2071V17.1635H14.4494C15.0716 17.1635 15.5778 16.6573 15.5778 16.0352V13.6963C15.5778 13.0742 15.0716 12.568 14.4494 12.568H12.3241C12.3097 12.5333 12.2897 12.5003 12.2635 12.4706L10.8363 10.8523H14.4494C15.0716 10.8523 15.5778 10.3461 15.5778 9.7239V1.89008C15.5778 1.26792 15.0716 0.761719 14.4494 0.761719H5.61051C5.41631 0.761719 5.25895 0.919123 5.25895 1.11328C5.25895 1.30743 5.41631 1.46484 5.61051 1.46484H14.4494C14.6839 1.46484 14.8747 1.65562 14.8747 1.89008V9.7239C14.8747 9.95836 14.6839 10.1491 14.4494 10.1491H1.12836C0.893851 10.1491 0.703118 9.95836 0.703118 9.7239V1.89008C0.703118 1.65562 0.893851 1.46484 1.12836 1.46484H3.82928C4.02348 1.46484 4.18083 1.30743 4.18083 1.11328C4.18083 0.919123 4.02348 0.761719 3.82928 0.761719H1.12836C0.506198 0.761719 0 1.26792 0 1.89008V9.7239C0 10.3461 0.506198 10.8523 1.12836 10.8523H4.7415L3.22844 12.568H1.12836C0.506198 12.568 0 13.0742 0 13.6963V16.0352C0 16.6573 0.506198 17.1635 1.12836 17.1635H7.42305C7.61725 17.1635 7.77461 17.0061 7.77461 16.812C7.77461 16.6178 7.61725 16.4604 7.42305 16.4604H1.12836C0.893851 16.4604 0.703118 16.2696 0.703118 16.0352V13.6963C0.703118 13.4619 0.893851 13.2711 1.12836 13.2711H14.4495C14.684 13.2711 14.8747 13.4619 14.8747 13.6963V13.872H9.87398C9.35461 13.872 8.93208 14.2945 8.93208 14.8139V14.9176C8.93208 15.437 9.35461 15.8595 9.87398 15.8595H14.8747V16.0352C14.8747 16.2697 14.684 16.4605 14.4495 16.4605H9.11054C8.91634 16.4605 8.75898 16.6179 8.75898 16.812C8.75898 17.0062 8.91634 17.1636 9.11054 17.1636H10.3476V18.2072C10.3476 20.9817 12.6048 23.239 15.3794 23.239C17.68 23.239 19.6848 21.6822 20.2545 19.4533L20.6803 17.7874C20.7134 17.789 20.7463 17.7899 20.7792 17.7899C21.7141 17.7899 22.5513 17.1282 22.7374 16.1768L23.5323 12.1139C23.6505 11.5098 23.491 10.8931 23.0948 10.422C22.8362 10.1145 22.7321 9.71208 22.8092 9.31773L23.974 3.36405ZM5.67899 10.8523H9.89883L11.4119 12.568H4.16593L5.67899 10.8523ZM9.87398 15.1564C9.74231 15.1564 9.6352 15.0493 9.6352 14.9176V14.8139C9.6352 14.6822 9.74231 14.5751 9.87398 14.5751H14.8747V15.1564H9.87398ZM21.9695 2.97185C22.0038 2.79631 22.1045 2.64467 22.2529 2.54478C22.3647 2.46959 22.4935 2.43055 22.6253 2.43055C22.6685 2.43055 22.712 2.43472 22.7553 2.4432C22.9309 2.47756 23.0826 2.5782 23.1824 2.72665C23.2823 2.8751 23.3183 3.05351 23.284 3.2291L22.187 8.83623L20.8736 8.57317L21.9695 2.97185ZM22.8423 11.979L22.0474 16.0419C21.9106 16.7416 21.23 17.1994 20.5302 17.0626C19.8305 16.9257 19.3726 16.245 19.5095 15.5453L20.7386 9.26321L22.0818 9.53223C22.0715 10.0191 22.2369 10.4944 22.5568 10.8747C22.8153 11.1822 22.9194 11.5847 22.8423 11.979Z" fill="black"/>
        <path d="M2.86602 5.59205C2.84427 5.77266 2.89883 5.95641 3.01578 6.09623C4.20133 7.51363 5.9401 8.33342 7.7907 8.34537C9.63676 8.33342 11.3755 7.51363 12.5611 6.09623C12.678 5.95645 12.7326 5.77275 12.7109 5.59219C12.6893 5.41247 12.5933 5.24785 12.4476 5.14056L10.0825 3.39856C9.81578 3.20201 9.44397 3.23309 9.2178 3.47093C8.84154 3.86655 8.33407 4.08991 7.78845 4.10022C7.24283 4.08991 6.73542 3.86655 6.35916 3.47088C6.13294 3.23309 5.76127 3.20201 5.49441 3.39851L3.12936 5.14046C2.98363 5.24776 2.88763 5.41233 2.86602 5.59205ZM5.88052 3.9873C6.38587 4.50217 7.05965 4.79157 7.78278 4.80325C7.78653 4.80329 7.79038 4.80329 7.79413 4.80325C8.51731 4.79153 9.19108 4.50217 9.69644 3.9873L11.9932 5.679C10.9412 6.91673 9.41041 7.6317 7.79075 7.6422C6.16655 7.6317 4.63572 6.91668 3.58376 5.679L5.88052 3.9873Z" fill="black"/>
        <path d="M3.09706 14.5137H2.25195C2.05775 14.5137 1.90039 14.6711 1.90039 14.8652C1.90039 15.0594 2.05775 15.2168 2.25195 15.2168H3.09706C3.29127 15.2168 3.44863 15.0594 3.44863 14.8652C3.44863 14.6711 3.29122 14.5137 3.09706 14.5137Z" fill="black"/>
        <path d="M4.53906 14.5137C4.34486 14.5137 4.1875 14.6711 4.1875 14.8652C4.1875 15.0594 4.34486 15.2168 4.53906 15.2168H5.38417C5.57837 15.2168 5.73573 15.0594 5.73573 14.8652C5.73573 14.6711 5.57837 14.5137 5.38417 14.5137H4.53906Z" fill="black"/>
        <path d="M7.66928 14.5137H6.82422C6.63002 14.5137 6.47266 14.6711 6.47266 14.8652C6.47266 15.0594 6.63002 15.2168 6.82422 15.2168H7.66928C7.86348 15.2168 8.02084 15.0594 8.02084 14.8652C8.02084 14.6711 7.86348 14.5137 7.66928 14.5137Z" fill="black"/>
    </g>
    <defs>
        <clipPath id="clip0_1422_88732">
            <rect width="24" height="24" fill="white"/>
        </clipPath>
    </defs>
</svg>
