<svg width="24" height="24" viewBox="0 0 24 24" fill="none" xmlns="http://www.w3.org/2000/svg">
    <g clip-path="url(#clip0_1422_88265)">
        <path d="M3.63609 17.8595H0.9375C0.67875 17.8595 0.46875 17.6495 0.46875 17.3907V16.4532C0.46875 16.1945 0.67875 15.9845 0.9375 15.9845H3.87094" stroke="#014FE6" stroke-miterlimit="10" stroke-linejoin="round"/>
        <path d="M16.3855 17.8595H7.61328" stroke="#014FE6" stroke-miterlimit="10" stroke-linejoin="round"/>
        <path d="M16.621 15.9845H7.37915" stroke="#014FE6" stroke-miterlimit="10" stroke-linejoin="round"/>
        <path d="M20.1292 15.9845H23.0626C23.3213 15.9845 23.5313 16.1945 23.5313 16.4532V17.3907C23.5313 17.6495 23.3213 17.8595 23.0626 17.8595H20.364" stroke="#014FE6" stroke-miterlimit="10" stroke-linejoin="round"/>
        <path d="M14.3445 4.7345H10.3125C10.0536 4.7345 9.84375 4.94436 9.84375 5.20325V15.9845" stroke="#014FE6" stroke-miterlimit="10" stroke-linecap="round" stroke-linejoin="round"/>
        <path d="M22.5945 15.9845V5.20325C22.5945 4.94436 22.3847 4.7345 22.1258 4.7345H18.0938" stroke="#014FE6" stroke-miterlimit="10" stroke-linecap="round" stroke-linejoin="round"/>
        <path d="M5.15625 10.3595L1.71042 11.6517C1.52747 11.7203 1.40625 11.8952 1.40625 12.0906V15.9845" stroke="#014FE6" stroke-miterlimit="10" stroke-linejoin="round"/>
        <path d="M9.84375 6.14075H8.13473C7.60209 6.14075 7.11516 6.44168 6.87694 6.91812L5.15625 10.3595H9.84375" stroke="#014FE6" stroke-miterlimit="10" stroke-linejoin="round"/>
        <path d="M18.375 19.2657C19.54 19.2657 20.4844 18.3213 20.4844 17.1564C20.4844 15.9914 19.54 15.047 18.375 15.047C17.21 15.047 16.2656 15.9914 16.2656 17.1564C16.2656 18.3213 17.21 19.2657 18.375 19.2657Z" stroke="#014FE6" stroke-miterlimit="10" stroke-linejoin="round"/>
        <path d="M5.625 19.2657C6.78998 19.2657 7.73438 18.3213 7.73438 17.1564C7.73438 15.9914 6.78998 15.047 5.625 15.047C4.46002 15.047 3.51562 15.9914 3.51562 17.1564C3.51562 18.3213 4.46002 19.2657 5.625 19.2657Z" stroke="#014FE6" stroke-miterlimit="10" stroke-linejoin="round"/>
        <path d="M1.53722 11.7657H2.8125C3.33028 11.7657 3.75 12.1855 3.75 12.7032C3.75 13.221 3.33028 13.6407 2.8125 13.6407H1.40625" stroke="#014FE6" stroke-miterlimit="10" stroke-linejoin="round"/>
        <circle cx="18.375" cy="17.1564" r="0.46875" fill="#014FE6"/>
        <circle cx="5.625" cy="17.1564" r="0.46875" fill="#014FE6"/>
        <path d="M9.84375 12.7032H8.4375" stroke="#014FE6" stroke-miterlimit="10" stroke-linecap="round" stroke-linejoin="round"/>
        <path d="M18.0938 9.422H17.1562V8.4845C17.1562 8.22561 16.9464 8.01575 16.6875 8.01575H15.75C15.4911 8.01575 15.2812 8.22561 15.2812 8.4845V9.422H14.3438C14.0849 9.422 13.875 9.63186 13.875 9.89075V10.8282C13.875 11.0871 14.0849 11.297 14.3438 11.297H15.2812V12.2345C15.2812 12.4934 15.4911 12.7032 15.75 12.7032H16.6875C16.9464 12.7032 17.1562 12.4934 17.1562 12.2345V11.297H18.0938C18.3526 11.297 18.5625 11.0871 18.5625 10.8282V9.89075C18.5625 9.63186 18.3526 9.422 18.0938 9.422Z" stroke="#014FE6" stroke-miterlimit="10" stroke-linejoin="round"/>
        <circle cx="16.2188" cy="4.73438" r="0.46875" fill="#014FE6"/>
    </g>
    <defs>
        <clipPath id="clip0_1422_88265">
            <rect width="24" height="24" fill="white"/>
        </clipPath>
    </defs>
</svg>