<svg width="24" height="24" viewBox="0 0 24 24" fill="none" xmlns="http://www.w3.org/2000/svg">
    <g clip-path="url(#clip0_1827_26591)">
        <path d="M22.7738 9.62072C21.7491 9.62072 21.1086 8.95598 20.8509 8.33391C20.5933 7.71178 20.5761 6.78886 21.3007 6.06427C21.7788 5.58614 21.7788 4.8082 21.3007 4.33008L19.6699 2.6993C19.1918 2.22122 18.4139 2.22127 17.9357 2.6993C17.2111 3.42389 16.2883 3.40669 15.6661 3.14906C15.0441 2.89139 14.3793 2.25094 14.3793 1.2262C14.3793 0.550078 13.8292 0 13.1531 0H10.8469C10.1708 0 9.62072 0.550078 9.62072 1.2262C9.62072 2.25094 8.95598 2.89139 8.33391 3.14906C7.71178 3.40678 6.78886 3.42389 6.06427 2.6993C5.58619 2.22122 4.8082 2.22127 4.33008 2.6993L2.6993 4.33008C2.22117 4.8082 2.22117 5.58614 2.6993 6.06431C3.42389 6.78891 3.40673 7.71183 3.14906 8.33395C2.89139 8.95603 2.25094 9.62077 1.2262 9.62077C0.550078 9.62072 0 10.1708 0 10.8469V13.153C0 13.8292 0.550078 14.3792 1.2262 14.3792C2.25094 14.3792 2.89139 15.044 3.14906 15.666C3.40673 16.2881 3.42394 17.2111 2.6993 17.9357C2.46773 18.1673 2.34019 18.4753 2.34019 18.8028C2.34019 19.1303 2.46773 19.4383 2.6993 19.6699L4.33008 21.3007C4.80825 21.7788 5.58619 21.7787 6.06427 21.3007C6.78994 20.5748 7.71286 20.5915 8.33466 20.8491C8.95641 21.1066 9.62077 21.7474 9.62077 22.7738C9.62077 23.4499 10.1708 24 10.847 24H13.1531C13.8293 24 14.3793 23.4499 14.3793 22.7738C14.3793 21.7491 15.0441 21.1086 15.6661 20.8509C16.2883 20.5931 17.2112 20.576 17.9358 21.3007C18.4139 21.7788 19.1919 21.7787 19.67 21.3007L21.3007 19.6699C21.7788 19.1918 21.7788 18.4139 21.3007 17.9357C20.5762 17.2111 20.5933 16.2882 20.851 15.666C21.1087 15.0439 21.7491 14.3792 22.7738 14.3792C23.45 14.3792 24 13.8292 24 13.153V10.8469C24 10.1708 23.4499 9.62072 22.7738 9.62072ZM23.0625 13.1531C23.0625 13.3123 22.933 13.4418 22.7738 13.4418C21.5301 13.4418 20.4615 14.1566 19.9848 15.3073C19.5081 16.4581 19.7583 17.7193 20.6377 18.5986C20.7503 18.7112 20.7503 18.8945 20.6377 19.007L19.007 20.6378C18.8944 20.7504 18.7111 20.7504 18.5986 20.6378C17.7192 19.7584 16.458 19.5081 15.3073 19.9848C14.1565 20.4615 13.4417 21.5302 13.4417 22.7738C13.4417 22.933 13.3122 23.0625 13.153 23.0625H10.8469C10.6877 23.0625 10.5582 22.933 10.5582 22.7738C10.5582 21.5288 9.84361 20.4594 8.69334 19.983C8.30789 19.8233 7.91002 19.7453 7.51809 19.7453C6.74048 19.7453 5.98664 20.0525 5.40127 20.6378C5.28872 20.7504 5.10548 20.7504 4.99289 20.6378L3.36211 19.007C3.30759 18.9525 3.27759 18.88 3.27759 18.8029C3.27759 18.7258 3.30764 18.6532 3.36216 18.5987C4.24158 17.7193 4.4918 16.4581 4.01512 15.3074C3.5385 14.1567 2.4698 13.4418 1.22611 13.4418C1.06692 13.4418 0.937406 13.3123 0.937406 13.1531V10.847C0.937406 10.6878 1.06692 10.5583 1.22611 10.5583C2.4698 10.5583 3.5385 9.84347 4.01512 8.69278C4.4918 7.54205 4.24158 6.28088 3.36216 5.40145C3.24956 5.28886 3.24956 5.10567 3.36216 4.99312L4.99289 3.36234C5.10548 3.24975 5.28872 3.2498 5.40127 3.36234C5.98575 3.94683 6.73861 4.25334 7.51584 4.2533C7.90805 4.2533 8.30663 4.17516 8.69259 4.01531C9.84333 3.53869 10.5582 2.46998 10.5582 1.2263C10.5582 1.06711 10.6877 0.937594 10.8469 0.937594H13.153C13.3122 0.937594 13.4417 1.06711 13.4417 1.2263C13.4417 2.46998 14.1566 3.53869 15.3073 4.01531C16.458 4.49194 17.7192 4.24172 18.5985 3.36234C18.7111 3.2498 18.8944 3.24975 19.0069 3.36234L20.6377 4.99308C20.7503 5.10567 20.7503 5.28891 20.6377 5.40145C19.7583 6.28088 19.5081 7.54205 19.9847 8.69278C20.4614 9.84352 21.5301 10.5583 22.7738 10.5583C22.9329 10.5583 23.0625 10.6878 23.0625 10.847V13.1531H23.0625ZM12 5.0993C8.19492 5.0993 5.09925 8.19497 5.09925 12C5.09925 15.8051 8.19492 18.9007 12 18.9007C15.8051 18.9007 18.9007 15.8051 18.9007 12C18.9007 8.19497 15.8051 5.0993 12 5.0993ZM12 17.9632C8.71186 17.9632 6.03675 15.2882 6.03675 12C6.03675 8.71191 8.71186 6.0368 12 6.0368C15.2881 6.0368 17.9632 8.71191 17.9632 12C17.9632 15.2881 15.2881 17.9632 12 17.9632ZM15.5156 10.1272H13.8728V8.48438C13.8728 8.22548 13.6629 8.01562 13.404 8.01562H10.596C10.3371 8.01562 10.1273 8.22548 10.1273 8.48438V10.1272H8.48438C8.22548 10.1272 8.01562 10.3371 8.01562 10.596V13.404C8.01562 13.6628 8.22548 13.8727 8.48438 13.8727H10.1273V15.5156C10.1273 15.7745 10.3371 15.9844 10.596 15.9844H13.404C13.6629 15.9844 13.8728 15.7745 13.8728 15.5156V13.8727H15.5156C15.7745 13.8727 15.9844 13.6628 15.9844 13.404V10.596C15.9844 10.3371 15.7745 10.1272 15.5156 10.1272ZM15.0469 12.9352H13.404C13.1452 12.9352 12.9353 13.1452 12.9353 13.404V15.0469H11.0648V13.404C11.0648 13.1452 10.8549 12.9352 10.596 12.9352H8.95312V11.0647H10.596C10.8549 11.0647 11.0648 10.8548 11.0648 10.596V8.95312H12.9353V10.596C12.9353 10.8548 13.1452 11.0647 13.404 11.0647H15.0469V12.9352Z" fill="#292929"/>
    </g>
    <defs>
        <clipPath id="clip0_1827_26591">
            <rect width="24" height="24" fill="white"/>
        </clipPath>
    </defs>
</svg>