<svg width="24" height="24" viewBox="0 0 24 24" fill="none" xmlns="http://www.w3.org/2000/svg">
    <g clip-path="url(#clip0_1422_88305)">
        <path d="M3.30711 23.5312H3.27186C2.11639 23.5312 1.17969 22.5945 1.17969 21.4391V18.0612H5.39923V21.4391C5.39928 22.5945 4.46258 23.5312 3.30711 23.5312Z" stroke="#014FE6" stroke-miterlimit="10" stroke-linecap="round" stroke-linejoin="round"/>
        <path d="M4.51053 14.3683H2.06844C1.83059 14.3683 1.62978 14.5451 1.59955 14.781L1.17969 18.0612H5.39923L4.97937 14.781C4.94919 14.5451 4.74837 14.3683 4.51053 14.3683Z" stroke="#014FE6" stroke-miterlimit="10" stroke-linecap="round" stroke-linejoin="round"/>
        <path d="M4.23455 12.1174V14.3684H2.34375V12.1174" stroke="#014FE6" stroke-miterlimit="10" stroke-linecap="round" stroke-linejoin="round"/>
        <path d="M13.0488 9.9337V7.58948" stroke="#014FE6" stroke-miterlimit="10" stroke-linecap="round" stroke-linejoin="round"/>
        <path d="M11.1582 9.9337V7.58948" stroke="#014FE6" stroke-miterlimit="10" stroke-linecap="round" stroke-linejoin="round"/>
        <path d="M3.28978 12.4775C4.07438 12.4775 4.71042 11.8415 4.71042 11.0569C4.71042 10.2723 4.07438 9.63623 3.28978 9.63623C2.50518 9.63623 1.86914 10.2723 1.86914 11.0569C1.86914 11.8415 2.50518 12.4775 3.28978 12.4775Z" stroke="#014FE6" stroke-miterlimit="10" stroke-linecap="round" stroke-linejoin="round"/>
        <path d="M12.1162 12.4775C12.9008 12.4775 13.5368 11.8415 13.5368 11.0569C13.5368 10.2723 12.9008 9.63623 12.1162 9.63623C11.3316 9.63623 10.6956 10.2723 10.6956 11.0569C10.6956 11.8415 11.3316 12.4775 12.1162 12.4775Z" stroke="#014FE6" stroke-miterlimit="10" stroke-linecap="round" stroke-linejoin="round"/>
        <path d="M4.23455 3.42004V8.69873C4.23455 9.21651 3.81483 9.63623 3.29705 9.63623H3.28125C2.76347 9.63623 2.34375 9.21651 2.34375 8.69873V3.42004C2.34375 2.90226 2.76347 2.48254 3.28125 2.48254H3.29705C3.81478 2.48254 4.23455 2.90231 4.23455 3.42004Z" stroke="#014FE6" stroke-miterlimit="10" stroke-linecap="round" stroke-linejoin="round"/>
        <path d="M14.4294 12.0023H13.2227" stroke="#014FE6" stroke-miterlimit="10" stroke-linecap="round" stroke-linejoin="round"/>
        <path d="M13.2227 10.1118H19.997V12.0023H18.7001" stroke="#014FE6" stroke-miterlimit="10" stroke-linecap="round" stroke-linejoin="round"/>
        <path d="M11.0091 10.1118H4.34961" stroke="#014FE6" stroke-miterlimit="10" stroke-linecap="round" stroke-linejoin="round"/>
        <path d="M11.0096 12.0023H4.34961" stroke="#014FE6" stroke-miterlimit="10" stroke-linecap="round" stroke-linejoin="round"/>
        <path d="M21.0589 12.8293H20.4648C20.206 12.8293 19.9961 12.6194 19.9961 12.3605V9.75366C19.9961 9.49477 20.206 9.28491 20.4648 9.28491H21.0589C22.0295 9.28491 22.8163 10.0717 22.8163 11.0423V11.0719C22.8163 12.0425 22.0295 12.8293 21.0589 12.8293Z" stroke="#014FE6" stroke-miterlimit="10" stroke-linecap="round" stroke-linejoin="round"/>
        <path d="M12.1038 7.66847C14.0919 7.66847 15.7036 6.05676 15.7036 4.06861C15.7036 2.08046 14.0919 0.46875 12.1038 0.46875C10.1156 0.46875 8.50391 2.08046 8.50391 4.06861C8.50391 6.05676 10.1156 7.66847 12.1038 7.66847Z" stroke="#014FE6" stroke-miterlimit="10" stroke-linecap="round" stroke-linejoin="round"/>
        <path d="M12.1035 0.744507V1.4054" stroke="#014FE6" stroke-miterlimit="10" stroke-linecap="round" stroke-linejoin="round"/>
        <path d="M8.78125 4.0686H9.44209" stroke="#014FE6" stroke-miterlimit="10" stroke-linecap="round" stroke-linejoin="round"/>
        <path d="M12.1035 7.3927V6.73181" stroke="#014FE6" stroke-miterlimit="10" stroke-linecap="round" stroke-linejoin="round"/>
        <path d="M15.4265 4.0686H14.7656" stroke="#014FE6" stroke-miterlimit="10" stroke-linecap="round" stroke-linejoin="round"/>
        <path d="M12.1035 4.06861L13.1147 3.05737" stroke="#014FE6" stroke-miterlimit="10" stroke-linecap="round" stroke-linejoin="round"/>
        <circle cx="16.5625" cy="12" r="0.46875" fill="#014FE6"/>
    </g>
    <defs>
        <clipPath id="clip0_1422_88305">
            <rect width="24" height="24" fill="white"/>
        </clipPath>
    </defs>
</svg>
