<svg width="24" height="24" viewBox="0 0 24 24" fill="none" xmlns="http://www.w3.org/2000/svg">
    <g clip-path="url(#clip0_1422_88327)">
        <path d="M12 13.9109C11.5895 13.6486 10.9703 13.5682 10.4754 13.7385L8.655 14.3532C8.53336 14.3942 8.40656 14.415 8.27822 14.415H7.79334C7.42486 14.415 7.125 14.7149 7.125 15.0833C7.125 15.1306 7.13625 15.2287 7.15669 15.2848C7.54087 16.3116 8.28155 17.1725 9.23634 17.7113L9.31903 17.7579C9.37364 17.7887 9.43298 17.8034 9.49148 17.8034C9.6142 17.8034 9.73336 17.739 9.798 17.6245C9.89339 17.4554 9.83367 17.241 9.66455 17.1456L9.58186 17.0989C9.19387 16.88 8.8485 16.5977 8.55717 16.268C8.89308 16.3691 9.24731 16.4121 9.60464 16.3895L11.0117 16.3004C11.1338 16.2928 11.2549 16.3181 11.3633 16.3736C11.5627 16.4758 11.7813 16.5269 12 16.5269C12.2187 16.5269 12.4374 16.4758 12.6367 16.3736C12.7451 16.318 12.8663 16.2924 12.9882 16.3004L14.3954 16.3895C14.7528 16.4122 15.1069 16.3693 15.4425 16.2684C15.1513 16.598 14.806 16.8802 14.4181 17.099L13.9923 17.3393C13.5555 17.5858 13.0596 17.716 12.5581 17.716H11.442C11.3173 17.716 11.1913 17.7079 11.0674 17.6918C10.8751 17.6672 10.6986 17.8028 10.6736 17.9954C10.6487 18.188 10.7846 18.3643 10.9772 18.3892C11.1309 18.4091 11.2873 18.4191 11.442 18.4191H12.5581C13.1805 18.4191 13.7959 18.2575 14.3379 17.9516L14.7637 17.7113C15.7185 17.1726 16.4572 16.3108 16.8434 15.2848C16.8596 15.2346 16.8712 15.1751 16.8751 15.0834C16.8751 14.7149 16.5753 14.4151 16.2067 14.4151H15.7622C15.6071 14.4151 15.4539 14.3899 15.3069 14.3403L13.5247 13.7385C13.0649 13.5749 12.445 13.6339 12 13.9109ZM12.3787 14.5036C12.6569 14.337 12.9926 14.301 13.2997 14.4047L15.0819 15.0065C15.3015 15.0806 15.5304 15.1182 15.7621 15.1182H16.0966C15.6437 15.5197 15.0478 15.7264 14.4398 15.6877L13.0326 15.5986C12.7852 15.5827 12.537 15.6345 12.316 15.7477C12.1181 15.8492 11.8819 15.8492 11.6839 15.7477C11.4888 15.6478 11.2728 15.5959 11.0543 15.5959C11.0254 15.5959 10.9964 15.5968 10.9674 15.5986L9.56025 15.6877C8.95261 15.7266 8.35627 15.5197 7.90336 15.1183H8.27817C8.4832 15.1183 8.68561 15.085 8.87991 15.0194L10.7003 14.4048C11.0074 14.3011 11.3431 14.3371 11.6213 14.5037L11.7257 14.5662C11.8949 14.6676 12.1052 14.6676 12.2741 14.5663L12.3787 14.5036Z" fill="#014FE6"/>
        <path d="M21.9179 17.5063C21.7557 17.3998 21.5377 17.4449 21.4311 17.6072C20.7989 18.57 20.014 19.4377 19.12 20.1693C18.9238 20.2789 18.6614 20.2803 18.4429 20.1708C18.3064 20.1022 18.0725 19.9294 18.0397 19.5408C18.0234 19.3473 17.8534 19.2042 17.6599 19.22C17.4664 19.2363 17.3228 19.4064 17.3391 19.5999C17.3852 20.1348 17.7048 20.6265 18.2129 20.8386C18.0803 20.9266 15.392 22.5571 15.392 22.5571C14.6421 23.0104 13.7826 23.25 12.9063 23.25H11.0937C10.2174 23.25 9.35789 23.0104 8.60798 22.5571C8.05866 22.2205 6.27642 21.1582 5.84648 20.8788C6.30483 20.6656 6.60141 20.2019 6.66042 19.6049C6.6795 19.4117 6.53836 19.2396 6.34509 19.2205C6.15244 19.2021 5.9798 19.3425 5.96067 19.5358C5.92617 19.8852 5.77941 20.1362 5.54742 20.2427C5.34506 20.3356 5.09925 20.3123 4.8982 20.1835C2.27911 18.0441 0.703125 14.7908 0.703125 11.3672V9.27741C1.09327 10.0329 1.63711 10.7114 2.31436 11.2676C2.3798 11.3213 2.45873 11.3475 2.5373 11.3475C2.63888 11.3475 2.73966 11.3037 2.80917 11.2191C2.93241 11.0691 2.91066 10.8475 2.76061 10.7242C1.45303 9.6503 0.703125 8.06512 0.703125 6.375C0.703125 3.27338 3.2265 0.75 6.32812 0.75C7.72955 0.75 9.07219 1.26848 10.1086 2.20988C10.2524 2.34033 10.4747 2.32973 10.6053 2.18602C10.7358 2.0423 10.7251 1.81992 10.5814 1.68938C9.41522 0.630188 7.90472 0.046875 6.32812 0.046875C2.8388 0.046875 0 2.88567 0 6.375V11.3672C0 13.4405 0.538313 15.4909 1.55686 17.2968C2.56903 19.0874 4.03983 20.6166 5.82577 21.6967L8.24423 23.1587C9.10392 23.6785 10.0892 23.9531 11.0937 23.9531H12.9063C13.9108 23.9531 14.8961 23.6785 15.7558 23.1588C16.7513 22.536 18.6755 21.4283 19.5789 20.7019C20.574 19.9018 21.3509 19.0104 22.0189 17.9931C22.1254 17.8309 22.0802 17.6129 21.9179 17.5063Z" fill="#014FE6"/>
        <path d="M23.6482 5.95312C23.454 5.95312 23.2966 6.11048 23.2966 6.30469V11.3672C23.2966 13.0626 22.9289 14.6988 22.2038 16.2306C22.1208 16.406 22.1956 16.6157 22.3711 16.6987C22.4197 16.7217 22.4709 16.7326 22.5213 16.7326C22.653 16.7326 22.7792 16.6583 22.8393 16.5314C23.5984 14.9278 23.9997 13.1421 23.9997 11.3672V6.30469C23.9997 6.11048 23.8424 5.95312 23.6482 5.95312Z" fill="#014FE6"/>
        <path d="M10.3446 19.3818C10.1599 19.4418 10.0588 19.6402 10.1189 19.8248C10.1789 20.0095 10.3775 20.1106 10.5619 20.0505C11.5026 19.7448 12.4972 19.7448 13.438 20.0505C13.4741 20.0622 13.5107 20.0678 13.5467 20.0678C13.6948 20.0678 13.8326 19.9734 13.8809 19.8248C13.9409 19.6402 13.8399 19.4418 13.6552 19.3818C12.5723 19.03 11.4274 19.03 10.3446 19.3818Z" fill="#014FE6"/>
        <path d="M11.9534 6.37502C11.9534 9.47664 9.43 12 6.32837 12C5.54462 12 4.78637 11.842 4.07467 11.5304C3.89682 11.4526 3.6895 11.5336 3.61164 11.7115C3.53378 11.8893 3.61478 12.0966 3.79267 12.1745C4.45932 12.4664 5.16203 12.6381 5.88695 12.6876C5.80417 12.866 5.7107 13.0992 5.6236 13.3717C5.56576 13.5571 5.66907 13.7542 5.85437 13.8122C5.88929 13.823 5.92459 13.8282 5.95928 13.8282C6.109 13.8282 6.24775 13.7318 6.29476 13.5814C6.37975 13.317 6.49014 13.0277 6.66925 12.6939C10.0007 12.5162 12.6565 9.74997 12.6565 6.37502C12.6565 5.17858 12.3209 4.0136 11.6861 3.00602C11.5825 2.84172 11.3654 2.79246 11.2012 2.89596C11.0369 2.99946 10.9877 3.21653 11.0912 3.38083C11.6552 4.27605 11.9534 5.31142 11.9534 6.37502Z" fill="#014FE6"/>
        <path d="M4.42674 10.0037C4.42276 10.0077 4.9097 9.52111 4.92507 9.50573C5.57767 8.85356 7.36848 7.06392 8.02876 6.40406C8.08295 6.45975 8.15265 6.50789 8.29431 6.52397C8.38426 6.52397 8.47421 6.4897 8.54284 6.42108L9.40581 5.55862C9.80912 5.15559 10.0312 4.61967 10.0312 4.04953C10.0312 3.47939 9.80912 2.94342 9.40581 2.54044C9.26846 2.40319 9.04609 2.40319 8.90874 2.54044C7.15599 4.29197 4.67654 6.76983 2.93462 8.51072C2.73512 8.71008 2.62524 8.9752 2.62524 9.25725C2.62524 9.53934 2.73512 9.80447 2.93462 10.0038C3.14035 10.2094 3.41045 10.3122 3.68068 10.3122C3.95082 10.3121 4.22106 10.2093 4.42674 10.0037ZM4.6764 7.76405L5.17482 8.26214L4.6764 8.76023L4.17803 8.26219L4.6764 7.76405ZM5.67212 7.76508L5.1737 7.26698L7.03295 5.40891L7.53137 5.907L5.67212 7.76508ZM9.12667 3.31659C9.25796 3.53587 9.32799 3.78727 9.32799 4.04948C9.32799 4.43175 9.17912 4.79105 8.90874 5.06128L8.29431 5.67539L7.53039 4.91194L9.12667 3.31659ZM3.32837 9.2572C3.32837 9.16308 3.36503 9.07458 3.43163 9.00802L3.68063 8.75916L4.17901 9.2572L3.92963 9.50639C3.79229 9.64364 3.56898 9.64369 3.43154 9.50634C3.36503 9.43988 3.32837 9.35137 3.32837 9.2572Z" fill="#014FE6"/>
        <path d="M16.6124 11.5795C16.6816 11.6707 16.7866 11.7188 16.8929 11.7188C16.9668 11.7188 17.0415 11.6956 17.1049 11.6475C17.2597 11.5302 17.2901 11.3097 17.1729 11.1549L16.5869 10.3815C16.4697 10.2268 16.2492 10.1963 16.0944 10.3135C15.9396 10.4308 15.9092 10.6513 16.0264 10.8061L16.6124 11.5795Z" fill="#014FE6"/>
        <path d="M17.5084 13.0557C17.5836 13.2264 17.6499 13.4032 17.7055 13.5813C17.7525 13.7318 17.8913 13.8282 18.041 13.8282C18.0757 13.8282 18.111 13.823 18.1459 13.8121C18.3312 13.7542 18.4345 13.557 18.3767 13.3717C18.2674 13.0259 18.119 12.6626 17.9021 12.2729C17.8069 12.1037 17.5926 12.0436 17.4234 12.1389C17.2542 12.2341 17.1941 12.4485 17.2894 12.6177C17.3693 12.7597 17.4429 12.907 17.5084 13.0557Z" fill="#014FE6"/>
        <path d="M18.3117 14.3954C18.1202 14.4272 17.9906 14.6082 18.0224 14.7997C18.0726 15.1108 18.1103 15.5268 18.0884 15.9437C18.0788 16.1376 18.2283 16.3026 18.4222 16.3121C18.4281 16.3124 18.434 16.3125 18.4398 16.3125C18.626 16.3125 18.7814 16.1663 18.7906 15.9783C18.8085 15.6151 18.7924 15.14 18.716 14.6847C18.6843 14.4932 18.5033 14.3637 18.3117 14.3954Z" fill="#014FE6"/>
        <path d="M17.8731 17.1111L17.4981 18.1892C17.4344 18.3726 17.5313 18.573 17.7147 18.6368C17.7529 18.65 17.7918 18.6564 17.8302 18.6564C17.9757 18.6564 18.1117 18.5654 18.1622 18.4202L18.5372 17.3421C18.601 17.1587 18.504 16.9583 18.3207 16.8945C18.1374 16.831 17.9369 16.9277 17.8731 17.1111Z" fill="#014FE6"/>
        <path d="M5.97678 14.7997C6.00851 14.6082 5.87895 14.4271 5.68742 14.3954C5.49589 14.3638 5.31486 14.4932 5.28307 14.6847C5.24501 14.9145 5.21989 15.1489 5.20845 15.3812C5.19875 15.579 5.19875 15.7799 5.20845 15.9781C5.21768 16.1663 5.37307 16.3125 5.55931 16.3125C5.56507 16.3125 5.57093 16.3124 5.57679 16.3121C5.77071 16.3026 5.9202 16.1377 5.91073 15.9437C5.90211 15.7684 5.90211 15.5907 5.91073 15.4157C5.92086 15.2102 5.94307 15.003 5.97678 14.7997Z" fill="#014FE6"/>
        <path d="M5.83795 18.4202C5.88844 18.5654 6.02451 18.6564 6.17001 18.6564C6.20831 18.6564 6.24726 18.6501 6.28551 18.6368C6.46889 18.573 6.56583 18.3726 6.50208 18.1892L6.12708 17.1111C6.06333 16.9277 5.86289 16.8309 5.67951 16.8945C5.49614 16.9583 5.3992 17.1587 5.46295 17.3421L5.83795 18.4202Z" fill="#014FE6"/>
    </g>
    <defs>
        <clipPath id="clip0_1422_88327">
            <rect width="24" height="24" fill="white"/>
        </clipPath>
    </defs>
</svg>