<svg width="24" height="24" viewBox="0 0 24 24" fill="none" xmlns="http://www.w3.org/2000/svg">
    <g clip-path="url(#clip0_1422_88392)">
        <path d="M23.974 3.36369C24.0444 3.00378 23.9705 2.63807 23.7658 2.33381C23.5612 2.02954 23.2502 1.8232 22.8903 1.7528C22.5306 1.68244 22.1647 1.75631 21.8604 1.96101C21.5561 2.16571 21.3498 2.47663 21.2794 2.83649L18.8194 15.4099C18.6355 16.3499 19.1472 17.2674 19.9949 17.629L19.5733 19.2787C19.0831 21.1962 17.3586 22.5354 15.3794 22.5354C12.9925 22.5354 11.0507 20.5936 11.0507 18.2067V17.1632H14.4494C15.0716 17.1632 15.5778 16.657 15.5778 16.0348V13.696C15.5778 13.0738 15.0716 12.5676 14.4494 12.5676H12.3241C12.3097 12.533 12.2897 12.5 12.2635 12.4702L10.8363 10.8519H14.4494C15.0716 10.8519 15.5778 10.3457 15.5778 9.72353V1.88972C15.5778 1.26755 15.0716 0.761353 14.4494 0.761353H5.61051C5.41631 0.761353 5.25895 0.918757 5.25895 1.11291C5.25895 1.30707 5.41631 1.46447 5.61051 1.46447H14.4494C14.6839 1.46447 14.8747 1.65525 14.8747 1.88972V9.72353C14.8747 9.958 14.6839 10.1488 14.4494 10.1488H1.12836C0.893851 10.1488 0.703118 9.958 0.703118 9.72353V1.88972C0.703118 1.65525 0.893851 1.46447 1.12836 1.46447H3.82928C4.02348 1.46447 4.18083 1.30707 4.18083 1.11291C4.18083 0.918757 4.02348 0.761353 3.82928 0.761353H1.12836C0.506198 0.761353 0 1.26755 0 1.88972V9.72353C0 10.3457 0.506198 10.8519 1.12836 10.8519H4.7415L3.22844 12.5676H1.12836C0.506198 12.5676 0 13.0738 0 13.696V16.0348C0 16.657 0.506198 17.1632 1.12836 17.1632H7.42305C7.61725 17.1632 7.77461 17.0058 7.77461 16.8116C7.77461 16.6175 7.61725 16.4601 7.42305 16.4601H1.12836C0.893851 16.4601 0.703118 16.2693 0.703118 16.0348V13.696C0.703118 13.4615 0.893851 13.2707 1.12836 13.2707H14.4495C14.684 13.2707 14.8747 13.4615 14.8747 13.696V13.8716H9.87398C9.35461 13.8716 8.93208 14.2942 8.93208 14.8135V14.9173C8.93208 15.4366 9.35461 15.8592 9.87398 15.8592H14.8747V16.0349C14.8747 16.2693 14.684 16.4601 14.4495 16.4601H9.11054C8.91634 16.4601 8.75898 16.6175 8.75898 16.8117C8.75898 17.0058 8.91634 17.1632 9.11054 17.1632H10.3476V18.2068C10.3476 20.9813 12.6048 23.2386 15.3794 23.2386C17.68 23.2386 19.6848 21.6819 20.2545 19.4529L20.6803 17.787C20.7134 17.7887 20.7463 17.7896 20.7792 17.7896C21.7141 17.7896 22.5513 17.1278 22.7374 16.1765L23.5323 12.1136C23.6505 11.5095 23.491 10.8928 23.0948 10.4217C22.8362 10.1142 22.7321 9.71172 22.8092 9.31736L23.974 3.36369ZM5.67899 10.8519H9.89883L11.4119 12.5676H4.16593L5.67899 10.8519ZM9.87398 15.1561C9.74231 15.1561 9.6352 15.0489 9.6352 14.9173V14.8135C9.6352 14.6819 9.74231 14.5748 9.87398 14.5748H14.8747V15.1561H9.87398ZM21.9695 2.97149C22.0038 2.79594 22.1045 2.6443 22.2529 2.54441C22.3647 2.46923 22.4935 2.43018 22.6253 2.43018C22.6685 2.43018 22.712 2.43435 22.7553 2.44284C22.9309 2.4772 23.0826 2.57783 23.1824 2.72629C23.2823 2.87474 23.3183 3.05314 23.284 3.22873L22.187 8.83587L20.8736 8.57281L21.9695 2.97149ZM22.8423 11.9786L22.0474 16.0415C21.9106 16.7412 21.23 17.1991 20.5302 17.0622C19.8305 16.9253 19.3726 16.2447 19.5095 15.545L20.7386 9.26285L22.0818 9.53186C22.0715 10.0187 22.2369 10.494 22.5568 10.8743C22.8153 11.1818 22.9194 11.5843 22.8423 11.9786Z" fill="#014FE6"/>
        <path d="M2.86602 5.59132C2.84427 5.77193 2.89883 5.95567 3.01578 6.0955C4.20133 7.51289 5.9401 8.33268 7.7907 8.34464C9.63676 8.33268 11.3755 7.51289 12.5611 6.0955C12.678 5.95572 12.7326 5.77202 12.7109 5.59146C12.6893 5.41174 12.5933 5.24712 12.4476 5.13982L10.0825 3.39782C9.81578 3.20128 9.44397 3.23236 9.2178 3.4702C8.84154 3.86582 8.33407 4.08918 7.78845 4.09949C7.24283 4.08918 6.73542 3.86582 6.35916 3.47015C6.13294 3.23236 5.76127 3.20128 5.49441 3.39778L3.12936 5.13973C2.98363 5.24703 2.88763 5.4116 2.86602 5.59132ZM5.88052 3.98657C6.38587 4.50144 7.05965 4.79084 7.78278 4.80251C7.78653 4.80256 7.79038 4.80256 7.79413 4.80251C8.51731 4.7908 9.19108 4.50144 9.69644 3.98657L11.9932 5.67827C10.9412 6.91599 9.41041 7.63097 7.79075 7.64147C6.16655 7.63097 4.63572 6.91595 3.58376 5.67827L5.88052 3.98657Z" fill="#014FE6"/>
        <path d="M3.09706 14.5138H2.25195C2.05775 14.5138 1.90039 14.6712 1.90039 14.8654C1.90039 15.0595 2.05775 15.2169 2.25195 15.2169H3.09706C3.29127 15.2169 3.44863 15.0595 3.44863 14.8654C3.44863 14.6712 3.29122 14.5138 3.09706 14.5138Z" fill="#014FE6"/>
        <path d="M4.53906 14.5138C4.34486 14.5138 4.1875 14.6712 4.1875 14.8654C4.1875 15.0595 4.34486 15.2169 4.53906 15.2169H5.38417C5.57837 15.2169 5.73573 15.0595 5.73573 14.8654C5.73573 14.6712 5.57837 14.5138 5.38417 14.5138H4.53906Z" fill="#014FE6"/>
        <path d="M7.66928 14.5138H6.82422C6.63002 14.5138 6.47266 14.6712 6.47266 14.8654C6.47266 15.0595 6.63002 15.2169 6.82422 15.2169H7.66928C7.86348 15.2169 8.02084 15.0595 8.02084 14.8654C8.02084 14.6712 7.86348 14.5138 7.66928 14.5138Z" fill="#014FE6"/>
    </g>
    <defs>
        <clipPath id="clip0_1422_88392">
            <rect width="24" height="24" fill="white"/>
        </clipPath>
    </defs>
</svg>