<svg width="24" height="24" viewBox="0 0 24 24" fill="none" xmlns="http://www.w3.org/2000/svg">
    <g clip-path="url(#clip0_1422_88352)">
        <path d="M18.4037 3.59864C17.3296 3.59864 16.4558 4.47244 16.4558 5.54648V22.0522C16.4558 22.6093 16.0026 23.0625 15.4454 23.0625H10.9044C10.3473 23.0625 9.89398 22.6093 9.89398 22.0522V20.951H11.212C11.4709 20.951 11.6808 20.7411 11.6808 20.4823V18.7439H13.0163C14.2213 18.7439 15.2017 17.7635 15.2017 16.5584V5.59261C15.2017 4.38755 14.2213 3.40716 13.0163 3.40716H9.89398V3.36173C9.89398 3.17442 9.98496 3.02264 10.1502 2.93437C10.6533 2.66564 10.9658 2.13155 10.9658 1.54059C10.9657 0.691078 10.2747 0 9.42518 0C8.57571 0 7.88463 0.691078 7.88463 1.54055C7.88463 1.79939 8.09449 2.0093 8.35338 2.0093C8.61228 2.0093 8.82213 1.79939 8.82213 1.54055C8.82213 1.20802 9.09265 0.9375 9.42518 0.9375C9.75771 0.9375 10.0282 1.20802 10.0282 1.54055C10.0282 1.78486 9.9057 2.00208 9.70845 2.10745C9.23759 2.35898 8.95643 2.82788 8.95643 3.36173V3.40716H5.83413C4.62907 3.40716 3.64868 4.38755 3.64868 5.59261V16.5584C3.64868 17.7635 4.62907 18.7439 5.83413 18.7439H7.1697V20.4823C7.1697 20.7411 7.37956 20.951 7.63845 20.951H8.95648V22.0522C8.95648 23.1262 9.83028 24 10.9044 24H15.4454C16.5195 24 17.3933 23.1262 17.3933 22.0522V5.54644C17.3933 4.98933 17.8466 4.53609 18.4037 4.53609C18.9608 4.53609 19.414 4.98933 19.414 5.54644V12.1086C19.414 12.3675 19.6239 12.5774 19.8828 12.5774C20.1416 12.5774 20.3515 12.3675 20.3515 12.1086V5.54644C20.3515 4.47239 19.4777 3.59864 18.4037 3.59864ZM4.58623 16.5584V5.59261C4.58623 4.90448 5.14606 4.34466 5.83418 4.34466H13.0163C13.7044 4.34466 14.2642 4.90448 14.2642 5.59261V6.91059H11.4396C11.1807 6.91059 10.9709 7.1205 10.9709 7.37934C10.9709 7.63819 11.1807 7.84809 11.4396 7.84809H14.2642V8.70173H12.9987C12.7398 8.70173 12.5299 8.91164 12.5299 9.17048C12.5299 9.42933 12.7398 9.63923 12.9987 9.63923H14.2642V10.4928H11.4396C11.1807 10.4928 10.9709 10.7027 10.9709 10.9616C10.9709 11.2204 11.1807 11.4303 11.4396 11.4303H14.2642V12.284H12.9987C12.7398 12.284 12.5299 12.4939 12.5299 12.7527C12.5299 13.0116 12.7398 13.2215 12.9987 13.2215H14.2642V14.0751H11.4396C11.1807 14.0751 10.9709 14.285 10.9709 14.5439C10.9709 14.8027 11.1807 15.0126 11.4396 15.0126H14.2642V16.5584C14.2642 17.2465 13.7044 17.8064 13.0163 17.8064H5.83413C5.14606 17.8063 4.58623 17.2465 4.58623 16.5584ZM8.1072 18.7438H10.7432V20.0135H8.1072V18.7438ZM8.2241 8.34427C8.13701 8.21489 7.99128 8.13736 7.83532 8.13736C7.67937 8.13736 7.53363 8.21489 7.44654 8.34427C7.33024 8.51695 7.15404 8.73684 6.96753 8.96967C6.33063 9.76453 5.53793 10.7538 5.53793 11.7164C5.53793 12.9831 6.56862 14.0137 7.83546 14.0137C9.10217 14.0137 10.1327 12.9831 10.1327 11.7164C10.1327 10.7538 9.34006 9.76453 8.70312 8.96967C8.5166 8.73684 8.3404 8.51691 8.2241 8.34427ZM7.83546 13.0761C7.08551 13.0761 6.47543 12.4661 6.47543 11.7163C6.47543 11.083 7.18268 10.2003 7.6991 9.55584C7.74523 9.49823 7.79084 9.44137 7.83532 9.38541C7.87981 9.44133 7.92537 9.49819 7.97154 9.55584C8.48796 10.2003 9.19521 11.083 9.19521 11.7163C9.19521 12.4661 8.58523 13.0761 7.83546 13.0761Z" fill="#014FE6"/>
    </g>
    <defs>
        <clipPath id="clip0_1422_88352">
            <rect width="24" height="24" fill="white"/>
        </clipPath>
    </defs>
</svg>