<svg width="24" height="24" viewBox="0 0 24 24" fill="none" xmlns="http://www.w3.org/2000/svg">
    <g clip-path="url(#clip0_1827_26969)">
        <path d="M23.5294 9.89375V6.83274C23.5294 6.44367 23.214 6.12824 22.8249 6.12824H18.5744C18.1854 6.12824 17.8699 5.81281 17.8699 5.42374V1.17325C17.8699 0.784179 17.5545 0.46875 17.1654 0.46875H6.83274C6.44367 0.46875 6.12824 0.784179 6.12824 1.17325V5.42374C6.12824 5.81281 5.81281 6.12824 5.42374 6.12824H1.17325C0.784179 6.12824 0.46875 6.44367 0.46875 6.83274V17.1654C0.46875 17.5545 0.784179 17.8699 1.17325 17.8699H5.42374C5.81281 17.8699 6.12824 18.1854 6.12824 18.5744V22.8249C6.12824 23.214 6.44367 23.5294 6.83274 23.5294H17.1654C17.5545 23.5294 17.8699 23.214 17.8699 22.8249V18.5744C17.8699 18.1854 18.1854 17.8699 18.5744 17.8699H22.8249C23.214 17.8699 23.5294 17.5545 23.5294 17.1654V14.1044" stroke="#292929" stroke-miterlimit="10" stroke-linecap="round" stroke-linejoin="round"/>
        <circle cx="23.5302" cy="11.999" r="0.469667" fill="#292929"/>
        <path d="M15.3704 16.3973C14.9046 16.8631 14.2945 17.0959 13.6843 17.0959C13.0741 17.0959 12.4639 16.8631 11.9982 16.3973C11.0671 17.3288 9.55696 17.3288 8.62589 16.3973C8.16013 15.932 7.92773 15.3213 7.92773 14.7112C7.92773 14.101 8.16013 13.4908 8.62589 13.0251L9.94791 11.7034C10.2975 11.3539 10.814 11.2268 11.2836 11.3812C11.5083 11.4552 11.7485 11.4952 11.9981 11.4952C12.2477 11.4952 12.4879 11.4552 12.7127 11.3812C13.1822 11.2268 13.6988 11.3539 14.0483 11.7034L15.3704 13.0251C16.3014 13.9566 16.3014 15.4663 15.3704 16.3973Z" stroke="#292929" stroke-miterlimit="10" stroke-linecap="round" stroke-linejoin="round"/>
        <path d="M6.62417 11.9899C7.15011 11.9899 7.57647 11.4312 7.57647 10.742C7.57647 10.0528 7.15011 9.49414 6.62417 9.49414C6.09823 9.49414 5.67188 10.0528 5.67188 10.742C5.67188 11.4312 6.09823 11.9899 6.62417 11.9899Z" stroke="#292929" stroke-miterlimit="10" stroke-linecap="round" stroke-linejoin="round"/>
        <path d="M10.0753 9.39806C10.6013 9.39806 11.0276 8.83938 11.0276 8.1502C11.0276 7.46103 10.6013 6.90234 10.0753 6.90234C9.5494 6.90234 9.12305 7.46103 9.12305 8.1502C9.12305 8.83938 9.5494 9.39806 10.0753 9.39806Z" stroke="#292929" stroke-miterlimit="10" stroke-linecap="round" stroke-linejoin="round"/>
        <path d="M17.3742 11.9899C17.9001 11.9899 18.3265 11.4312 18.3265 10.742C18.3265 10.0528 17.9001 9.49414 17.3742 9.49414C16.8482 9.49414 16.4219 10.0528 16.4219 10.742C16.4219 11.4312 16.8482 11.9899 17.3742 11.9899Z" stroke="#292929" stroke-miterlimit="10" stroke-linecap="round" stroke-linejoin="round"/>
        <path d="M13.921 9.39806C14.447 9.39806 14.8733 8.83938 14.8733 8.1502C14.8733 7.46103 14.447 6.90234 13.921 6.90234C13.3951 6.90234 12.9688 7.46103 12.9688 8.1502C12.9688 8.83938 13.3951 9.39806 13.921 9.39806Z" stroke="#292929" stroke-miterlimit="10" stroke-linecap="round" stroke-linejoin="round"/>
    </g>
    <defs>
        <clipPath id="clip0_1827_26969">
            <rect width="24" height="24" fill="white"/>
        </clipPath>
    </defs>
</svg>