<svg width="23" height="25" viewBox="0 0 23 25" fill="none" xmlns="http://www.w3.org/2000/svg">
    <path d="M16.8188 18.4444H12.06C11.1229 18.4444 10.3633 17.5611 10.3633 16.4715V16.4648H18.5155V16.4715C18.5155 17.5611 17.7559 18.4444 16.8188 18.4444Z" stroke="black" stroke-miterlimit="10" stroke-linecap="round" stroke-linejoin="round"/>
    <path d="M12.0505 16.4659H7.69566C7.46139 16.4659 7.27148 16.2451 7.27148 15.9727V14.9796C7.27148 14.7071 7.46139 14.4863 7.69566 14.4863H11.6263C11.8606 14.4863 12.0505 14.7071 12.0505 14.9796V16.4659Z" stroke="black" stroke-miterlimit="10" stroke-linecap="round" stroke-linejoin="round"/>
    <path d="M16.8298 16.4659H12.0508V14.9796C12.0508 14.7071 12.2407 14.4863 12.475 14.4863H16.4056C16.6399 14.4863 16.8298 14.7071 16.8298 14.9796L16.8298 16.4659Z" stroke="black" stroke-miterlimit="10" stroke-linecap="round" stroke-linejoin="round"/>
    <path d="M21.183 16.4659H16.8281V14.9796C16.8281 14.7071 17.018 14.4863 17.2523 14.4863H21.183C21.4172 14.4863 21.6071 14.7071 21.6071 14.9796V15.9727C21.6071 16.245 21.4172 16.4659 21.183 16.4659Z" stroke="black" stroke-miterlimit="10" stroke-linecap="round" stroke-linejoin="round"/>
    <path d="M16.2197 23.9991H12.6605C12.4262 23.9991 12.2363 23.7783 12.2363 23.5059V23.0445C12.2363 22.4784 12.631 22.0195 13.1178 22.0195H15.7623C16.2491 22.0195 16.6438 22.4784 16.6438 23.0445V23.5059C16.6438 23.7782 16.4539 23.9991 16.2197 23.9991Z" stroke="black" stroke-miterlimit="10" stroke-linecap="round" stroke-linejoin="round"/>
    <path d="M4.72161 24H1.16246C0.928186 24 0.738281 23.7792 0.738281 23.5068V22.2261C0.738281 21.6601 1.13294 21.2012 1.61977 21.2012H4.26427C4.7511 21.2012 5.14575 21.6601 5.14575 22.2261V23.5068C5.14579 23.7791 4.95589 24 4.72161 24Z" stroke="black" stroke-miterlimit="10" stroke-linecap="round" stroke-linejoin="round"/>
    <path d="M15.3055 18.4453H13.5742V22.021H15.3055V18.4453Z" stroke="black" stroke-miterlimit="10" stroke-linecap="round" stroke-linejoin="round"/>
    <path d="M4.45385 21.202H1.4295V13.4385C1.4295 13.1661 1.61941 12.9453 1.85368 12.9453H4.02968C4.26395 12.9453 4.45385 13.1661 4.45385 13.4385V21.202Z" stroke="black" stroke-miterlimit="10" stroke-linecap="round" stroke-linejoin="round"/>
    <path d="M3.79297 12.9253L3.79297 5.50195H2.09053L2.09053 12.9253H3.79297Z" stroke="black" stroke-miterlimit="10" stroke-linecap="round" stroke-linejoin="round"/>
    <path d="M15.291 4.67879V2.69922L13.5886 2.69922V4.67879H15.291Z" stroke="black" stroke-miterlimit="10" stroke-linecap="round" stroke-linejoin="round"/>
    <path d="M10.0952 0.494141H14.4427C14.9113 0.494141 15.2911 0.935778 15.2911 1.4806V2.69912H1.02734V1.4806C1.02734 0.935778 1.40715 0.494141 1.8757 0.494141H6.23011" stroke="black" stroke-miterlimit="10" stroke-linecap="round" stroke-linejoin="round"/>
    <path d="M12.2065 4.67773H16.6712C17.4098 4.67773 18.0086 5.37398 18.0086 6.23284V6.88271H10.8691V6.23284C10.8691 5.37398 11.4679 4.67773 12.2065 4.67773Z" stroke="black" stroke-miterlimit="10" stroke-linecap="round" stroke-linejoin="round"/>
    <path d="M1.02734 2.69727L2.09135 5.50117H3.79379L4.8578 2.69727H1.02734Z" stroke="black" stroke-miterlimit="10" stroke-linecap="round" stroke-linejoin="round"/>
    <path d="M14.4395 7.08398V9.2138" stroke="black" stroke-miterlimit="10" stroke-linecap="round" stroke-linejoin="round"/>
    <path d="M14.8663 11.2647H14.0123C13.778 11.2647 13.5881 11.0439 13.5881 10.7715V10.2716C13.5881 9.72679 13.9679 9.28516 14.4364 9.28516H14.4422C14.9107 9.28516 15.2905 9.72679 15.2905 10.2716V10.7715C15.2905 11.0439 15.1006 11.2647 14.8663 11.2647Z" stroke="black" stroke-miterlimit="10" stroke-linecap="round" stroke-linejoin="round"/>
    <path d="M14.4395 11.4082V12.2385" stroke="black" stroke-miterlimit="10" stroke-linecap="round" stroke-linejoin="round"/>
    <path d="M19.6456 11.2647H18.7915C18.5573 11.2647 18.3674 11.0439 18.3674 10.7715V10.2716C18.3674 9.72679 18.7472 9.28516 19.2157 9.28516H19.2215C19.69 9.28516 20.0698 9.72679 20.0698 10.2716V10.7715C20.0698 11.0439 19.8799 11.2647 19.6456 11.2647Z" stroke="black" stroke-miterlimit="10" stroke-linecap="round" stroke-linejoin="round"/>
    <path d="M19.2188 11.4082V12.2385" stroke="black" stroke-miterlimit="10" stroke-linecap="round" stroke-linejoin="round"/>
    <path d="M18.0078 6.88281C18.6757 6.88281 19.2171 7.51237 19.2171 8.28901V9.06747" stroke="black" stroke-miterlimit="10" stroke-linecap="round" stroke-linejoin="round"/>
    <path d="M8.90074 11.2647H9.75482C9.9891 11.2647 10.179 11.0439 10.179 10.7715V10.2716C10.179 9.72679 9.79919 9.28516 9.33065 9.28516H9.32492C8.85637 9.28516 8.47656 9.72679 8.47656 10.2716V10.7715C8.47656 11.0439 8.66647 11.2647 8.90074 11.2647Z" stroke="black" stroke-miterlimit="10" stroke-linecap="round" stroke-linejoin="round"/>
    <path d="M9.32605 11.4082V12.2385" stroke="black" stroke-miterlimit="10" stroke-linecap="round" stroke-linejoin="round"/>
    <path d="M10.8696 6.88281H10.5354C9.86751 6.88281 9.32605 7.51237 9.32605 8.28901V9.06747" stroke="black" stroke-miterlimit="10" stroke-linecap="round" stroke-linejoin="round"/>
    <ellipse cx="8.15868" cy="0.493229" rx="0.424179" ry="0.493229" fill="black"/>
</svg>