<svg width="24" height="24" viewBox="0 0 24 24" fill="none" xmlns="http://www.w3.org/2000/svg">
    <g clip-path="url(#clip0_1422_88471)">
        <path d="M21.2285 7.05689V2.09508C21.2285 0.939844 20.2887 0 19.1334 0H11.8483C10.693 0 9.75323 0.939844 9.75323 2.09508V7.05694C9.75323 8.03109 10.4215 8.85202 11.3237 9.0855V10.3707C10.4215 10.6041 9.75323 11.4251 9.75323 12.3992V13.4497H7.18313C6.28317 13.4497 5.55098 12.7175 5.55098 11.8175V7.72842C6.60112 7.51116 7.39294 6.57914 7.39294 5.46558V4.64761C7.39294 4.06327 7.04948 3.54131 6.53934 3.29855C6.39061 2.63119 5.7938 2.1308 5.08223 2.1308C4.37067 2.1308 3.77386 2.63109 3.62512 3.29845C3.11498 3.54117 2.77148 4.06313 2.77148 4.64752V5.46548C2.77148 6.57905 3.56334 7.51111 4.61348 7.72833V16.0574C4.61348 17.4743 5.76623 18.627 7.18313 18.627H9.75319V19.8158C9.75319 20.8344 10.4841 21.6851 11.4488 21.8722V22.4866C11.4488 23.3211 12.1277 24 12.9622 24C13.7967 24 14.4755 23.3211 14.4755 22.4866V21.9108H16.5061V22.4866C16.5061 23.3211 17.185 24 18.0195 24C18.8539 24 19.5328 23.3211 19.5328 22.4866V21.8722C20.4976 21.6851 21.2285 20.8343 21.2285 19.8158V12.3991C21.2285 11.425 20.5602 10.6041 19.658 10.3706V9.08541C20.5602 8.85202 21.2285 8.03105 21.2285 7.05689ZM10.6907 7.05689V2.09508C10.6907 1.45678 11.21 0.9375 11.8483 0.9375H19.1334C19.7717 0.9375 20.291 1.45678 20.291 2.09508V7.05694C20.291 7.69523 19.7717 8.21452 19.1334 8.21452H11.8483C11.21 8.21447 10.6907 7.69519 10.6907 7.05689ZM18.7205 10.3037H12.2612V9.15202H18.7205V10.3037ZM3.70898 5.46548V4.64752C3.70898 4.38478 3.89536 4.15598 4.15205 4.10353C4.37025 4.05895 4.52695 3.867 4.52695 3.6443V3.62353C4.52695 3.31734 4.776 3.06825 5.08223 3.06825C5.38847 3.06825 5.63752 3.31734 5.63752 3.62353V3.6443C5.63752 3.867 5.79422 4.059 6.01242 4.10353C6.26916 4.15598 6.45544 4.38478 6.45544 4.64752V5.46548C6.45544 6.22266 5.83941 6.83869 5.08223 6.83869C4.32502 6.83869 3.70898 6.22266 3.70898 5.46548ZM7.18313 17.6895C6.28317 17.6895 5.55098 16.9573 5.55098 16.0574V13.8007C5.99512 14.1668 6.56391 14.3871 7.18313 14.3871H9.75319V17.6895H7.18313V17.6895ZM10.6907 19.8158V18.627H11.8479C12.0345 19.2387 12.604 19.685 13.2759 19.685C14.0991 19.685 14.7687 19.0153 14.7687 18.1922C14.7687 17.3691 14.0991 16.6994 13.2759 16.6994C12.6292 16.6994 12.0773 17.113 11.8705 17.6895H10.6907V14.387H11.859C12.0561 14.9811 12.6166 15.411 13.2759 15.411C14.0991 15.411 14.7687 14.7414 14.7687 13.9183C14.7687 13.0951 14.0991 12.4255 13.2759 12.4255C12.6165 12.4255 12.0561 12.8554 11.859 13.4495H10.6907V12.3991C10.6907 11.7608 11.21 11.2415 11.8483 11.2415H15.8792V20.9732H11.8483C11.21 20.9733 10.6907 20.454 10.6907 19.8158ZM12.7207 18.1922C12.7207 17.886 12.9698 17.6369 13.2759 17.6369C13.5821 17.6369 13.8312 17.886 13.8312 18.1922C13.8312 18.4984 13.5821 18.7475 13.2759 18.7475C12.9698 18.7475 12.7207 18.4984 12.7207 18.1922ZM12.7207 13.9183C12.7207 13.6121 12.9698 13.363 13.2759 13.363C13.5821 13.363 13.8312 13.6121 13.8312 13.9183C13.8312 14.2245 13.5821 14.4736 13.2759 14.4736C12.9698 14.4736 12.7207 14.2245 12.7207 13.9183ZM16.8167 16.5762H20.291V18.0274H16.8167V16.5762ZM20.291 15.6387H16.8167V14.1874H20.291V15.6387ZM13.5381 22.4866C13.5381 22.8042 13.2797 23.0625 12.9623 23.0625C12.6447 23.0625 12.3864 22.8042 12.3864 22.4866V21.9108H13.5381V22.4866ZM18.5954 22.4866C18.5954 22.8042 18.337 23.0625 18.0195 23.0625C17.702 23.0625 17.4437 22.8042 17.4437 22.4866V21.9108H18.5954V22.4866ZM19.1334 20.9733H16.8167V18.965H20.291V19.8158C20.291 20.454 19.7717 20.9733 19.1334 20.9733ZM20.291 12.3991V13.2499H16.8167V11.2416H19.1334C19.7717 11.2416 20.291 11.7608 20.291 12.3991Z" fill="#014FE6"/>
        <path d="M12.5614 7.2803H13.3628C13.6217 7.2803 13.8316 7.07044 13.8316 6.81155C13.8316 6.55266 13.6217 6.3428 13.3628 6.3428L12.5623 6.34364L12.5614 2.80904L18.4193 2.80819L18.4202 6.34275H17.6264C17.3676 6.34275 17.1576 6.55261 17.1576 6.8115C17.1576 7.07039 17.3676 7.28025 17.6264 7.28025H18.4202C18.9366 7.28025 19.3568 6.86007 19.3568 6.3436V2.80824C19.3568 2.29172 18.9366 1.87158 18.4202 1.87158H12.5614C12.0449 1.87158 11.6248 2.29177 11.6248 2.80824V6.34364C11.6247 6.86016 12.0449 7.2803 12.5614 7.2803Z" fill="#014FE6"/>
        <path d="M5.08228 5.42236C5.34116 5.42236 5.55103 5.2125 5.55103 4.95361C5.55103 4.69473 5.34116 4.48486 5.08228 4.48486C4.82339 4.48486 4.61353 4.69473 4.61353 4.95361C4.61353 5.2125 4.82339 5.42236 5.08228 5.42236Z" fill="#014FE6"/>
        <path d="M15.4922 7.28027C15.7511 7.28027 15.9609 7.07041 15.9609 6.81152C15.9609 6.55264 15.7511 6.34277 15.4922 6.34277C15.2333 6.34277 15.0234 6.55264 15.0234 6.81152C15.0234 7.07041 15.2333 7.28027 15.4922 7.28027Z" fill="#014FE6"/>
    </g>
    <defs>
        <clipPath id="clip0_1422_88471">
            <rect width="24" height="24" fill="white"/>
        </clipPath>
    </defs>
</svg>