<svg width="24" height="24" viewBox="0 0 24 24" fill="none" xmlns="http://www.w3.org/2000/svg">
    <path d="M13.9739 22.4654C13.7337 22.3691 13.4607 22.4858 13.3644 22.7261C13.2839 22.9269 13.0798 23.0618 12.8566 23.0618H11.1442C10.921 23.0618 10.7169 22.9269 10.6364 22.7261C10.5401 22.4858 10.2672 22.3693 10.0269 22.4654C9.78659 22.5618 9.66987 22.8347 9.7662 23.0749C9.99134 23.6365 10.5322 23.9993 11.1442 23.9993H12.8566C13.4686 23.9993 14.0095 23.6365 14.2346 23.0749C14.3309 22.8347 14.2142 22.5618 13.9739 22.4654Z" fill="#292929"/>
    <path d="M19.4779 20.0513C19.3506 19.3949 18.9461 18.8266 18.368 18.491C18.4731 18.4051 18.5718 18.3101 18.6618 18.2055C19.1057 17.6898 19.3023 17.008 19.201 16.3351C19.0365 15.2418 18.5712 14.2202 17.8554 13.3808C17.3194 12.7524 16.6606 12.246 15.9233 11.8901C16.8256 10.9275 17.3791 9.63426 17.3791 8.214C17.3791 5.75616 15.7222 3.67795 13.4667 3.03769C13.7739 2.67089 13.9416 2.21264 13.9416 1.72842C13.9416 0.775359 13.1662 0 12.2132 0H12.213C11.8283 0 11.468 0.125109 11.1985 0.352219C10.9007 0.603188 10.7367 0.955922 10.7366 1.34541C10.7366 1.60425 10.9465 1.81416 11.2054 1.81416C11.4642 1.81416 11.6741 1.6043 11.6741 1.34541C11.6741 1.23389 11.7173 1.14094 11.8026 1.06903C11.9033 0.984187 12.0491 0.937453 12.2131 0.937453H12.2131C12.6493 0.937453 13.0041 1.2922 13.0041 1.72833C13.0041 2.02373 12.8891 2.30142 12.6802 2.5103C12.4713 2.71913 12.1937 2.83416 11.8984 2.83416H11.8983C11.8868 2.83416 11.8755 2.83505 11.8643 2.83589C8.9601 2.90789 6.61968 5.29275 6.61963 8.21395C6.61963 9.63422 7.17313 10.9275 8.07543 11.89C7.33818 12.2459 6.6794 12.7523 6.14343 13.3808C5.4276 14.2202 4.96227 15.2417 4.79774 16.335C4.69649 17.0079 4.89304 17.6897 5.33699 18.2055C5.42699 18.3101 5.52562 18.4051 5.63076 18.4909C5.05265 18.8265 4.64816 19.3949 4.5209 20.0513C4.39326 20.7094 4.55704 21.3897 4.97015 21.9177L5.97398 23.2004C6.37954 23.7187 6.99562 23.9973 7.62051 23.9973C7.97526 23.9973 8.33291 23.9075 8.65645 23.7207C9.54993 23.2049 9.9328 22.0943 9.54707 21.1375L8.93812 19.6268C8.89743 19.5259 8.84934 19.4291 8.79566 19.3361H12.2338C12.4926 19.3361 12.7025 19.1262 12.7025 18.8673C12.7025 18.6085 12.4926 18.3986 12.2338 18.3986H7.90457V17.4104C7.90457 17.2831 8.00807 17.1796 8.13534 17.1796H15.8635C15.9907 17.1796 16.0942 17.2831 16.0942 17.4104V18.4634C15.6291 18.7184 15.262 19.1273 15.0606 19.6268L14.4516 21.1374C14.0659 22.0943 14.4488 23.2049 15.3423 23.7207C15.6659 23.9075 16.0234 23.9973 16.3782 23.9973C17.0031 23.9973 17.6192 23.7186 18.0248 23.2004L19.0286 21.9177C19.4418 21.3897 19.6055 20.7095 19.4779 20.0513ZM7.55709 8.214C7.55713 5.76455 9.54998 3.77175 11.9994 3.7717C14.4488 3.77175 16.4416 5.76455 16.4417 8.214C16.4417 10.6635 14.4489 12.6562 11.9994 12.6563C9.54993 12.6562 7.55709 10.6635 7.55709 8.214ZM8.06873 19.9773L8.67768 21.4881C8.88979 22.0143 8.67913 22.6252 8.18774 22.9089C7.6964 23.1926 7.06204 23.0697 6.7123 22.6227L5.70848 21.34C5.46271 21.026 5.3653 20.6213 5.44124 20.2298C5.51718 19.8383 5.75882 19.4994 6.10419 19.3C6.44952 19.1006 6.86385 19.0609 7.24087 19.1908C7.61788 19.3208 7.91962 19.6075 8.06873 19.9773ZM15.8666 15.3047C15.6077 15.3047 15.3978 15.5146 15.3978 15.7734V16.2422H8.60404V15.7734C8.60404 15.5146 8.39418 15.3047 8.13529 15.3047C7.8764 15.3047 7.66654 15.5146 7.66654 15.7734V16.3407C7.25512 16.5217 6.96702 16.9329 6.96702 17.4105V18.0724C6.61204 18.0369 6.28265 17.8671 6.04748 17.5939C5.78184 17.2852 5.66423 16.8773 5.72479 16.4745C5.99315 14.6908 7.18246 13.217 8.8521 12.5743C9.73766 13.2152 10.8251 13.5938 11.9994 13.5938C13.1737 13.5938 14.2611 13.2152 15.1467 12.5743C16.8163 13.217 18.0056 14.6908 18.274 16.4745C18.3345 16.8773 18.2169 17.2852 17.9512 17.5939C17.7161 17.8671 17.3867 18.0369 17.0317 18.0724V17.4105C17.0317 16.9342 16.7451 16.5238 16.3353 16.3421V15.7734C16.3353 15.5146 16.1255 15.3047 15.8666 15.3047ZM18.2903 21.3399L17.2865 22.6227C16.9368 23.0695 16.3025 23.1925 15.8111 22.9088C15.3196 22.6251 15.109 22.0143 15.3212 21.4879L15.9301 19.9772C16.0792 19.6074 16.381 19.3207 16.758 19.1907C16.904 19.1404 17.0556 19.1155 17.2066 19.1155C17.4456 19.1155 17.6831 19.1778 17.8947 19.3C18.24 19.4994 18.4816 19.8383 18.5576 20.2298C18.6335 20.6213 18.5361 21.0259 18.2903 21.3399Z" fill="#292929"/>
    <path d="M14.4291 18.5358C14.3419 18.4486 14.2209 18.3984 14.0977 18.3984C13.9744 18.3984 13.8534 18.4485 13.7662 18.5358C13.6791 18.623 13.6289 18.7439 13.6289 18.8672C13.6289 18.9909 13.6791 19.1114 13.7662 19.1985C13.8534 19.2862 13.9744 19.3359 14.0977 19.3359C14.2209 19.3359 14.3419 19.2862 14.4291 19.1985C14.5163 19.1114 14.5664 18.9905 14.5664 18.8672C14.5664 18.7439 14.5163 18.623 14.4291 18.5358Z" fill="#292929"/>
    <path d="M13.2915 9.81553C13.0904 9.6525 12.7953 9.68349 12.6322 9.88453C12.4765 10.0767 12.2457 10.1869 11.9992 10.1869C11.7527 10.1869 11.5218 10.0767 11.3661 9.88453C11.2031 9.68339 10.908 9.6526 10.7068 9.81553C10.5057 9.97852 10.4748 10.2737 10.6378 10.4748C10.9724 10.8877 11.4686 11.1244 11.9992 11.1244C12.5297 11.1244 13.026 10.8876 13.3605 10.4748C13.5235 10.2737 13.4927 9.97852 13.2915 9.81553Z" fill="#292929"/>
    <path d="M10.8164 7.88336C10.3912 7.45815 9.69932 7.45815 9.27402 7.88336C9.09097 8.0664 9.09093 8.36317 9.27402 8.54626C9.45707 8.72936 9.75388 8.72935 9.93693 8.54631C9.9966 8.48664 10.0938 8.48664 10.1535 8.54631C10.245 8.63781 10.365 8.6836 10.4849 8.6836C10.6049 8.6836 10.7249 8.63781 10.8164 8.54631C10.9994 8.36326 10.9994 8.06645 10.8164 7.88336Z" fill="#292929"/>
    <path d="M14.7265 7.88332C14.3013 7.45816 13.6094 7.45816 13.1842 7.88332C13.0011 8.06637 13.0011 8.36318 13.1842 8.54627C13.2757 8.63782 13.3957 8.68357 13.5156 8.68357C13.6356 8.68357 13.7556 8.63777 13.8471 8.54627C13.9067 8.48665 14.0039 8.48655 14.0636 8.54627C14.2467 8.72937 14.5435 8.72932 14.7265 8.54623C14.9096 8.36318 14.9096 8.06641 14.7265 7.88332Z" fill="#292929"/>
</svg>