<svg width="24" height="24" viewBox="0 0 24 24" fill="none" xmlns="http://www.w3.org/2000/svg">
    <mask id="mask0_1422_88477" style="mask-type:luminance" maskUnits="userSpaceOnUse" x="0" y="0" width="24" height="24">
        <path d="M0 1.90735e-06H24V24H0V1.90735e-06Z" fill="white"/>
    </mask>
    <g mask="url(#mask0_1422_88477)">
        <path d="M11.3476 18.045C14.9431 18.045 17.8754 15.1192 17.8754 11.5304C17.8754 7.94283 14.9431 5.01698 11.3476 5.01698C7.75072 5.01698 4.81836 7.94283 4.81836 11.5304C4.81836 15.1192 7.75072 18.045 11.3476 18.045Z" stroke="#014FE6" stroke-miterlimit="10" stroke-linecap="round" stroke-linejoin="round"/>
        <path d="M11.3477 18.0449V23.5311M11.3477 0.468628V5.01681" stroke="#014FE6" stroke-miterlimit="10" stroke-linecap="round" stroke-linejoin="round"/>
        <path d="M11.3485 14.5518C13.0158 14.5518 14.3767 13.1951 14.3767 11.5302C14.3767 9.8667 13.0158 8.50877 11.3485 8.50877C9.67992 8.50877 8.32031 9.8667 8.32031 11.5302C8.32031 13.1951 9.67992 14.5518 11.3485 14.5518Z" stroke="#014FE6" stroke-miterlimit="10" stroke-linecap="round" stroke-linejoin="round"/>
        <path d="M11.3477 8.50879V7.13488" stroke="#014FE6" stroke-miterlimit="10" stroke-linecap="round" stroke-linejoin="round"/>
        <path d="M11.3477 14.5518V15.927" stroke="#014FE6" stroke-miterlimit="10" stroke-linecap="round" stroke-linejoin="round"/>
        <path d="M14.375 11.5303H15.752" stroke="#014FE6" stroke-miterlimit="10" stroke-linecap="round" stroke-linejoin="round"/>
        <path d="M8.31972 11.5303H6.94141" stroke="#014FE6" stroke-miterlimit="10" stroke-linecap="round" stroke-linejoin="round"/>
        <path d="M13.4863 9.39502L14.4611 8.42241" stroke="#014FE6" stroke-miterlimit="10" stroke-linecap="round" stroke-linejoin="round"/>
        <path d="M9.20523 13.6669L8.23047 14.6395" stroke="#014FE6" stroke-miterlimit="10" stroke-linecap="round" stroke-linejoin="round"/>
        <path d="M9.20523 9.39502L8.23047 8.42241" stroke="#014FE6" stroke-miterlimit="10" stroke-linecap="round" stroke-linejoin="round"/>
        <path d="M13.4863 13.6669L14.4611 14.6395" stroke="#014FE6" stroke-miterlimit="10" stroke-linecap="round" stroke-linejoin="round"/>
        <path d="M10.7031 10.8886V10.8899" stroke="#014FE6" stroke-miterlimit="10" stroke-linecap="round" stroke-linejoin="round"/>
        <path d="M11.9883 12.172V12.1733" stroke="#014FE6" stroke-miterlimit="10" stroke-linecap="round" stroke-linejoin="round"/>
        <path d="M17.8717 17.2478H20.4897V19.084H22.3288V21.695H20.4897V23.5312H17.8717V21.695H16.0312V19.084H17.8717V17.2478Z" stroke="#014FE6" stroke-miterlimit="10" stroke-linecap="round" stroke-linejoin="round"/>
        <path d="M1.66992 6.66455V4.05497C3.65545 4.05497 5.26411 2.44987 5.26411 0.46875H17.429C17.429 2.44987 19.0389 4.05497 21.0232 4.05497V13.4835C21.0232 14.7099 20.6197 16.0027 19.8913 17.2477M16.032 21.3057C14.6697 22.2557 13.0837 23.033 11.3472 23.5312C5.7142 21.9169 1.66992 17.3687 1.66992 13.4835V10.8739" stroke="#014FE6" stroke-miterlimit="10" stroke-linecap="round" stroke-linejoin="round"/>
        <path d="M1.66992 8.76662V8.76929" stroke="#014FE6" stroke-miterlimit="10" stroke-linecap="round" stroke-linejoin="round"/>
    </g>
</svg>