<svg width="23" height="25" viewBox="0 0 23 25" fill="none" xmlns="http://www.w3.org/2000/svg">
    <path d="M16.8188 18.4447H12.06C11.1229 18.4447 10.3633 17.5613 10.3633 16.4717V16.4651H18.5155V16.4717C18.5155 17.5614 17.7559 18.4447 16.8188 18.4447Z" stroke="#014FE6" stroke-miterlimit="10" stroke-linecap="round" stroke-linejoin="round"/>
    <path d="M12.0505 16.465H7.69566C7.46139 16.465 7.27148 16.2442 7.27148 15.9718V14.9787C7.27148 14.7063 7.46139 14.4855 7.69566 14.4855H11.6263C11.8606 14.4855 12.0505 14.7063 12.0505 14.9787V16.465Z" stroke="#014FE6" stroke-miterlimit="10" stroke-linecap="round" stroke-linejoin="round"/>
    <path d="M16.8298 16.465H12.0508V14.9787C12.0508 14.7063 12.2407 14.4855 12.475 14.4855H16.4056C16.6399 14.4855 16.8298 14.7063 16.8298 14.9787L16.8298 16.465Z" stroke="#014FE6" stroke-miterlimit="10" stroke-linecap="round" stroke-linejoin="round"/>
    <path d="M21.183 16.465H16.8281V14.9787C16.8281 14.7063 17.018 14.4855 17.2523 14.4855H21.183C21.4172 14.4855 21.6071 14.7063 21.6071 14.9787V15.9718C21.6071 16.2442 21.4172 16.465 21.183 16.465Z" stroke="#014FE6" stroke-miterlimit="10" stroke-linecap="round" stroke-linejoin="round"/>
    <path d="M16.2197 24H12.6605C12.4262 24 12.2363 23.7791 12.2363 23.5067V23.0454C12.2363 22.4793 12.631 22.0204 13.1178 22.0204H15.7623C16.2491 22.0204 16.6438 22.4793 16.6438 23.0454V23.5067C16.6438 23.7791 16.4539 24 16.2197 24Z" stroke="#014FE6" stroke-miterlimit="10" stroke-linecap="round" stroke-linejoin="round"/>
    <path d="M4.72161 23.9999H1.16246C0.928186 23.9999 0.738281 23.7791 0.738281 23.5066V22.226C0.738281 21.6599 1.13294 21.201 1.61977 21.201H4.26427C4.7511 21.201 5.14575 21.6599 5.14575 22.226V23.5066C5.14579 23.779 4.95589 23.9999 4.72161 23.9999Z" stroke="#014FE6" stroke-miterlimit="10" stroke-linecap="round" stroke-linejoin="round"/>
    <path d="M15.3055 18.4446H13.5742V22.0203H15.3055V18.4446Z" stroke="#014FE6" stroke-miterlimit="10" stroke-linecap="round" stroke-linejoin="round"/>
    <path d="M4.45379 21.201H1.42944V13.4376C1.42944 13.1652 1.61935 12.9443 1.85362 12.9443H4.02962C4.26389 12.9443 4.45379 13.1652 4.45379 13.4376V21.201Z" stroke="#014FE6" stroke-miterlimit="10" stroke-linecap="round" stroke-linejoin="round"/>
    <path d="M3.79297 12.9256L3.79297 5.5022H2.09053L2.09053 12.9256H3.79297Z" stroke="#014FE6" stroke-miterlimit="10" stroke-linecap="round" stroke-linejoin="round"/>
    <path d="M15.291 4.67794V2.69836L13.5886 2.69836V4.67794H15.291Z" stroke="#014FE6" stroke-miterlimit="10" stroke-linecap="round" stroke-linejoin="round"/>
    <path d="M10.0952 0.493164H14.4427C14.9113 0.493164 15.2911 0.934801 15.2911 1.47962V2.69814H1.02734V1.47962C1.02734 0.934801 1.40715 0.493164 1.8757 0.493164H6.23011" stroke="#014FE6" stroke-miterlimit="10" stroke-linecap="round" stroke-linejoin="round"/>
    <path d="M12.2065 4.67773H16.6712C17.4098 4.67773 18.0086 5.37398 18.0086 6.23284V6.88271H10.8691V6.23284C10.8691 5.37398 11.4679 4.67773 12.2065 4.67773Z" stroke="#014FE6" stroke-miterlimit="10" stroke-linecap="round" stroke-linejoin="round"/>
    <path d="M1.02734 2.69824L2.09135 5.50215H3.79379L4.8578 2.69824H1.02734Z" stroke="#014FE6" stroke-miterlimit="10" stroke-linecap="round" stroke-linejoin="round"/>
    <path d="M14.4395 7.08398V9.2138" stroke="#014FE6" stroke-miterlimit="10" stroke-linecap="round" stroke-linejoin="round"/>
    <path d="M14.8664 11.2641H14.0123C13.778 11.2641 13.5881 11.0433 13.5881 10.7709V10.271C13.5881 9.72618 13.9679 9.28455 14.4365 9.28455H14.4422C14.9108 9.28455 15.2906 9.72618 15.2906 10.271V10.7709C15.2906 11.0433 15.1007 11.2641 14.8664 11.2641Z" stroke="#014FE6" stroke-miterlimit="10" stroke-linecap="round" stroke-linejoin="round"/>
    <path d="M14.4395 11.4082V12.2385" stroke="#014FE6" stroke-miterlimit="10" stroke-linecap="round" stroke-linejoin="round"/>
    <path d="M19.6457 11.2641H18.7916C18.5573 11.2641 18.3674 11.0433 18.3674 10.7709V10.271C18.3674 9.72618 18.7472 9.28455 19.2158 9.28455H19.2215C19.6901 9.28455 20.0699 9.72618 20.0699 10.271V10.7709C20.0699 11.0433 19.88 11.2641 19.6457 11.2641Z" stroke="#014FE6" stroke-miterlimit="10" stroke-linecap="round" stroke-linejoin="round"/>
    <path d="M19.2188 11.4082V12.2385" stroke="#014FE6" stroke-miterlimit="10" stroke-linecap="round" stroke-linejoin="round"/>
    <path d="M18.0078 6.88269C18.6757 6.88269 19.2171 7.51225 19.2171 8.28889V9.06735" stroke="#014FE6" stroke-miterlimit="10" stroke-linecap="round" stroke-linejoin="round"/>
    <path d="M8.90074 11.264H9.75482C9.9891 11.264 10.179 11.0432 10.179 10.7708V10.2709C10.179 9.72606 9.79919 9.28442 9.33065 9.28442H9.32492C8.85637 9.28442 8.47656 9.72606 8.47656 10.2709V10.7708C8.47656 11.0432 8.66647 11.264 8.90074 11.264Z" stroke="#014FE6" stroke-miterlimit="10" stroke-linecap="round" stroke-linejoin="round"/>
    <path d="M9.32593 11.4083V12.2386" stroke="#014FE6" stroke-miterlimit="10" stroke-linecap="round" stroke-linejoin="round"/>
    <path d="M10.8695 6.88269H10.5353C9.86739 6.88269 9.32593 7.51225 9.32593 8.28889V9.06735" stroke="#014FE6" stroke-miterlimit="10" stroke-linecap="round" stroke-linejoin="round"/>
    <ellipse cx="8.1588" cy="0.493229" rx="0.424179" ry="0.493229" fill="#014FE6"/>
</svg>