<svg width="24" height="24" viewBox="0 0 24 24" fill="none" xmlns="http://www.w3.org/2000/svg">
    <g clip-path="url(#clip0_1422_88529)">
        <path d="M4.26562 6.03101V1.10913H9.89062V6.03101" stroke="#014FE6" stroke-miterlimit="10" stroke-linecap="round" stroke-linejoin="round"/>
        <path d="M4.26562 2.51538H9.89062" stroke="#014FE6" stroke-miterlimit="10" stroke-linecap="round" stroke-linejoin="round"/>
        <path d="M8.48438 3.92163V4.62476" stroke="#014FE6" stroke-miterlimit="10" stroke-linecap="round" stroke-linejoin="round"/>
        <path d="M7.07812 3.92163V4.62476" stroke="#014FE6" stroke-miterlimit="10" stroke-linecap="round" stroke-linejoin="round"/>
        <path d="M5.67188 3.92163V4.62476" stroke="#014FE6" stroke-miterlimit="10" stroke-linecap="round" stroke-linejoin="round"/>
        <path d="M14.1094 6.03101V1.10913H19.7344V6.03101" stroke="#014FE6" stroke-miterlimit="10" stroke-linecap="round" stroke-linejoin="round"/>
        <path d="M14.1094 2.51538H19.7344" stroke="#014FE6" stroke-miterlimit="10" stroke-linecap="round" stroke-linejoin="round"/>
        <path d="M18.3281 3.92163V4.62476" stroke="#014FE6" stroke-miterlimit="10" stroke-linecap="round" stroke-linejoin="round"/>
        <path d="M16.9219 3.92163V4.62476" stroke="#014FE6" stroke-miterlimit="10" stroke-linecap="round" stroke-linejoin="round"/>
        <path d="M15.5156 3.92163V4.62476" stroke="#014FE6" stroke-miterlimit="10" stroke-linecap="round" stroke-linejoin="round"/>
        <path d="M23.6484 20.0784H16.6172" stroke="#014FE6" stroke-miterlimit="10" stroke-linecap="round" stroke-linejoin="round"/>
        <path d="M23.6484 18.6721H16.6172" stroke="#014FE6" stroke-miterlimit="10" stroke-linecap="round" stroke-linejoin="round"/>
        <path d="M23.6484 17.2659H16.6172" stroke="#014FE6" stroke-miterlimit="10" stroke-linecap="round" stroke-linejoin="round"/>
        <path d="M7.38281 17.2659H0.351562" stroke="#014FE6" stroke-miterlimit="10" stroke-linecap="round" stroke-linejoin="round"/>
        <path d="M0.351562 13.0471V22.8909H7.38281V17.2659C7.38281 16.4892 8.01239 15.8596 8.78906 15.8596H9.89062C10.6673 15.8596 11.2969 15.23 11.2969 14.4534V7.42212C11.2969 6.64545 10.6673 6.01587 9.89062 6.01587H3.16406C1.61077 6.01587 0.351562 7.27507 0.351562 8.82837V11.6409" stroke="#014FE6" stroke-miterlimit="10" stroke-linecap="round" stroke-linejoin="round"/>
        <path d="M23.6484 11.6409V8.82837C23.6484 7.27507 22.3892 6.01587 20.8359 6.01587H14.1094C13.3327 6.01587 12.7031 6.64545 12.7031 7.42212V14.4534C12.7031 15.23 13.3327 15.8596 14.1094 15.8596H15.2109C15.9876 15.8596 16.6172 16.4892 16.6172 17.2659V22.8909H23.6484V13.0471" stroke="#014FE6" stroke-miterlimit="10" stroke-linecap="round" stroke-linejoin="round"/>
        <path d="M11.2969 7.42212H12.7031" stroke="#014FE6" stroke-miterlimit="10" stroke-linecap="round" stroke-linejoin="round"/>
        <path d="M11.2969 14.4534H12.7031" stroke="#014FE6" stroke-miterlimit="10" stroke-linecap="round" stroke-linejoin="round"/>
        <path d="M7.78125 11.656C8.94623 11.656 9.89062 10.7116 9.89062 9.54663C9.89062 8.38166 8.94623 7.43726 7.78125 7.43726C6.61627 7.43726 5.67188 8.38166 5.67188 9.54663C5.67188 10.7116 6.61627 11.656 7.78125 11.656Z" stroke="#014FE6" stroke-miterlimit="10" stroke-linecap="round" stroke-linejoin="round"/>
        <path d="M7.78125 10.2498C8.16958 10.2498 8.48438 9.93496 8.48438 9.54663C8.48438 9.15831 8.16958 8.84351 7.78125 8.84351C7.39292 8.84351 7.07812 9.15831 7.07812 9.54663C7.07812 9.93496 7.39292 10.2498 7.78125 10.2498Z" stroke="#014FE6" stroke-miterlimit="10" stroke-linecap="round" stroke-linejoin="round"/>
        <path d="M14.8125 8.84351C15.2008 8.84351 15.5156 8.52871 15.5156 8.14038C15.5156 7.75206 15.2008 7.43726 14.8125 7.43726C14.4242 7.43726 14.1094 7.75206 14.1094 8.14038C14.1094 8.52871 14.4242 8.84351 14.8125 8.84351Z" stroke="#014FE6" stroke-miterlimit="10" stroke-linecap="round" stroke-linejoin="round"/>
        <path d="M14.8125 11.656C15.2008 11.656 15.5156 11.3412 15.5156 10.9529C15.5156 10.5646 15.2008 10.2498 14.8125 10.2498C14.4242 10.2498 14.1094 10.5646 14.1094 10.9529C14.1094 11.3412 14.4242 11.656 14.8125 11.656Z" stroke="#014FE6" stroke-miterlimit="10" stroke-linecap="round" stroke-linejoin="round"/>
        <path d="M23.6485 15.8596H21.1428C20.3662 15.8596 19.7366 15.23 19.7366 14.4534C19.7366 14.2363 19.7857 14.0308 19.8735 13.8472L20.3027 12.9501C20.3905 12.7666 20.4397 12.561 20.4397 12.344C20.4397 12.127 20.3905 11.9214 20.3027 11.7379L19.8735 10.8408C19.7857 10.6572 19.7366 10.4517 19.7366 10.2346C19.7366 9.45795 20.3662 8.82837 21.1428 8.82837H23.6485" stroke="#014FE6" stroke-miterlimit="10" stroke-linecap="round" stroke-linejoin="round"/>
        <path d="M0.351562 15.8596H2.85722C3.63389 15.8596 4.26347 15.23 4.26347 14.4534C4.26347 14.2363 4.2143 14.0308 4.1265 13.8472L3.69731 12.9501C3.60952 12.7666 3.56034 12.561 3.56034 12.344C3.56034 12.127 3.60952 11.9214 3.69731 11.7379L4.1265 10.8408C4.2143 10.6572 4.26347 10.4517 4.26347 10.2346C4.26347 9.45795 3.63389 8.82837 2.85722 8.82837H0.351562" stroke="#014FE6" stroke-miterlimit="10" stroke-linecap="round" stroke-linejoin="round"/>
        <path d="M22.2422 20.0784V18.6721" stroke="#014FE6" stroke-miterlimit="10" stroke-linecap="round" stroke-linejoin="round"/>
        <path d="M20.8359 20.0784V18.6721" stroke="#014FE6" stroke-miterlimit="10" stroke-linecap="round" stroke-linejoin="round"/>
        <path d="M19.4297 20.0784V18.6721" stroke="#014FE6" stroke-miterlimit="10" stroke-linecap="round" stroke-linejoin="round"/>
        <path d="M18.0234 20.0784V18.6721" stroke="#014FE6" stroke-miterlimit="10" stroke-linecap="round" stroke-linejoin="round"/>
    </g>
    <defs>
        <clipPath id="clip0_1422_88529">
            <rect width="24" height="24" fill="white"/>
        </clipPath>
    </defs>
</svg>