<svg width="24" height="24" viewBox="0 0 24 24" fill="none" xmlns="http://www.w3.org/2000/svg">
    <g clip-path="url(#clip0_1422_88516)">
        <path d="M5.03522 6.02539C2.19206 6.55634 0.351562 7.40427 0.351562 8.35972" stroke="#014FE6" stroke-miterlimit="10" stroke-linecap="round" stroke-linejoin="round"/>
        <path d="M23.648 8.35975C23.648 6.75147 18.4327 5.44788 11.9996 5.44788C10.0821 5.44788 8.27289 5.56366 6.67773 5.76883" stroke="#014FE6" stroke-miterlimit="10" stroke-linecap="round" stroke-linejoin="round"/>
        <path d="M2.98633 10.1553C4.30689 9.75225 6.05116 9.4395 8.04887 9.25945C9.05041 8.22721 10.4516 7.58484 12 7.58484C13.5485 7.58484 14.9497 8.22726 15.9512 9.25954C17.949 9.43968 19.6932 9.75248 21.0138 10.1553" stroke="#014FE6" stroke-miterlimit="10" stroke-linecap="round" stroke-linejoin="round"/>
        <path d="M11.9992 18.5522C15.0148 18.5522 17.4594 16.1076 17.4594 13.092C17.4594 10.0764 15.0148 7.63184 11.9992 7.63184C8.98367 7.63184 6.53906 10.0764 6.53906 13.092C6.53906 16.1076 8.98367 18.5522 11.9992 18.5522Z" stroke="#014FE6" stroke-miterlimit="10" stroke-linecap="round" stroke-linejoin="round"/>
        <path d="M12.0002 14.184C12.6034 14.184 13.0923 13.695 13.0923 13.0919C13.0923 12.4888 12.6034 11.9999 12.0002 11.9999C11.3971 11.9999 10.9082 12.4888 10.9082 13.0919C10.9082 13.695 11.3971 14.184 12.0002 14.184Z" stroke="#014FE6" stroke-miterlimit="10" stroke-linecap="round" stroke-linejoin="round"/>
        <path d="M8.37109 13.0919C8.37109 11.0881 9.99555 9.46362 11.9994 9.46362" stroke="#014FE6" stroke-miterlimit="10" stroke-linecap="round" stroke-linejoin="round"/>
        <path d="M15.6281 13.0919C15.6281 15.0958 14.0036 16.7202 11.9998 16.7202" stroke="#014FE6" stroke-miterlimit="10" stroke-linecap="round" stroke-linejoin="round"/>
        <path d="M4.48218 14.2244C5.1598 14.3676 5.90376 14.4919 6.70091 14.5938" stroke="#014FE6" stroke-miterlimit="10" stroke-linecap="round" stroke-linejoin="round"/>
        <path d="M6.91359 10.9806C5.35059 10.7906 3.98302 10.5158 2.90672 10.1799C1.30781 9.68162 0.351562 9.04833 0.351562 8.35974V12.0001C0.351562 12.6888 1.30795 13.3217 2.90691 13.8202" stroke="#014FE6" stroke-miterlimit="10" stroke-linecap="round" stroke-linejoin="round"/>
        <path d="M22.3849 13.3205C23.1929 12.9241 23.6485 12.4754 23.6485 12.0001V8.35974C23.6485 9.04833 22.6918 9.68115 21.0933 10.1799C20.0169 10.5155 18.6493 10.7904 17.0862 10.9804" stroke="#014FE6" stroke-miterlimit="10" stroke-linecap="round" stroke-linejoin="round"/>
        <path d="M17.2988 14.5939C18.6704 14.4184 19.8846 14.177 20.8743 13.8864" stroke="#014FE6" stroke-miterlimit="10" stroke-linecap="round" stroke-linejoin="round"/>
    </g>
    <defs>
        <clipPath id="clip0_1422_88516">
            <rect width="24" height="24" fill="white"/>
        </clipPath>
    </defs>
</svg>