<svg width="24" height="24" viewBox="0 0 24 24" fill="none" xmlns="http://www.w3.org/2000/svg">
    <g clip-path="url(#clip0_1827_26725)">
        <path d="M3.63609 17.8594H0.9375C0.67875 17.8594 0.46875 17.6494 0.46875 17.3906V16.4531C0.46875 16.1944 0.67875 15.9844 0.9375 15.9844H3.87094" stroke="#292929" stroke-miterlimit="10" stroke-linejoin="round"/>
        <path d="M16.3855 17.8594H7.61328" stroke="#292929" stroke-miterlimit="10" stroke-linejoin="round"/>
        <path d="M16.6208 15.9844H7.37891" stroke="#292929" stroke-miterlimit="10" stroke-linejoin="round"/>
        <path d="M20.1289 15.9844H23.0623C23.3211 15.9844 23.5311 16.1944 23.5311 16.4531V17.3906C23.5311 17.6494 23.3211 17.8594 23.0623 17.8594H20.3637" stroke="#292929" stroke-miterlimit="10" stroke-linejoin="round"/>
        <path d="M14.3445 4.73438H10.3125C10.0536 4.73438 9.84375 4.94423 9.84375 5.20312V15.9844" stroke="#292929" stroke-miterlimit="10" stroke-linecap="round" stroke-linejoin="round"/>
        <path d="M22.5945 15.9844V5.20312C22.5945 4.94423 22.3847 4.73438 22.1258 4.73438H18.0938" stroke="#292929" stroke-miterlimit="10" stroke-linecap="round" stroke-linejoin="round"/>
        <path d="M5.15625 10.3594L1.71042 11.6516C1.52747 11.7202 1.40625 11.8951 1.40625 12.0905V15.9844" stroke="#292929" stroke-miterlimit="10" stroke-linejoin="round"/>
        <path d="M9.84375 6.14062H8.13473C7.60209 6.14062 7.11516 6.44156 6.87694 6.918L5.15625 10.3594H9.84375" stroke="#292929" stroke-miterlimit="10" stroke-linejoin="round"/>
        <path d="M18.375 19.2656C19.54 19.2656 20.4844 18.3212 20.4844 17.1562C20.4844 15.9913 19.54 15.0469 18.375 15.0469C17.21 15.0469 16.2656 15.9913 16.2656 17.1562C16.2656 18.3212 17.21 19.2656 18.375 19.2656Z" stroke="#292929" stroke-miterlimit="10" stroke-linejoin="round"/>
        <path d="M5.625 19.2656C6.78998 19.2656 7.73438 18.3212 7.73438 17.1562C7.73438 15.9913 6.78998 15.0469 5.625 15.0469C4.46002 15.0469 3.51562 15.9913 3.51562 17.1562C3.51562 18.3212 4.46002 19.2656 5.625 19.2656Z" stroke="#292929" stroke-miterlimit="10" stroke-linejoin="round"/>
        <path d="M1.53722 11.7656H2.8125C3.33028 11.7656 3.75 12.1853 3.75 12.7031C3.75 13.2209 3.33028 13.6406 2.8125 13.6406H1.40625" stroke="#292929" stroke-miterlimit="10" stroke-linejoin="round"/>
        <circle cx="18.375" cy="17.1562" r="0.46875" fill="#292929"/>
        <circle cx="5.625" cy="17.1562" r="0.46875" fill="#292929"/>
        <path d="M9.84375 12.7031H8.4375" stroke="#292929" stroke-miterlimit="10" stroke-linecap="round" stroke-linejoin="round"/>
        <path d="M18.0938 9.42188H17.1562V8.48438C17.1562 8.22548 16.9464 8.01562 16.6875 8.01562H15.75C15.4911 8.01562 15.2812 8.22548 15.2812 8.48438V9.42188H14.3438C14.0849 9.42188 13.875 9.63173 13.875 9.89062V10.8281C13.875 11.087 14.0849 11.2969 14.3438 11.2969H15.2812V12.2344C15.2812 12.4933 15.4911 12.7031 15.75 12.7031H16.6875C16.9464 12.7031 17.1562 12.4933 17.1562 12.2344V11.2969H18.0938C18.3526 11.2969 18.5625 11.087 18.5625 10.8281V9.89062C18.5625 9.63173 18.3526 9.42188 18.0938 9.42188Z" stroke="#292929" stroke-miterlimit="10" stroke-linejoin="round"/>
        <circle cx="16.2188" cy="4.73438" r="0.46875" fill="#292929"/>
    </g>
    <defs>
        <clipPath id="clip0_1827_26725">
            <rect width="24" height="24" fill="white"/>
        </clipPath>
    </defs>
</svg>