<svg width="48" height="48" viewBox="0 0 48 48" fill="none" xmlns="http://www.w3.org/2000/svg">
    <path d="M20.2206 22.3008H14.9206C13.6606 22.3008 12.6406 23.3207 12.6406 24.5807V34.8207H20.2206V22.3008V22.3008Z" stroke="#014FE6" stroke-width="2" stroke-miterlimit="10" stroke-linecap="round" stroke-linejoin="round"/>
    <path d="M25.5231 13.2002H22.4831C21.2231 13.2002 20.2031 14.2202 20.2031 15.4802V34.8003H27.7831V15.4802C27.7831 14.2202 26.7831 13.2002 25.5231 13.2002Z" stroke="#014FE6" stroke-width="2" stroke-miterlimit="10" stroke-linecap="round" stroke-linejoin="round"/>
    <path d="M33.0969 25.7002H27.7969V34.8003H35.3769V27.9802C35.3569 26.7202 34.3369 25.7002 33.0969 25.7002Z" stroke="#014FE6" stroke-width="2" stroke-miterlimit="10" stroke-linecap="round" stroke-linejoin="round"/>
    <path d="M18 44H30C40 44 44 40 44 30V18C44 8 40 4 30 4H18C8 4 4 8 4 18V30C4 40 8 44 18 44Z" stroke="#014FE6" stroke-width="2" stroke-linecap="round" stroke-linejoin="round"/>
</svg>