<svg width="42" height="42" viewBox="0 0 42 42" fill="none" xmlns="http://www.w3.org/2000/svg">
    <path d="M14 21.3501H26.25" stroke="#292929" stroke-width="2" stroke-miterlimit="10" stroke-linecap="round" stroke-linejoin="round"/>
    <path d="M14 28.3501H21.665" stroke="#292929" stroke-width="2" stroke-miterlimit="10" stroke-linecap="round" stroke-linejoin="round"/>
    <path d="M17.5 10.5H24.5C28 10.5 28 8.75 28 7C28 3.5 26.25 3.5 24.5 3.5H17.5C15.75 3.5 14 3.5 14 7C14 10.5 15.75 10.5 17.5 10.5Z" stroke="#292929" stroke-width="2" stroke-miterlimit="10" stroke-linecap="round" stroke-linejoin="round"/>
    <path d="M28 7.03516C33.8275 7.35016 36.75 9.50266 36.75 17.5002V28.0002C36.75 35.0002 35 38.5002 26.25 38.5002H15.75C7 38.5002 5.25 35.0002 5.25 28.0002V17.5002C5.25 9.52016 8.1725 7.35016 14 7.03516" stroke="#292929" stroke-width="2" stroke-miterlimit="10" stroke-linecap="round" stroke-linejoin="round"/>
</svg>