<svg width="38" height="38" viewBox="0 0 38 38" fill="none" xmlns="http://www.w3.org/2000/svg">
    <path d="M12.668 18.0504C12.668 19.2696 13.618 20.2671 14.7738 20.2671H17.1488C18.1621 20.2671 18.9855 19.3962 18.9855 18.3354C18.9855 17.1796 18.4788 16.7679 17.7346 16.4987L13.9346 15.1687C13.1746 14.8996 12.668 14.4879 12.668 13.3321C12.668 12.2712 13.4913 11.4004 14.5046 11.4004H16.8796C18.0513 11.4162 19.0013 12.3979 19.0013 13.6171" stroke="#014FE6" stroke-width="1.5" stroke-linecap="round" stroke-linejoin="round"/>
    <path d="M15.832 20.3457V21.5174" stroke="#014FE6" stroke-width="1.5" stroke-linecap="round" stroke-linejoin="round"/>
    <path d="M15.832 10.1494V11.3844" stroke="#014FE6" stroke-width="1.5" stroke-linecap="round" stroke-linejoin="round"/>
    <path d="M15.8188 28.4687C22.8057 28.4687 28.4696 22.8047 28.4696 15.8178C28.4696 8.83096 22.8057 3.16699 15.8188 3.16699C8.83194 3.16699 3.16797 8.83096 3.16797 15.8178C3.16797 22.8047 8.83194 28.4687 15.8188 28.4687Z" stroke="#014FE6" stroke-width="1.5" stroke-linecap="round" stroke-linejoin="round"/>
    <path d="M20.5508 31.4763C21.9758 33.4872 24.3033 34.8013 26.9633 34.8013C31.2858 34.8013 34.8008 31.2863 34.8008 26.9638C34.8008 24.3355 33.5024 22.008 31.5233 20.583" stroke="#014FE6" stroke-width="1.5" stroke-linecap="round" stroke-linejoin="round"/>
</svg>