<svg width="1160" height="494" viewBox="0 0 1160 494" fill="none" xmlns="http://www.w3.org/2000/svg">
    <path d="M-13.2559 432.779C212.62 346.128 289.7 250.57 317.635 178.077C348.808 97.1711 332.732 8.745 366.383 3.25367C387.931 -0.263848 414.444 32.7554 463.876 105.138C613.777 324.627 617.17 382.916 681.036 398.044C770.502 419.252 825.654 319.479 963.175 321.63C1064.18 323.213 1145.91 378.765 1201 428.145" stroke="#4A3AFF" stroke-width="6" stroke-miterlimit="10"/>
    <path d="M-13.2559 432.779C212.62 346.128 289.7 250.57 317.635 178.077C348.808 97.1711 332.732 8.745 366.383 3.25367C387.931 -0.263848 414.444 32.7554 463.876 105.138C613.777 324.627 617.17 382.916 681.036 398.044C770.502 419.252 825.654 319.479 963.175 321.63C1064.18 323.213 1145.91 378.765 1201 428.145" stroke="url(#paint0_linear_1565_44679)" stroke-width="6" stroke-miterlimit="10"/>
    <path d="M-18.6777 424.068C200.839 339.283 282.346 246.397 312.496 178.456C346.187 102.53 330.276 18.6719 363.577 14.7058C384.987 12.1541 411.002 44.6086 458.75 114.51C603.86 326.91 608.361 385.924 671.735 400.305C761.72 420.439 814.468 313.449 953.447 311.993C956.477 311.961 959.46 311.961 962.446 312.024C1061.05 314.175 1143.95 369.753 1200.22 418.83" stroke="#4A3AFF" stroke-width="6" stroke-miterlimit="10"/>
    <path d="M-18.6777 424.068C200.839 339.283 282.346 246.397 312.496 178.456C346.187 102.53 330.276 18.6719 363.577 14.7058C384.987 12.1541 411.002 44.6086 458.75 114.51C603.86 326.91 608.361 385.924 671.735 400.305C761.72 420.439 814.468 313.449 953.447 311.993C956.477 311.961 959.46 311.961 962.446 312.024C1061.05 314.175 1143.95 369.753 1200.22 418.83" stroke="url(#paint1_linear_1565_44679)" stroke-width="6" stroke-miterlimit="10"/>
    <path d="M-24.0859 415.357C189.054 332.446 274.924 242.392 307.367 178.842C343.527 108.006 327.841 28.6097 360.782 26.1636C382.06 24.5803 407.58 56.4728 453.632 123.891C593.92 329.19 599.502 389.119 662.455 402.567C752.878 421.883 803.329 307.367 943.739 302.353C946.82 302.242 949.89 302.132 952.961 302.145C1053.2 302.578 1140.4 359.304 1199.45 409.512" stroke="#4A3AFF" stroke-width="6" stroke-miterlimit="10"/>
    <path d="M-24.0859 415.357C189.054 332.446 274.924 242.392 307.367 178.842C343.527 108.006 327.841 28.6097 360.782 26.1636C382.06 24.5803 407.58 56.4728 453.632 123.891C593.92 329.19 599.502 389.119 662.455 402.567C752.878 421.883 803.329 307.367 943.739 302.353C946.82 302.242 949.89 302.132 952.961 302.145C1053.2 302.578 1140.4 359.304 1199.45 409.512" stroke="url(#paint2_linear_1565_44679)" stroke-width="6" stroke-miterlimit="10"/>
    <path d="M-29.5059 406.647C177.287 325.586 267.387 238.58 302.23 179.228C340.756 113.598 325.41 38.5564 357.974 37.6249C379.131 37.0179 404.127 68.3352 448.505 133.271C583.989 331.492 590.675 392.21 653.167 404.829C744.071 423.185 792.199 301.241 934.023 292.715C937.171 292.525 940.316 292.343 943.45 292.263C1045.31 289.714 1136.83 348.852 1198.65 400.19" stroke="#4A3AFF" stroke-width="6" stroke-miterlimit="10"/>
    <path d="M-29.5059 406.647C177.287 325.586 267.387 238.58 302.23 179.228C340.756 113.598 325.41 38.5564 357.974 37.6249C379.131 37.0179 404.127 68.3352 448.505 133.271C583.989 331.492 590.675 392.21 653.167 404.829C744.071 423.185 792.199 301.241 934.023 292.715C937.171 292.525 940.316 292.343 943.45 292.263C1045.31 289.714 1136.83 348.852 1198.65 400.19" stroke="url(#paint3_linear_1565_44679)" stroke-width="6" stroke-miterlimit="10"/>
    <path d="M-34.9219 397.936C165.511 318.748 259.701 234.969 297.093 179.613C337.832 119.303 322.998 48.5119 355.174 49.0845C376.214 49.4566 400.69 80.1986 443.385 142.651C574.061 333.782 581.855 395.292 643.882 407.087C735.295 424.472 781.087 295.068 924.311 283.064C927.526 282.8 930.745 282.536 933.974 282.373C1037.45 277.512 1133.29 338.394 1197.9 390.872" stroke="#4A3AFF" stroke-width="6" stroke-miterlimit="10"/>
    <path d="M-34.9219 397.936C165.511 318.748 259.701 234.969 297.093 179.613C337.832 119.303 322.998 48.5119 355.174 49.0845C376.214 49.4566 400.69 80.1986 443.385 142.651C574.061 333.782 581.855 395.292 643.882 407.087C735.295 424.472 781.087 295.068 924.311 283.064C927.526 282.8 930.745 282.536 933.974 282.373C1037.45 277.512 1133.29 338.394 1197.9 390.872" stroke="url(#paint4_linear_1565_44679)" stroke-width="6" stroke-miterlimit="10"/>
    <path d="M-40.3379 389.224C153.739 311.908 251.821 231.577 291.967 179.999C334.685 125.112 320.585 58.4748 352.381 60.541C373.309 61.9026 397.257 92.0588 438.268 152.031C564.144 336.071 573.049 398.362 634.604 409.348C726.518 425.748 769.984 288.852 914.606 273.431C917.892 273.08 921.178 272.724 924.491 272.497C1029.58 265.346 1129.76 327.949 1197.13 381.561" stroke="#4A3AFF" stroke-width="6" stroke-miterlimit="10"/>
    <path d="M-40.3379 389.224C153.739 311.908 251.821 231.577 291.967 179.999C334.685 125.112 320.585 58.4748 352.381 60.541C373.309 61.9026 397.257 92.0588 438.268 152.031C564.144 336.071 573.049 398.362 634.604 409.348C726.518 425.748 769.984 288.852 914.606 273.431C917.892 273.08 921.178 272.724 924.491 272.497C1029.58 265.346 1129.76 327.949 1197.13 381.561" stroke="url(#paint5_linear_1565_44679)" stroke-width="6" stroke-miterlimit="10"/>
    <path d="M-45.752 380.514C141.962 305.06 243.683 228.403 286.826 180.385C331.21 130.982 318.191 68.4528 349.573 72.002C370.397 74.3558 393.813 103.931 433.137 161.41C554.208 338.359 564.234 401.427 625.312 411.607C717.748 427.015 758.87 282.602 904.885 263.792C908.252 263.36 911.599 262.916 914.986 262.618C1021.68 253.192 1126.19 317.505 1196.34 372.244" stroke="#4A3AFF" stroke-width="6" stroke-miterlimit="10"/>
    <path d="M-45.752 380.514C141.962 305.06 243.683 228.403 286.826 180.385C331.21 130.982 318.191 68.4528 349.573 72.002C370.397 74.3558 393.813 103.931 433.137 161.41C554.208 338.359 564.234 401.427 625.312 411.607C717.748 427.015 758.87 282.602 904.885 263.792C908.252 263.36 911.599 262.916 914.986 262.618C1021.68 253.192 1126.19 317.505 1196.34 372.244" stroke="url(#paint6_linear_1565_44679)" stroke-width="6" stroke-miterlimit="10"/>
    <path d="M-51.168 371.804C130.186 298.215 225.248 217.698 281.692 180.771C315.879 130.879 315.795 78.4433 346.773 83.4596C367.492 86.8162 390.376 115.785 428.017 170.804C544.28 340.663 555.428 404.493 616.027 413.882C708.982 428.282 747.761 276.327 895.17 254.166C898.597 253.651 902.028 253.124 905.499 252.749C1013.81 241.072 1122.66 307.061 1195.58 362.94" stroke="#4A3AFF" stroke-width="6" stroke-miterlimit="10"/>
    <path d="M-51.168 371.804C130.186 298.215 225.248 217.698 281.692 180.771C315.879 130.879 315.795 78.4433 346.773 83.4596C367.492 86.8162 390.376 115.785 428.017 170.804C544.28 340.663 555.428 404.493 616.027 413.882C708.982 428.282 747.761 276.327 895.17 254.166C898.597 253.651 902.028 253.124 905.499 252.749C1013.81 241.072 1122.66 307.061 1195.58 362.94" stroke="url(#paint7_linear_1565_44679)" stroke-width="6" stroke-miterlimit="10"/>
    <path d="M-56.5859 363.093C118.411 291.37 216.042 212.998 276.557 181.156C311.175 135.695 313.397 88.447 343.971 94.92C364.589 99.2845 386.935 127.641 422.892 180.172C534.334 342.94 546.626 407.525 606.744 416.13C700.221 429.509 736.646 269.991 885.456 244.513C888.951 243.914 892.452 243.302 896.008 242.854C1005.93 228.944 1119.09 296.598 1194.81 353.609" stroke="#4A3AFF" stroke-width="6" stroke-miterlimit="10"/>
    <path d="M-56.5859 363.093C118.411 291.37 216.042 212.998 276.557 181.156C311.175 135.695 313.397 88.447 343.971 94.92C364.589 99.2845 386.935 127.641 422.892 180.172C534.334 342.94 546.626 407.525 606.744 416.13C700.221 429.509 736.646 269.991 885.456 244.513C888.951 243.914 892.452 243.302 896.008 242.854C1005.93 228.944 1119.09 296.598 1194.81 353.609" stroke="url(#paint8_linear_1565_44679)" stroke-width="6" stroke-miterlimit="10"/>
    <path d="M-62.002 354.383C106.635 284.526 206.835 208.304 271.421 181.541C306.469 140.508 311.001 98.4615 341.171 106.378C361.685 111.758 383.499 139.505 417.769 189.55C524.423 345.239 537.83 410.557 597.46 418.387C691.468 430.734 725.523 263.637 875.744 234.869C879.306 234.188 882.882 233.494 886.518 232.969C998.05 216.841 1115.54 286.143 1194.03 344.289" stroke="#4A3AFF" stroke-width="6" stroke-miterlimit="10"/>
    <path d="M-62.002 354.383C106.635 284.526 206.835 208.304 271.421 181.541C306.469 140.508 311.001 98.4615 341.171 106.378C361.685 111.758 383.499 139.505 417.769 189.55C524.423 345.239 537.83 410.557 597.46 418.387C691.468 430.734 725.523 263.637 875.744 234.869C879.306 234.188 882.882 233.494 886.518 232.969C998.05 216.841 1115.54 286.143 1194.03 344.289" stroke="url(#paint9_linear_1565_44679)" stroke-width="6" stroke-miterlimit="10"/>
    <path d="M-67.418 345.673C94.8626 277.682 197.628 203.608 266.284 181.93C301.764 145.327 308.598 108.492 338.364 117.839C358.774 124.246 380.059 151.373 412.646 198.924C514.492 347.515 529.034 413.577 588.172 420.644C682.712 431.94 714.39 257.252 866.028 225.225C869.661 224.457 873.307 223.686 877.021 223.082C990.176 204.75 1111.99 275.689 1193.26 334.967" stroke="#4A3AFF" stroke-width="6" stroke-miterlimit="10"/>
    <path d="M-67.418 345.673C94.8626 277.682 197.628 203.608 266.284 181.93C301.764 145.327 308.598 108.492 338.364 117.839C358.774 124.246 380.059 151.373 412.646 198.924C514.492 347.515 529.034 413.577 588.172 420.644C682.712 431.94 714.39 257.252 866.028 225.225C869.661 224.457 873.307 223.686 877.021 223.082C990.176 204.75 1111.99 275.689 1193.26 334.967" stroke="url(#paint10_linear_1565_44679)" stroke-width="6" stroke-miterlimit="10"/>
    <path d="M-72.8359 336.959C83.0779 270.838 188.429 198.91 261.152 182.325C297.063 150.153 306.193 118.538 335.559 129.309C355.857 136.751 376.617 163.244 407.518 208.323C504.559 349.823 520.235 416.608 578.889 422.92C673.968 433.156 703.249 250.871 856.314 215.603C860.018 214.751 863.721 213.898 867.529 213.228C982.307 192.704 1108.43 265.263 1192.48 325.675" stroke="#4A3AFF" stroke-width="6" stroke-miterlimit="10"/>
    <path d="M-72.8359 336.959C83.0779 270.838 188.429 198.91 261.152 182.325C297.063 150.153 306.193 118.538 335.559 129.309C355.857 136.751 376.617 163.244 407.518 208.323C504.559 349.823 520.235 416.608 578.889 422.92C673.968 433.156 703.249 250.871 856.314 215.603C860.018 214.751 863.721 213.898 867.529 213.228C982.307 192.704 1108.43 265.263 1192.48 325.675" stroke="url(#paint11_linear_1565_44679)" stroke-width="6" stroke-miterlimit="10"/>
    <path d="M-78.252 328.248C71.3054 263.993 179.212 194.213 256.016 182.7C292.357 154.958 303.774 128.575 332.762 140.756C352.943 149.237 373.181 175.097 402.398 217.693C494.649 352.103 511.449 419.603 569.601 425.171C665.219 434.325 692.089 244.426 846.603 205.953C850.37 205.013 854.161 204.085 858.05 203.327C974.457 180.634 1104.89 254.784 1191.72 316.342" stroke="#4A3AFF" stroke-width="6" stroke-miterlimit="10"/>
    <path d="M-78.252 328.248C71.3054 263.993 179.212 194.213 256.016 182.7C292.357 154.958 303.774 128.575 332.762 140.756C352.943 149.237 373.181 175.097 402.398 217.693C494.649 352.103 511.449 419.603 569.601 425.171C665.219 434.325 692.089 244.426 846.603 205.953C850.37 205.013 854.161 204.085 858.05 203.327C974.457 180.634 1104.89 254.784 1191.72 316.342" stroke="url(#paint12_linear_1565_44679)" stroke-width="6" stroke-miterlimit="10"/>
    <path d="M-83.6602 319.537C59.5272 257.148 170.003 189.518 250.88 183.09C287.649 159.779 301.345 138.629 329.96 152.216C350.019 161.742 369.742 186.959 397.276 227.071C484.709 354.393 502.657 422.606 560.314 427.432C656.477 435.491 680.917 237.967 836.885 196.313C840.723 195.287 844.588 194.279 848.547 193.445C966.588 168.577 1101.33 244.342 1190.95 307.024" stroke="#4A3AFF" stroke-width="6" stroke-miterlimit="10"/>
    <path d="M-83.6602 319.537C59.5272 257.148 170.003 189.518 250.88 183.09C287.649 159.779 301.345 138.629 329.96 152.216C350.019 161.742 369.742 186.959 397.276 227.071C484.709 354.393 502.657 422.606 560.314 427.432C656.477 435.491 680.917 237.967 836.885 196.313C840.723 195.287 844.588 194.279 848.547 193.445C966.588 168.577 1101.33 244.342 1190.95 307.024" stroke="url(#paint13_linear_1565_44679)" stroke-width="6" stroke-miterlimit="10"/>
    <path d="M-89.084 310.827C47.7502 250.303 160.798 184.822 245.746 183.473C282.946 164.593 298.911 148.686 327.159 163.682C347.087 174.256 366.305 198.826 392.138 236.458C474.767 356.689 493.853 425.591 551.015 429.697C647.72 436.645 669.719 231.523 827.158 186.677C831.064 185.566 835.003 184.481 839.04 183.568C958.727 156.542 1097.77 233.898 1190.15 297.712" stroke="#4A3AFF" stroke-width="6" stroke-miterlimit="10"/>
    <path d="M-89.084 310.827C47.7502 250.303 160.798 184.822 245.746 183.473C282.946 164.593 298.911 148.686 327.159 163.682C347.087 174.256 366.305 198.826 392.138 236.458C474.767 356.689 493.853 425.591 551.015 429.697C647.72 436.645 669.719 231.523 827.158 186.677C831.064 185.566 835.003 184.481 839.04 183.568C958.727 156.542 1097.77 233.898 1190.15 297.712" stroke="url(#paint14_linear_1565_44679)" stroke-width="6" stroke-miterlimit="10"/>
    <path d="M-94.5 302.116C35.9742 243.458 151.591 180.124 240.609 183.858C278.244 169.408 296.465 158.747 324.359 175.134C344.149 186.761 362.865 210.684 387.032 245.833C464.853 358.971 485.077 428.562 541.748 431.953C638.995 437.771 658.536 225.029 817.459 177.045C821.432 175.847 825.446 174.686 829.58 173.696C950.897 144.506 1094.23 223.44 1189.39 288.378" stroke="#4A3AFF" stroke-width="6" stroke-miterlimit="10"/>
    <path d="M-94.5 302.116C35.9742 243.458 151.591 180.124 240.609 183.858C278.244 169.408 296.465 158.747 324.359 175.134C344.149 186.761 362.865 210.684 387.032 245.833C464.853 358.971 485.077 428.562 541.748 431.953C638.995 437.771 658.536 225.029 817.459 177.045C821.432 175.847 825.446 174.686 829.58 173.696C950.897 144.506 1094.23 223.44 1189.39 288.378" stroke="url(#paint15_linear_1565_44679)" stroke-width="6" stroke-miterlimit="10"/>
    <path d="M-99.918 293.405C24.1997 236.615 142.382 175.438 235.474 184.243C273.519 174.216 294.006 168.814 321.557 186.594C341.199 199.274 359.427 222.545 381.907 255.203C454.923 361.251 476.286 431.52 532.461 434.201C630.25 438.871 647.32 218.521 807.745 167.381C811.786 166.094 815.873 164.859 820.071 163.79C943.058 132.483 1090.69 212.99 1188.61 279.071" stroke="#4A3AFF" stroke-width="6" stroke-miterlimit="10"/>
    <path d="M-99.918 293.405C24.1997 236.615 142.382 175.438 235.474 184.243C273.519 174.216 294.006 168.814 321.557 186.594C341.199 199.274 359.427 222.545 381.907 255.203C454.923 361.251 476.286 431.52 532.461 434.201C630.25 438.871 647.32 218.521 807.745 167.381C811.786 166.094 815.873 164.859 820.071 163.79C943.058 132.483 1090.69 212.99 1188.61 279.071" stroke="url(#paint16_linear_1565_44679)" stroke-width="6" stroke-miterlimit="10"/>
    <path d="M-105.334 284.684C12.4238 229.76 133.175 170.723 230.338 184.621C268.83 179.03 291.54 178.869 318.75 198.042C338.244 211.764 355.987 234.397 376.781 264.582C444.992 363.537 467.493 434.478 523.173 436.463C621.508 439.978 636.093 212.022 798.033 157.758C802.137 156.381 806.302 155.072 810.578 153.924C935.231 120.472 1087.12 202.544 1187.84 269.767" stroke="#4A3AFF" stroke-width="6" stroke-miterlimit="10"/>
    <path d="M-105.334 284.684C12.4238 229.76 133.175 170.723 230.338 184.621C268.83 179.03 291.54 178.869 318.75 198.042C338.244 211.764 355.987 234.397 376.781 264.582C444.992 363.537 467.493 434.478 523.173 436.463C621.508 439.978 636.093 212.022 798.033 157.758C802.137 156.381 806.302 155.072 810.578 153.924C935.231 120.472 1087.12 202.544 1187.84 269.767" stroke="url(#paint17_linear_1565_44679)" stroke-width="6" stroke-miterlimit="10"/>
    <path d="M-110.748 275.976C0.646414 222.936 122.69 199.168 225.206 185.016C263.568 179.72 289.068 188.946 315.952 209.512C335.288 224.29 352.553 246.271 371.663 273.973C435.067 365.843 458.702 437.438 513.891 438.734C612.76 441.054 624.851 205.499 788.32 148.11C792.488 146.648 796.737 145.263 801.087 144.036C927.406 108.457 1083.56 192.088 1187.07 260.436" stroke="#4A3AFF" stroke-width="6" stroke-miterlimit="10"/>
    <path d="M-110.748 275.976C0.646414 222.936 122.69 199.168 225.206 185.016C263.568 179.72 289.068 188.946 315.952 209.512C335.288 224.29 352.553 246.271 371.663 273.973C435.067 365.843 458.702 437.438 513.891 438.734C612.76 441.054 624.851 205.499 788.32 148.11C792.488 146.648 796.737 145.263 801.087 144.036C927.406 108.457 1083.56 192.088 1187.07 260.436" stroke="url(#paint18_linear_1565_44679)" stroke-width="6" stroke-miterlimit="10"/>
    <path d="M-116.164 267.268C-11.1194 216.075 112.443 168.767 220.073 185.397C258.899 191.397 286.585 199.005 313.152 220.968C332.323 236.801 349.113 258.127 366.54 283.349C425.143 368.128 449.906 440.373 504.606 440.988C604.008 442.107 613.593 198.963 778.604 138.466C782.843 136.914 787.166 135.463 791.597 134.151C919.684 96.6515 1080.02 181.637 1186.31 251.119" stroke="#4A3AFF" stroke-width="6" stroke-miterlimit="10"/>
    <path d="M-116.164 267.268C-11.1194 216.075 112.443 168.767 220.073 185.397C258.899 191.397 286.585 199.005 313.152 220.968C332.323 236.801 349.113 258.127 366.54 283.349C425.143 368.128 449.906 440.373 504.606 440.988C604.008 442.107 613.593 198.963 778.604 138.466C782.843 136.914 787.166 135.463 791.597 134.151C919.684 96.6515 1080.02 181.637 1186.31 251.119" stroke="url(#paint19_linear_1565_44679)" stroke-width="6" stroke-miterlimit="10"/>
    <path d="M-121.584 258.559C-22.9059 209.232 104.063 160.333 214.936 185.784C254.264 194.814 284.091 209.071 310.348 232.427C329.347 249.316 345.673 269.993 361.413 292.729C415.211 370.421 441.105 443.491 495.318 443.251C595.248 442.808 602.201 192.238 768.889 128.828C773.187 127.182 777.591 125.662 782.1 124.271C911.83 84.5544 1076.47 171.183 1185.52 241.798" stroke="url(#paint20_linear_1565_44679)" stroke-width="6" stroke-miterlimit="10"/>
    <path d="M-127 249.852C-34.6819 202.394 96.3445 151.953 209.799 186.176C380.834 237.775 395.631 446.728 486.037 445.514C589.095 444.131 591.202 172.296 772.61 114.392C903.976 72.462 1072.93 160.735 1184.75 232.487" stroke="#4A3AFF" stroke-width="6" stroke-miterlimit="10"/>
    <path d="M-127 249.852C-34.6819 202.394 96.3445 151.953 209.799 186.176C380.834 237.775 395.631 446.728 486.037 445.514C589.095 444.131 591.202 172.296 772.61 114.392C903.976 72.462 1072.93 160.735 1184.75 232.487" stroke="url(#paint21_linear_1565_44679)" stroke-width="6" stroke-miterlimit="10"/>
    <g filter="url(#filter0_f_1565_44679)">
        <ellipse cx="579.5" cy="305" rx="367.5" ry="138" fill="#00268D" fill-opacity="0.6"/>
    </g>
    <defs>
        <filter id="filter0_f_1565_44679" x="134.4" y="89.4" width="890.2" height="431.2" filterUnits="userSpaceOnUse" color-interpolation-filters="sRGB">
            <feFlood flood-opacity="0" result="BackgroundImageFix"/>
            <feBlend mode="normal" in="SourceGraphic" in2="BackgroundImageFix" result="shape"/>
            <feGaussianBlur stdDeviation="38.8" result="effect1_foregroundBlur_1565_44679"/>
        </filter>
        <linearGradient id="paint0_linear_1565_44679" x1="212.91" y1="361.7" x2="660.754" y2="-47.2744" gradientUnits="userSpaceOnUse">
            <stop offset="0.0989996" stop-color="#E40D78"/>
            <stop offset="0.554" stop-color="#D400F7"/>
            <stop offset="1" stop-color="#004DE3"/>
        </linearGradient>
        <linearGradient id="paint1_linear_1565_44679" x1="208.353" y1="356.343" x2="636.506" y2="-55.58" gradientUnits="userSpaceOnUse">
            <stop offset="0.0989996" stop-color="#E40D78"/>
            <stop offset="0.554" stop-color="#D400F7"/>
            <stop offset="1" stop-color="#004DE3"/>
        </linearGradient>
        <linearGradient id="paint2_linear_1565_44679" x1="203.808" y1="350.982" x2="611.041" y2="-62.7659" gradientUnits="userSpaceOnUse">
            <stop offset="0.0989996" stop-color="#E40D78"/>
            <stop offset="0.554" stop-color="#D400F7"/>
            <stop offset="1" stop-color="#004DE3"/>
        </linearGradient>
        <linearGradient id="paint3_linear_1565_44679" x1="199.25" y1="345.667" x2="584.421" y2="-68.5985" gradientUnits="userSpaceOnUse">
            <stop offset="0.0989996" stop-color="#E40D78"/>
            <stop offset="0.554" stop-color="#D400F7"/>
            <stop offset="1" stop-color="#004DE3"/>
        </linearGradient>
        <linearGradient id="paint4_linear_1565_44679" x1="194.702" y1="349.218" x2="569" y2="-65.536" gradientUnits="userSpaceOnUse">
            <stop offset="0.0989996" stop-color="#E40D78"/>
            <stop offset="0.554" stop-color="#D400F7"/>
            <stop offset="1" stop-color="#004DE3"/>
        </linearGradient>
        <linearGradient id="paint5_linear_1565_44679" x1="190.152" y1="352.789" x2="553.382" y2="-62.0558" gradientUnits="userSpaceOnUse">
            <stop offset="0.0989996" stop-color="#E40D78"/>
            <stop offset="0.554" stop-color="#D400F7"/>
            <stop offset="1" stop-color="#004DE3"/>
        </linearGradient>
        <linearGradient id="paint6_linear_1565_44679" x1="185.6" y1="356.377" x2="537.573" y2="-58.1432" gradientUnits="userSpaceOnUse">
            <stop offset="0.0989996" stop-color="#E40D78"/>
            <stop offset="0.554" stop-color="#D400F7"/>
            <stop offset="1" stop-color="#004DE3"/>
        </linearGradient>
        <linearGradient id="paint7_linear_1565_44679" x1="181.05" y1="359.982" x2="521.665" y2="-53.8085" gradientUnits="userSpaceOnUse">
            <stop offset="0.0989996" stop-color="#E40D78"/>
            <stop offset="0.554" stop-color="#D400F7"/>
            <stop offset="1" stop-color="#004DE3"/>
        </linearGradient>
        <linearGradient id="paint8_linear_1565_44679" x1="176.497" y1="363.572" x2="505.593" y2="-49.0492" gradientUnits="userSpaceOnUse">
            <stop offset="0.0989996" stop-color="#E40D78"/>
            <stop offset="0.554" stop-color="#D400F7"/>
            <stop offset="1" stop-color="#004DE3"/>
        </linearGradient>
        <linearGradient id="paint9_linear_1565_44679" x1="171.946" y1="367.169" x2="489.469" y2="-43.8557" gradientUnits="userSpaceOnUse">
            <stop offset="0.0989996" stop-color="#E40D78"/>
            <stop offset="0.554" stop-color="#D400F7"/>
            <stop offset="1" stop-color="#004DE3"/>
        </linearGradient>
        <linearGradient id="paint10_linear_1565_44679" x1="167.394" y1="370.759" x2="473.33" y2="-38.2408" gradientUnits="userSpaceOnUse">
            <stop offset="0.0989996" stop-color="#E40D78"/>
            <stop offset="0.554" stop-color="#D400F7"/>
            <stop offset="1" stop-color="#004DE3"/>
        </linearGradient>
        <linearGradient id="paint11_linear_1565_44679" x1="162.841" y1="374.353" x2="457.27" y2="-32.2207" gradientUnits="userSpaceOnUse">
            <stop offset="0.0989996" stop-color="#E40D78"/>
            <stop offset="0.554" stop-color="#D400F7"/>
            <stop offset="1" stop-color="#004DE3"/>
        </linearGradient>
        <linearGradient id="paint12_linear_1565_44679" x1="158.291" y1="377.896" x2="441.373" y2="-25.8793" gradientUnits="userSpaceOnUse">
            <stop offset="0.0989996" stop-color="#E40D78"/>
            <stop offset="0.554" stop-color="#D400F7"/>
            <stop offset="1" stop-color="#004DE3"/>
        </linearGradient>
        <linearGradient id="paint13_linear_1565_44679" x1="153.748" y1="381.41" x2="425.788" y2="-19.2561" gradientUnits="userSpaceOnUse">
            <stop offset="0.0989996" stop-color="#E40D78"/>
            <stop offset="0.554" stop-color="#D400F7"/>
            <stop offset="1" stop-color="#004DE3"/>
        </linearGradient>
        <linearGradient id="paint14_linear_1565_44679" x1="149.185" y1="384.864" x2="410.703" y2="-12.4937" gradientUnits="userSpaceOnUse">
            <stop offset="0.0989996" stop-color="#E40D78"/>
            <stop offset="0.554" stop-color="#D400F7"/>
            <stop offset="1" stop-color="#004DE3"/>
        </linearGradient>
        <linearGradient id="paint15_linear_1565_44679" x1="144.636" y1="388.21" x2="396.458" y2="-5.8383" gradientUnits="userSpaceOnUse">
            <stop offset="0.0989996" stop-color="#E40D78"/>
            <stop offset="0.554" stop-color="#D400F7"/>
            <stop offset="1" stop-color="#004DE3"/>
        </linearGradient>
        <linearGradient id="paint16_linear_1565_44679" x1="140.083" y1="388.388" x2="407.984" y2="-13.7587" gradientUnits="userSpaceOnUse">
            <stop offset="0.0989996" stop-color="#E40D78"/>
            <stop offset="0.554" stop-color="#D400F7"/>
            <stop offset="1" stop-color="#004DE3"/>
        </linearGradient>
        <linearGradient id="paint17_linear_1565_44679" x1="135.531" y1="388.493" x2="420.157" y2="-21.3259" gradientUnits="userSpaceOnUse">
            <stop offset="0.0989996" stop-color="#E40D78"/>
            <stop offset="0.554" stop-color="#D400F7"/>
            <stop offset="1" stop-color="#004DE3"/>
        </linearGradient>
        <linearGradient id="paint18_linear_1565_44679" x1="130.982" y1="388.608" x2="432.209" y2="-28.1564" gradientUnits="userSpaceOnUse">
            <stop offset="0.0989996" stop-color="#E40D78"/>
            <stop offset="0.554" stop-color="#D400F7"/>
            <stop offset="1" stop-color="#004DE3"/>
        </linearGradient>
        <linearGradient id="paint19_linear_1565_44679" x1="126.433" y1="388.727" x2="443.951" y2="-34.2541" gradientUnits="userSpaceOnUse">
            <stop offset="0.0989996" stop-color="#E40D78"/>
            <stop offset="0.554" stop-color="#D400F7"/>
            <stop offset="1" stop-color="#004DE3"/>
        </linearGradient>
        <linearGradient id="paint20_linear_1565_44679" x1="121.876" y1="388.843" x2="455.61" y2="-39.7409" gradientUnits="userSpaceOnUse">
            <stop offset="0.0989996" stop-color="#E40D78"/>
            <stop offset="0.554" stop-color="#D400F7"/>
            <stop offset="1" stop-color="#014FE6"/>
        </linearGradient>
        <linearGradient id="paint21_linear_1565_44679" x1="117.324" y1="388.963" x2="467.025" y2="-44.611" gradientUnits="userSpaceOnUse">
            <stop offset="0.0989996" stop-color="#E40D78"/>
            <stop offset="0.554" stop-color="#D400F7"/>
            <stop offset="1" stop-color="#004DE3"/>
        </linearGradient>
    </defs>
</svg>
