<svg width="32" height="32" viewBox="0 0 32 32" fill="none" xmlns="http://www.w3.org/2000/svg">
    <path d="M26.6667 18.6668C28.1394 18.6668 29.3333 17.4729 29.3333 16.0002C29.3333 14.5274 28.1394 13.3335 26.6667 13.3335C25.1939 13.3335 24 14.5274 24 16.0002C24 17.4729 25.1939 18.6668 26.6667 18.6668Z" stroke="#014FE6" stroke-width="1.5" stroke-linecap="round" stroke-linejoin="round"/>
    <path d="M26.6667 7.99984C28.1394 7.99984 29.3333 6.80593 29.3333 5.33317C29.3333 3.86041 28.1394 2.6665 26.6667 2.6665C25.1939 2.6665 24 3.86041 24 5.33317C24 6.80593 25.1939 7.99984 26.6667 7.99984Z" stroke="#014FE6" stroke-width="1.5" stroke-linecap="round" stroke-linejoin="round"/>
    <path d="M26.6667 29.3333C28.1394 29.3333 29.3333 28.1394 29.3333 26.6667C29.3333 25.1939 28.1394 24 26.6667 24C25.1939 24 24 25.1939 24 26.6667C24 28.1394 25.1939 29.3333 26.6667 29.3333Z" stroke="#014FE6" stroke-width="1.5" stroke-linecap="round" stroke-linejoin="round"/>
    <path d="M5.33268 18.6663C6.80544 18.6663 7.99935 17.4724 7.99935 15.9997C7.99935 14.5269 6.80544 13.333 5.33268 13.333C3.85992 13.333 2.66602 14.5269 2.66602 15.9997C2.66602 17.4724 3.85992 18.6663 5.33268 18.6663Z" stroke="#014FE6" stroke-width="1.5" stroke-linecap="round" stroke-linejoin="round"/>
    <path d="M8 16H24" stroke="#014FE6" stroke-width="1.5" stroke-linecap="round" stroke-linejoin="round"/>
    <path d="M23.9993 5.33301H18.666C15.9993 5.33301 14.666 6.66634 14.666 9.33301V22.6663C14.666 25.333 15.9993 26.6663 18.666 26.6663H23.9993" stroke="#014FE6" stroke-width="1.5" stroke-linecap="round" stroke-linejoin="round"/>
</svg>