<svg width="38" height="38" viewBox="0 0 38 38" fill="none" xmlns="http://www.w3.org/2000/svg">
    <path d="M19.0004 22.167H20.5838C22.3254 22.167 23.7504 20.742 23.7504 19.0003V3.16699H9.50043C7.12543 3.16699 5.05128 4.48114 3.97461 6.41281" stroke="#292929" stroke-width="1.5" stroke-linecap="round" stroke-linejoin="round"/>
    <path d="M3.16797 26.917C3.16797 29.5453 5.28964 31.667 7.91797 31.667H9.5013C9.5013 29.9253 10.9263 28.5003 12.668 28.5003C14.4096 28.5003 15.8346 29.9253 15.8346 31.667H22.168C22.168 29.9253 23.593 28.5003 25.3346 28.5003C27.0763 28.5003 28.5013 29.9253 28.5013 31.667H30.0846C32.713 31.667 34.8346 29.5453 34.8346 26.917V22.167H30.0846C29.2138 22.167 28.5013 21.4545 28.5013 20.5837V15.8337C28.5013 14.9628 29.2138 14.2503 30.0846 14.2503H32.1271L29.4197 9.51617C28.8497 8.53451 27.8047 7.91699 26.6647 7.91699H23.7513V19.0003C23.7513 20.742 22.3263 22.167 20.5846 22.167H19.0013" stroke="#292929" stroke-width="1.5" stroke-linecap="round" stroke-linejoin="round"/>
    <path d="M12.6667 34.8333C14.4156 34.8333 15.8333 33.4156 15.8333 31.6667C15.8333 29.9178 14.4156 28.5 12.6667 28.5C10.9178 28.5 9.5 29.9178 9.5 31.6667C9.5 33.4156 10.9178 34.8333 12.6667 34.8333Z" stroke="#292929" stroke-width="1.5" stroke-linecap="round" stroke-linejoin="round"/>
    <path d="M25.3346 34.8333C27.0835 34.8333 28.5013 33.4156 28.5013 31.6667C28.5013 29.9178 27.0835 28.5 25.3346 28.5C23.5857 28.5 22.168 29.9178 22.168 31.6667C22.168 33.4156 23.5857 34.8333 25.3346 34.8333Z" stroke="#292929" stroke-width="1.5" stroke-linecap="round" stroke-linejoin="round"/>
    <path d="M34.8333 19V22.1667H30.0833C29.2125 22.1667 28.5 21.4542 28.5 20.5833V15.8333C28.5 14.9625 29.2125 14.25 30.0833 14.25H32.1258L34.8333 19Z" stroke="#292929" stroke-width="1.5" stroke-linecap="round" stroke-linejoin="round"/>
    <path d="M3.16797 12.667H12.668" stroke="#292929" stroke-width="1.5" stroke-linecap="round" stroke-linejoin="round"/>
    <path d="M3.16797 17.417H9.5013" stroke="#292929" stroke-width="1.5" stroke-linecap="round" stroke-linejoin="round"/>
    <path d="M3.16797 22.167H6.33464" stroke="#292929" stroke-width="1.5" stroke-linecap="round" stroke-linejoin="round"/>
</svg>