<svg width="41" height="41" viewBox="0 0 41 41" fill="none" xmlns="http://www.w3.org/2000/svg">
    <path d="M37.1168 31.0497C37.1168 31.6497 36.9835 32.2663 36.7002 32.8663C36.4168 33.4663 36.0502 34.033 35.5668 34.5663C34.7502 35.4663 33.8502 36.1163 32.8335 36.533C31.8335 36.9497 30.7502 37.1663 29.5835 37.1663C27.8835 37.1663 26.0668 36.7663 24.1502 35.9497C22.2335 35.133 20.3168 34.033 18.4168 32.6497C16.5002 31.2497 14.6835 29.6997 12.9502 27.983C11.2335 26.2497 9.6835 24.433 8.30016 22.533C6.9335 20.633 5.8335 18.733 5.0335 16.8497C4.2335 14.9497 3.8335 13.133 3.8335 11.3997C3.8335 10.2663 4.0335 9.18301 4.4335 8.18301C4.8335 7.16634 5.46683 6.23301 6.35016 5.39967C7.41683 4.34967 8.5835 3.83301 9.81683 3.83301C10.2835 3.83301 10.7502 3.93301 11.1668 4.13301C11.6002 4.33301 11.9835 4.63301 12.2835 5.06634L16.1502 10.5163C16.4502 10.933 16.6668 11.3163 16.8168 11.683C16.9668 12.033 17.0502 12.383 17.0502 12.6997C17.0502 13.0997 16.9335 13.4997 16.7002 13.883C16.4835 14.2663 16.1668 14.6663 15.7668 15.0663L14.5002 16.383C14.3168 16.5663 14.2335 16.783 14.2335 17.0497C14.2335 17.183 14.2502 17.2997 14.2835 17.433C14.3335 17.5663 14.3835 17.6663 14.4168 17.7663C14.7168 18.3163 15.2335 19.033 15.9668 19.8997C16.7168 20.7663 17.5168 21.6497 18.3835 22.533C19.2835 23.4163 20.1502 24.233 21.0335 24.983C21.9002 25.7163 22.6168 26.2163 23.1835 26.5163C23.2668 26.5497 23.3668 26.5997 23.4835 26.6497C23.6168 26.6997 23.7502 26.7163 23.9002 26.7163C24.1835 26.7163 24.4002 26.6163 24.5835 26.433L25.8502 25.183C26.2668 24.7663 26.6668 24.4497 27.0502 24.2497C27.4335 24.0163 27.8168 23.8997 28.2335 23.8997C28.5502 23.8997 28.8835 23.9663 29.2502 24.1163C29.6168 24.2663 30.0002 24.483 30.4168 24.7663L35.9335 28.683C36.3668 28.983 36.6668 29.333 36.8502 29.7497C37.0168 30.1663 37.1168 30.583 37.1168 31.0497Z" fill="#014FE6"/>
</svg>