<svg width="25" height="24" viewBox="0 0 25 24" fill="none" xmlns="http://www.w3.org/2000/svg">
    <path fill-rule="evenodd" clip-rule="evenodd" d="M19.5859 4.90685C18.6634 3.98268 17.5658 3.24988 16.3567 2.75091C15.1476 2.25194 13.8511 1.99672 12.5421 2.00003C7.05351 2.00003 2.58541 6.44582 2.58319 11.9106C2.58319 13.6571 3.04132 15.3617 3.91209 16.8653L2.5 22L7.77897 20.6211C9.23919 21.4122 10.8751 21.8271 12.5377 21.8278H12.5421C18.0296 21.8278 22.4977 17.382 22.5 11.9172C22.5037 10.615 22.2481 9.32503 21.748 8.12175C21.2478 6.91847 20.513 5.82578 19.5859 4.90685ZM12.5421 20.1552H12.5388C11.0563 20.1554 9.60108 19.7584 8.32583 19.006L8.02412 18.8271L4.89156 19.6452L5.72684 16.6059L5.5305 16.2946C4.70165 14.9813 4.26287 13.4615 4.26483 11.9106C4.26705 7.36876 7.97974 3.67369 12.5455 3.67369C13.6328 3.67128 14.7098 3.88354 15.7142 4.29816C16.7186 4.71279 17.6304 5.32156 18.3968 6.08923C19.1673 6.85324 19.778 7.76166 20.1937 8.762C20.6093 9.76233 20.8216 10.8347 20.8183 11.9172C20.8161 16.4591 17.1034 20.1552 12.5421 20.1552ZM17.0823 13.985C16.8327 13.8602 15.6103 13.2619 15.3818 13.1791C15.1544 13.0963 14.9892 13.0554 14.8228 13.3027C14.6564 13.55 14.1794 14.1075 14.0341 14.2731C13.8888 14.4387 13.7435 14.4586 13.495 14.335C13.2465 14.2113 12.4445 13.9497 11.4939 13.1062C10.754 12.4493 10.2548 11.639 10.1095 11.3906C9.96421 11.1422 10.094 11.0086 10.2193 10.885C10.3314 10.7746 10.4678 10.5957 10.5921 10.4511C10.7163 10.3065 10.7573 10.2038 10.8405 10.0382C10.9237 9.87262 10.8827 9.72799 10.8195 9.60435C10.7573 9.4796 10.2593 8.26079 10.0518 7.76509C9.85107 7.28485 9.64585 7.34889 9.49278 7.34226C9.33424 7.33581 9.17557 7.33286 9.0169 7.33343C8.89073 7.33663 8.76658 7.36574 8.65225 7.41893C8.53791 7.47213 8.43584 7.54826 8.35246 7.64255C8.12395 7.89095 7.48169 8.48931 7.48169 9.70812C7.48169 10.9269 8.37353 12.1049 8.49777 12.2705C8.62201 12.4361 10.2526 14.9366 12.7485 16.0097C13.343 16.2647 13.8067 16.4171 14.1672 16.5319C14.7629 16.7207 15.3053 16.6931 15.7346 16.6302C16.2127 16.5595 17.2066 16.0318 17.414 15.4533C17.6214 14.8748 17.6214 14.3791 17.5593 14.2753C17.4972 14.1716 17.3297 14.1086 17.0823 13.985Z" fill="#17A600"/>
</svg>