<svg width="212" height="221" viewBox="0 0 212 221" fill="none" xmlns="http://www.w3.org/2000/svg">
    <path d="M202.042 154.981C204.334 144.112 205.352 132.843 206.562 121.907C209.045 98.3017 209.554 72.7628 201.023 50.3579C185.298 9.14889 133.157 -11.1889 94.7679 6.2816C64.8459 19.8846 36.0061 56.1592 60.1984 89.0997C67.4561 98.9686 81.1439 105.703 83.5631 118.84C86.1097 132.843 73.1222 140.444 66.1828 150.046C55.9329 164.183 63.127 182.053 72.5492 194.323C90.1205 217.194 118.069 225.463 144.999 218.728C162.888 214.26 179.314 202.791 189.755 186.921C196.121 177.186 199.75 166.317 202.042 154.981Z" fill="#CCDCFA"/>
    <path opacity="0.52" d="M157.54 134.509C164.734 112.304 167.217 86.7655 155.693 66.9612C155.693 66.8945 155.63 66.8945 155.63 66.8278C143.661 46.2233 116.731 36.0211 94.576 40.1553C86.8727 41.6223 79.3603 45.4898 74.7128 52.0913C64.0173 67.2946 74.1399 90.433 60.3248 103.569C49.2472 114.105 33.4586 110.971 20.9167 117.706C9.07524 124.04 1.18092 137.577 0.162295 151.38C-3.40289 201.657 52.5578 217.327 90.4378 207.925C117.622 201.191 138.568 178.186 150.473 152.58C153.02 146.979 155.439 140.911 157.54 134.509Z" fill="#CCDCFA"/>
    <path d="M245.269 173.052C236.292 162.649 219.994 166.05 208.471 168.384C203.696 169.384 203.824 176.319 208.599 177.186C214.519 178.319 220.758 179.92 226.615 181.987C231.072 183.587 235.91 186.255 240.685 184.921C245.333 183.654 249.152 177.586 245.269 173.052Z" fill="#CCDCFA"/>
    <path d="M214.074 183.454C211.464 180.92 207.899 179.987 204.525 179.187C202.296 178.653 200.832 182.387 202.806 183.588C205.607 185.321 208.026 187.655 210.891 189.255C212.292 190.056 214.202 189.122 214.902 187.788C215.729 186.255 215.284 184.654 214.074 183.454Z" fill="#CCDCFA"/>
    <path d="M32.5035 92.5001C37.5667 92.5001 41.6712 88.2011 41.6712 82.898C41.6712 77.5949 37.5667 73.2959 32.5035 73.2959C27.4404 73.2959 23.3359 77.5949 23.3359 82.898C23.3359 88.2011 27.4404 92.5001 32.5035 92.5001Z" stroke="#CCDCFA" stroke-width="6.3045" stroke-miterlimit="10"/>
    <path d="M12.8306 67.2281C15.6786 67.2281 17.9874 64.8099 17.9874 61.827C17.9874 58.844 15.6786 56.4258 12.8306 56.4258C9.98262 56.4258 7.67383 58.844 7.67383 61.827C7.67383 64.8099 9.98262 67.2281 12.8306 67.2281Z" stroke="#CCDCFA" stroke-width="3.5463" stroke-miterlimit="10"/>
    <path d="M36.7063 50.4912L32.3771 61.4936" stroke="#CCDCFA" stroke-width="3.2226" stroke-miterlimit="10" stroke-linecap="round" stroke-linejoin="round"/>
    <path d="M29.3204 53.7588L39.825 58.2264" stroke="#CCDCFA" stroke-width="3.2226" stroke-miterlimit="10" stroke-linecap="round" stroke-linejoin="round"/>
</svg>