<svg width="214" height="221" viewBox="0 0 214 221" fill="none" xmlns="http://www.w3.org/2000/svg">
    <path d="M63.9146 145.637C70.9841 137.783 81.6685 131.437 87.8235 123.943C93.2365 117.304 96.5459 109.559 99.9319 101.933C100.848 99.843 101.698 97.7601 102.548 95.6772C110.186 76.8044 117.651 56.5422 134.158 43.6378C148.828 32.2244 169.344 28.5983 186.766 33.7811C204.188 38.9639 218.078 52.4934 224.047 68.9141C228.743 81.8931 228.543 96.8411 222.673 109.811C216.741 122.852 204.987 133.675 190.915 137.974C174.543 142.984 155.313 139.674 141.766 149.934C132.993 156.638 129.73 166.747 123.095 175C119.104 180.004 113.988 184.368 107.906 186.665C94.56 191.649 74.775 187.249 64.6245 178.609C60.1625 174.827 57.3084 169.196 56.9274 163.346C56.3254 156.369 59.3903 150.702 63.9146 145.637Z" fill="#CCDCFA"/>
    <path opacity="0.56" d="M47.6479 29.2696C57.4359 25.969 65.4892 38.5976 73.2328 43.0463C81.5339 47.7821 88.9678 50.0782 96.0919 50.15C110.216 50.2217 120.066 37.306 128.243 25.6102C137.35 12.6228 147.2 0.855148 162.811 0.424622C166.218 0.352875 170.988 1.07042 174.085 5.08862C179.537 12.1205 177.369 21.9508 175.696 30.0589C170.616 55.2445 166.094 94.5655 192.732 105.759C196.821 107.481 201.033 109.275 203.635 113.15C216.396 132.308 199.608 146.372 184.926 152.471C170.245 158.57 153.766 162.301 140.199 172.275C125.765 182.894 119.447 204.923 102.658 211.739C97.8264 213.677 93.1803 213.174 89.897 210.376C85.7464 206.86 83.7641 200.618 82.649 196.312C77.6931 177.226 91.1979 158.355 85.2508 139.412C81.41 127.142 71.4363 118.747 62.2059 112.073C46.9046 101.095 35.0104 89.1122 34.7007 66.5098C34.5768 55.3162 36.9928 44.2662 41.6389 35.297C43.1257 32.4268 44.7363 30.5612 46.6568 29.7002C46.9665 29.5567 47.3382 29.4131 47.6479 29.2696Z" fill="#CCDCFA"/>
    <path d="M206.582 162.281C212.162 169.503 222.354 168.126 229.426 165.263C240.094 160.988 254.946 150.804 249.273 135.086C248.564 133.158 247.583 131.295 246.402 129.741C243.275 125.506 238.651 123.036 233.942 122.322C229.924 121.673 225.411 122.059 221.743 124.341C219.651 125.625 218.031 127.648 217.407 130.352C217.103 131.669 217.007 133.199 217.062 134.627C217.166 135.847 217.951 137.724 217.125 138.805C215.747 140.607 212.994 139.756 211.166 140.453C208.704 141.399 206.361 143.497 204.987 146.117C202.256 151.287 203.052 157.846 206.582 162.281Z" fill="#CCDCFA"/>
    <path d="M40.0892 200.546C40.399 200.976 40.7087 201.335 41.0184 201.694C41.576 202.268 42.1335 202.842 42.4433 203.631C43.0008 205.138 42.3194 206.788 42.5672 208.367C42.815 210.089 43.6822 211.811 44.7354 213.103C49.8771 219.058 58.4261 216.332 64.0014 212.744C68.3998 209.946 70.8158 205.353 69.8866 199.541C69.0812 194.662 66.2936 189.783 62.5147 187.343C62.3288 187.2 62.143 187.128 61.9571 186.984C60.904 186.339 59.7889 185.765 58.9216 184.76C57.9305 183.54 57.1871 181.89 56.072 180.742C55.1428 179.737 53.8419 179.02 52.6648 178.661C49.6913 177.8 46.5938 178.948 43.992 180.455C40.5848 182.392 37.983 186.123 37.4254 190.5C36.9918 194.088 38.1069 197.819 40.0892 200.546Z" fill="#CCDCFA"/>
    <path d="M28.1332 211.883C28.1952 212.099 28.3191 212.242 28.443 212.386C28.6288 212.745 28.8766 213.103 29.1244 213.39C30.1156 214.61 31.6024 215.328 33.0272 215.399C33.0272 215.399 33.0272 215.399 33.0891 215.399C33.1511 215.399 33.1511 215.399 33.213 215.399H33.275C33.7706 215.399 34.3281 215.328 34.7618 215.256C35.8149 214.969 36.868 214.323 37.6114 213.462C38.9743 211.812 39.5938 209.516 39.1601 207.291C39.0362 206.502 38.7265 205.784 38.3548 205.139C38.3548 205.139 38.3548 205.139 38.3548 205.067C37.1778 202.484 34.452 201.049 31.9741 201.766C29.4342 202.484 27.5138 205.067 27.4518 208.152C27.3279 209.444 27.5757 210.807 28.1332 211.883Z" fill="#CCDCFA"/>
    <path d="M41.6374 220.924C44.549 220.063 43.4339 214.825 40.5224 215.686C37.6108 216.475 38.7258 221.713 41.6374 220.924Z" fill="#CCDCFA"/>
    <path d="M22.6729 84.9998C17.883 84.9998 14 89.4973 14 95.0453C14 100.593 17.883 105.091 22.6729 105.091C27.4627 105.091 31.3457 100.593 31.3457 95.0453C31.3457 89.4973 27.4627 84.9998 22.6729 84.9998Z" fill="#CCDCFA" stroke="#CCDCFA" stroke-width="3" stroke-miterlimit="10"/>
    <path d="M10.6639 76.4843C8.61113 76.4843 6.94701 78.4118 6.94701 80.7895C6.94701 83.1672 8.61113 85.0947 10.6639 85.0947C12.7167 85.0947 14.3809 83.1672 14.3809 80.7895C14.3809 78.4118 12.7167 76.4843 10.6639 76.4843Z" fill="#CCDCFA" stroke="#CCDCFA" stroke-width="1.2857" stroke-miterlimit="10"/>
    <path d="M3.84933 86.8166C2.27551 86.8166 0.99968 88.2944 0.99968 90.1173C0.99968 91.9402 2.27551 93.418 3.84933 93.418C5.42314 93.418 6.69897 91.9402 6.69897 90.1173C6.69897 88.2944 5.42314 86.8166 3.84933 86.8166Z" fill="#CCDCFA" stroke="#CCDCFA" stroke-width="0.985" stroke-miterlimit="10"/>
</svg>