<svg width="139" height="139" viewBox="0 0 139 139" fill="none" xmlns="http://www.w3.org/2000/svg">
    <path d="M39.0009 92.5841C43.5951 87.6492 50.4598 83.5327 54.4691 78.8398C57.9956 74.6825 60.2042 69.9117 62.4596 65.2111C63.0704 63.9227 63.6389 62.6407 64.2073 61.3586C69.319 49.7438 74.3402 37.2931 84.9902 29.0579C94.4542 21.7724 107.514 19.0453 118.486 21.7272C129.459 24.4091 138.073 32.2318 141.624 42.0093C144.417 49.7382 144.077 58.7854 140.171 66.7834C136.224 74.8261 128.617 81.6791 119.634 84.6455C109.182 88.1019 97.0363 86.5995 88.3008 93.1582C82.6431 97.4415 80.4304 103.642 76.1059 108.806C73.5045 111.937 70.1984 114.71 66.3093 116.257C57.7765 119.62 45.2946 117.473 38.9817 112.51C36.2064 110.339 34.477 107.007 34.3187 103.478C34.0363 99.2733 36.0603 95.7656 39.0009 92.5841Z" fill="#CCDCFA"/>
    <path opacity="0.56" d="M30.1212 18.1795C36.2314 16.0996 41.2587 24.0575 46.0926 26.8608C51.2746 29.845 55.9152 31.2919 60.3625 31.3371C69.1796 31.3823 75.3284 23.2436 80.433 15.8735C86.1178 7.68958 92.2666 0.274292 102.012 0.00300598C104.139 -0.0422211 107.116 0.409943 109.05 2.94199C112.453 7.37307 111.1 13.5676 110.056 18.6769C106.884 34.5474 104.061 59.3253 120.69 66.3789C123.243 67.464 125.872 68.5944 127.496 71.036C135.463 83.1085 124.983 91.9707 115.818 95.8139C106.652 99.6572 96.3658 102.008 87.8967 108.293C78.8862 114.985 74.9417 128.866 64.4617 133.162C61.4453 134.382 58.5449 134.066 56.4953 132.303C53.9043 130.087 52.6668 126.153 51.9707 123.44C48.877 111.413 57.3074 99.5216 53.5949 87.5848C51.1973 79.853 44.9712 74.5628 39.2091 70.3578C29.6572 63.4399 22.2322 55.889 22.0389 41.6462C21.9615 34.5926 23.4697 27.6295 26.3701 21.9776C27.2982 20.169 28.3037 18.9934 29.5025 18.4508C29.6959 18.3604 29.9279 18.2699 30.1212 18.1795Z" fill="#CCDCFA"/>
    <path d="M129.335 101.995C132.819 106.546 139.181 105.678 143.596 103.874C150.256 101.181 159.527 94.7627 155.986 84.8583C155.543 83.6435 154.93 82.4695 154.193 81.4905C152.241 78.8217 149.355 77.265 146.415 76.8151C143.907 76.4062 141.089 76.6495 138.8 78.0872C137.494 78.8963 136.482 80.1715 136.093 81.8752C135.903 82.7052 135.843 83.6692 135.878 84.5692C135.942 85.3382 136.433 86.5209 135.917 87.2022C135.057 88.3377 133.338 87.801 132.197 88.2402C130.66 88.8366 129.197 90.1582 128.34 91.8092C126.635 95.0676 127.132 99.2007 129.335 101.995Z" fill="#CCDCFA"/>
    <path d="M25.4024 126.108C25.5958 126.38 25.7891 126.606 25.9825 126.832C26.3305 127.194 26.6786 127.555 26.8719 128.053C27.22 129.002 26.7946 130.042 26.9493 131.037C27.104 132.122 27.6454 133.207 28.3028 134.021C31.5125 137.774 36.8492 136.056 40.3297 133.795C43.0754 132.032 44.5836 129.138 44.0035 125.475C43.5007 122.401 41.7605 119.326 39.4016 117.789C39.2855 117.698 39.1695 117.653 39.0535 117.563C38.3961 117.156 37.7 116.794 37.1586 116.161C36.5398 115.392 36.0758 114.353 35.3797 113.629C34.7996 112.996 33.9875 112.544 33.2528 112.318C31.3965 111.775 29.4629 112.499 27.8387 113.448C25.7118 114.669 24.0876 117.02 23.7395 119.778C23.4688 122.039 24.1649 124.39 25.4024 126.108Z" fill="#CCDCFA"/>
    <path d="M17.939 133.252C17.9777 133.388 18.0551 133.478 18.1324 133.569C18.2484 133.795 18.4031 134.021 18.5578 134.202C19.1765 134.97 20.1047 135.423 20.9941 135.468C20.9941 135.468 20.9941 135.468 21.0328 135.468C21.0714 135.468 21.0714 135.468 21.1101 135.468H21.1488C21.4582 135.468 21.8062 135.423 22.0769 135.377C22.7343 135.196 23.3917 134.79 23.8558 134.247C24.7066 133.207 25.0933 131.76 24.8226 130.358C24.7452 129.861 24.5519 129.409 24.3199 129.002C24.3199 129.002 24.3199 129.002 24.3199 128.957C23.5851 127.329 21.8835 126.425 20.3367 126.877C18.7511 127.329 17.5523 128.957 17.5137 130.901C17.4363 131.715 17.591 132.574 17.939 133.252Z" fill="#CCDCFA"/>
    <path d="M26.3679 138.949C28.1855 138.407 27.4894 135.106 25.6718 135.648C23.8543 136.146 24.5504 139.446 26.3679 138.949Z" fill="#CCDCFA"/>
    <path d="M14.5296 53.2968C11.5395 53.2968 9.11554 56.1309 9.11554 59.6269C9.11554 63.1229 11.5395 65.957 14.5296 65.957C17.5197 65.957 19.9436 63.1229 19.9436 59.6269C19.9436 56.1309 17.5197 53.2968 14.5296 53.2968Z" fill="#CCDCFA" stroke="#CCDCFA" stroke-width="3" stroke-miterlimit="10"/>
    <path d="M7.03419 47.9306C5.75273 47.9306 4.71389 49.1452 4.71389 50.6435C4.71389 52.1418 5.75273 53.3564 7.03419 53.3564C8.31566 53.3564 9.35449 52.1418 9.35449 50.6435C9.35449 49.1452 8.31566 47.9306 7.03419 47.9306Z" fill="#CCDCFA" stroke="#CCDCFA" stroke-width="1.2857" stroke-miterlimit="10"/>
    <path d="M2.77848 54.4418C1.79602 54.4418 0.999577 55.373 0.999577 56.5217C0.999577 57.6704 1.79602 58.6016 2.77848 58.6016C3.76093 58.6016 4.55737 57.6704 4.55737 56.5217C4.55737 55.373 3.76093 54.4418 2.77848 54.4418Z" fill="#CCDCFA" stroke="#CCDCFA" stroke-width="0.985" stroke-miterlimit="10"/>
</svg>