<svg width="221" height="193" viewBox="0 0 221 193" fill="none" xmlns="http://www.w3.org/2000/svg">
    <path d="M163.594 66.4845C157.694 73.3211 148.67 78.7301 143.545 85.2663C139.039 91.0589 136.355 97.8846 133.603 104.602C132.859 106.444 132.171 108.281 131.484 110.117C125.308 126.76 119.308 144.646 105.426 155.765C93.0873 165.599 75.5956 168.357 60.5824 163.337C45.5693 158.316 33.4197 145.939 27.9948 131.167C23.7258 119.492 23.6101 106.176 28.3856 94.7526C33.2127 83.2676 43.0665 73.8925 55.0289 70.3859C68.9472 66.2983 85.472 69.692 96.8712 60.8607C104.252 55.0886 106.851 46.1544 112.372 38.9525C115.692 34.5849 119.987 30.8136 125.15 28.9071C136.478 24.7726 153.498 29.1501 162.353 37.0843C166.245 40.5573 168.797 45.6414 169.235 50.8632C169.884 57.0952 167.37 62.0749 163.594 66.4845Z" fill="#CCDCFA"/>
    <path opacity="0.56" d="M179.453 166.62C170.945 169.488 163.945 158.517 157.214 154.652C149.999 150.537 143.537 148.543 137.345 148.48C125.068 148.418 116.506 159.639 109.398 169.799C101.483 181.082 92.9209 191.306 79.3515 191.68C76.39 191.742 72.2438 191.119 69.5514 187.628C64.8129 181.519 66.6975 172.979 68.1514 165.935C72.5668 144.054 76.4977 109.894 53.3435 100.169C49.7896 98.6734 46.1281 97.115 43.8665 93.7488C32.774 77.1049 47.3665 64.8869 60.1282 59.5883C72.8899 54.2897 87.2132 51.0482 99.0056 42.3834C111.552 33.1576 117.044 14.0202 131.637 8.09826C135.837 6.41517 139.875 6.85153 142.729 9.28266C146.337 12.3372 148.06 17.7604 149.029 21.5006C153.337 38.0822 141.598 54.4767 146.768 70.9336C150.106 81.5931 158.776 88.8865 166.799 94.6838C180.099 104.221 190.438 114.632 190.707 134.268C190.814 143.992 188.714 153.592 184.676 161.384C183.384 163.877 181.984 165.498 180.314 166.246C180.045 166.371 179.722 166.496 179.453 166.62Z" fill="#CCDCFA"/>
    <path d="M71.329 66.1971C71.1136 55.5999 71.4905 44.4416 74.9367 34.4054C78.1137 25.2419 86.0292 14.4577 95.2908 13.8967C101.268 13.5226 104.229 22.0628 107.783 26.177C130.453 52.6701 165.453 35.4651 191.461 51.922C196.038 54.7895 200.131 59.4024 201.477 65.3867C202.877 71.6204 201.046 78.2281 198.515 83.963C192.538 97.4278 183.223 107.464 173.746 117.562C165.399 126.414 150.968 135.64 149.999 150.289C149.622 156.211 153.553 161.26 154.63 166.808C157.376 181.333 143.807 190.746 133.091 191.868C120.653 193.177 107.46 187.38 99.0062 176.408C87.9676 162.071 84.683 130.591 64.8135 128.16C62.875 127.91 60.7211 128.035 59.1596 126.726C56.898 124.856 56.7365 120.804 57.9749 117.936C59.8057 113.573 63.0366 110.456 65.352 106.467C71.9751 94.8096 71.5982 80.4099 71.329 66.1971Z" fill="#EBF1FD"/>
    <path d="M41.3051 51.0671C36.4547 44.7927 27.5955 45.9892 21.4483 48.4759C12.1755 52.1899 -0.734133 61.0379 4.19691 74.6928C4.81374 76.3675 5.66645 77.9861 6.69268 79.3358C9.41077 83.0152 13.4301 85.1614 17.5228 85.7816C21.0155 86.3454 24.9386 86.01 28.1269 84.0278C29.9448 82.9124 31.3537 81.1543 31.8956 78.8055C32.1596 77.6612 32.2433 76.3321 32.1952 75.0913C32.1053 74.0312 31.4226 72.4006 32.1409 71.4613C33.3381 69.8958 35.7312 70.6358 37.32 70.0302C39.4604 69.208 41.4971 67.386 42.6911 65.1098C45.0651 60.6176 44.3734 54.9193 41.3051 51.0671Z" fill="#CCDCFA"/>
    <path d="M186.023 17.8239C185.754 17.4499 185.485 17.1382 185.215 16.8265C184.731 16.3278 184.246 15.8291 183.977 15.1434C183.492 13.8343 184.085 12.4006 183.869 11.0292C183.654 9.5331 182.9 8.03702 181.985 6.91496C177.515 1.74102 170.084 4.10981 165.238 7.22664C161.415 9.65777 159.315 13.6473 160.123 18.6966C160.823 22.9355 163.246 27.1744 166.531 29.2938C166.692 29.4185 166.854 29.4808 167.015 29.6055C167.931 30.1665 168.9 30.6652 169.654 31.5379C170.515 32.5977 171.161 34.0314 172.131 35.0288C172.938 35.9015 174.069 36.5249 175.092 36.8365C177.677 37.5846 180.369 36.5872 182.631 35.2781C185.592 33.595 187.854 30.3535 188.338 26.551C188.715 23.4342 187.746 20.1927 186.023 17.8239Z" fill="#CCDCFA"/>
    <path d="M196.416 7.97344C196.362 7.78643 196.254 7.66176 196.146 7.53708C195.985 7.2254 195.769 6.91372 195.554 6.66437C194.692 5.60465 193.4 4.98128 192.162 4.91895C192.162 4.91895 192.162 4.91895 192.108 4.91895C192.054 4.91895 192.054 4.91895 192 4.91895H191.946C191.515 4.91895 191.031 4.98128 190.654 5.04362C189.739 5.29296 188.823 5.85399 188.177 6.60203C186.992 8.03578 186.454 10.0306 186.831 11.963C186.938 12.6487 187.208 13.2721 187.531 13.8331C187.531 13.8331 187.531 13.8331 187.531 13.8954C188.554 16.1395 190.923 17.3863 193.077 16.7629C195.285 16.1395 196.954 13.8954 197.008 11.2149C197.116 10.0929 196.9 8.90849 196.416 7.97344Z" fill="#CCDCFA"/>
    <path d="M184.676 0.119952C182.145 0.867992 183.114 5.41856 185.645 4.67052C188.176 3.98482 187.207 -0.565751 184.676 0.119952Z" fill="#CCDCFA"/>
    <path d="M202.124 118.373C206.288 118.373 209.663 114.466 209.663 109.646C209.663 104.826 206.288 100.919 202.124 100.919C197.961 100.919 194.586 104.826 194.586 109.646C194.586 114.466 197.961 118.373 202.124 118.373Z" stroke="#CCDCFA" stroke-width="2.60765" stroke-miterlimit="10"/>
    <path d="M211.6 125.602C213.384 125.602 214.831 123.928 214.831 121.862C214.831 119.797 213.384 118.122 211.6 118.122C209.816 118.122 208.369 119.797 208.369 121.862C208.369 123.928 209.816 125.602 211.6 125.602Z" stroke="#CCDCFA" stroke-width="1.11755" stroke-miterlimit="10"/>
    <path d="M217.523 116.627C218.891 116.627 220 115.343 220 113.759C220 112.175 218.891 110.892 217.523 110.892C216.155 110.892 215.046 112.175 215.046 113.759C215.046 115.343 216.155 116.627 217.523 116.627Z" stroke="#CCDCFA" stroke-width="0.856177" stroke-miterlimit="10"/>
</svg>