<svg width="90" height="86" viewBox="0 0 90 86" fill="none" xmlns="http://www.w3.org/2000/svg">
    <path d="M11.8876 26.6602L45 44.9709L77.8875 26.7675" stroke="#292929" stroke-width="2" stroke-linecap="round" stroke-linejoin="round"/>
    <path d="M45 77.4364V44.9355" stroke="#292929" stroke-width="2" stroke-linecap="round" stroke-linejoin="round"/>
    <path d="M81.0374 32.8595V53.1413C81.0374 53.3205 81.0375 53.4636 81 53.6428C78.375 51.457 75 50.1671 71.25 50.1671C67.725 50.1671 64.4625 51.3496 61.875 53.3204C58.425 55.9362 56.25 59.9854 56.25 64.5004C56.25 67.1879 57.0374 69.7321 58.4249 71.8821C58.7624 72.4554 59.1749 72.9929 59.6249 73.4946L52.7625 77.1138C48.4875 79.4071 41.5124 79.4071 37.2374 77.1138L17.2125 66.5071C12.675 64.1062 8.96252 58.0863 8.96252 53.1413V32.8595C8.96252 27.9145 12.675 21.8946 17.2125 19.4937L37.2374 8.88699C41.5124 6.59366 48.4875 6.59366 52.7625 8.88699L72.7875 19.4937C77.325 21.8946 81.0374 27.9145 81.0374 32.8595Z" stroke="#292929" stroke-width="2" stroke-linecap="round" stroke-linejoin="round"/>
    <path d="M86.25 64.5003C86.25 68.8003 84.2626 72.6345 81.1501 75.2503C78.4876 77.472 75.0375 78.8337 71.25 78.8337C62.9625 78.8337 56.25 72.4195 56.25 64.5003C56.25 59.9853 58.425 55.9362 61.875 53.3203C64.4625 51.3495 67.725 50.167 71.25 50.167C79.5375 50.167 86.25 56.5812 86.25 64.5003Z" stroke="#292929" stroke-width="2" stroke-miterlimit="10" stroke-linecap="round" stroke-linejoin="round"/>
    <path d="M72.1875 60.0215V65.3965L67.5 68.084" stroke="#292929" stroke-width="2" stroke-miterlimit="10" stroke-linecap="round" stroke-linejoin="round"/>
</svg>