<svg width="48" height="48" viewBox="0 0 48 48" fill="none" xmlns="http://www.w3.org/2000/svg">
    <path d="M14.959 36.6999L21.159 41.4999C21.959 42.2999 23.759 42.6999 24.959 42.6999H32.559C34.959 42.6999 37.559 40.8999 38.159 38.4999L42.959 23.8999C43.959 21.0999 42.159 18.6999 39.159 18.6999H31.159C29.959 18.6999 28.959 17.6999 29.159 16.2999L30.159 9.89994C30.559 8.09994 29.359 6.09994 27.559 5.49994C25.959 4.89994 23.959 5.69994 23.159 6.89994L14.959 19.0999" stroke="#014FE6" stroke-width="2" stroke-miterlimit="10"/>
    <path d="M4.75977 36.6998V17.0998C4.75977 14.2998 5.95977 13.2998 8.75977 13.2998H10.7598C13.5598 13.2998 14.7598 14.2998 14.7598 17.0998V36.6998C14.7598 39.4998 13.5598 40.4998 10.7598 40.4998H8.75977C5.95977 40.4998 4.75977 39.4998 4.75977 36.6998Z" stroke="#014FE6" stroke-width="2" stroke-linecap="round" stroke-linejoin="round"/>
</svg>