<svg width="208" height="26" viewBox="0 0 208 26" fill="none" xmlns="http://www.w3.org/2000/svg">
    <path fill-rule="evenodd" clip-rule="evenodd" d="M186.214 2.80299H180.034L189.141 12.8199L189.82 12.0153C188.861 13.1963 187.875 14.4583 186.864 15.7912C181.903 22.8216 181.511 23.9454 180.832 25.8899L180.793 26C182.142 24.2492 183.326 22.6522 184.439 21.1501L184.439 21.15C188.514 15.6521 191.647 11.4254 198.519 5.5828C201.676 3.3906 204.59 1.69573 205.999 2.41957C207.53 3.30382 206.978 4.83299 206.056 7.38703C205.934 7.72584 205.805 8.08269 205.674 8.45846C205.877 8.0637 206.072 7.69058 206.257 7.33683C207.999 4.00667 208.843 2.3931 206.812 0.598314C204.566 -1.38713 199.717 1.99889 196.838 4.48023C195.401 5.71855 193.838 7.31946 192.172 9.22073L186.214 2.80299ZM191.092 14.9285L194.236 11.4777L203.831 22.0697H197.543L191.092 14.9285ZM17.6086 17.4232C17.923 16.7594 18.0802 16.0519 18.0802 15.3007C18.0802 14.043 17.626 13.0036 16.7177 12.1825C15.8093 11.3615 14.5603 10.6977 12.9706 10.1911L8.01819 8.61889C7.31943 8.39179 6.73423 8.18217 6.26257 7.99001C5.79091 7.78038 5.4066 7.56202 5.10963 7.33493C4.83013 7.09037 4.62924 6.83707 4.50695 6.57504C4.38467 6.29553 4.32353 5.97236 4.32353 5.60552C4.32353 4.9417 4.64671 4.3827 5.29305 3.92851C5.95687 3.47432 6.94385 3.24723 8.25402 3.24723C9.84368 3.24723 11.2587 3.47432 12.4989 3.92851C13.7392 4.36523 14.8572 5.01158 15.853 5.86755L17.1631 4.29536C16.674 3.84117 16.0888 3.43065 15.4075 3.0638C14.7437 2.67949 14.0187 2.35632 13.2326 2.09428C12.464 1.83225 11.6517 1.63136 10.7957 1.49161C9.95723 1.35186 9.10999 1.28198 8.25402 1.28198C6.83904 1.28198 5.62496 1.42173 4.61177 1.70124C3.61604 1.96327 2.79501 2.33011 2.14866 2.80177C1.50232 3.25596 1.02193 3.78876 0.707487 4.40017C0.410517 4.99411 0.262032 5.61425 0.262032 6.2606C0.262032 7.51835 0.681284 8.55775 1.51979 9.37878C2.35829 10.1823 3.59858 10.8462 5.24064 11.3702L10.2193 12.9424C11.5993 13.3791 12.5775 13.8246 13.154 14.2788C13.7305 14.733 14.0187 15.292 14.0187 15.9558C14.0187 16.8118 13.6519 17.4843 12.9182 17.9734C12.1845 18.4626 10.9355 18.7071 9.17113 18.7071C7.58147 18.7071 6.12282 18.4888 4.79519 18.052C3.46756 17.5979 2.30588 16.9428 1.31016 16.0868L0 17.659C0.489127 18.1132 1.0656 18.5324 1.72941 18.9168C2.4107 19.2836 3.14439 19.598 3.93048 19.8601C4.73405 20.1221 5.57255 20.323 6.44599 20.4627C7.3369 20.6025 8.24528 20.6724 9.17113 20.6724C10.8132 20.6724 12.1932 20.5326 13.3112 20.2531C14.4467 19.9736 15.3638 19.598 16.0626 19.1264C16.7788 18.6373 17.2941 18.0695 17.6086 17.4232ZM32.885 17.528H32.623L25.8102 1.80605H20.1765V20.1483H23.976V5.4745H24.238L30.5268 20.1483H34.9813L41.2701 5.4745H41.5321V20.1483H45.3316V1.80605H39.6979L32.885 17.528ZM61.4363 13.7285H53.3133L57.2438 4.03332H57.5058L61.4363 13.7285ZM67.8561 20.1483L60.3882 1.80605H54.3615L46.8935 20.1483H50.6668L52.3962 15.6938H62.3534L64.0828 20.1483H67.8561ZM82.3809 2.2515C81.3502 1.95453 80.1798 1.80605 78.8697 1.80605H69.4365V20.1483H73.236V14.6456H78.8697H79.3413L83.1932 20.1483H87.5167L83.1932 13.9643C84.5033 13.4577 85.5078 12.7241 86.2066 11.7633C86.9053 10.8025 87.2547 9.62334 87.2547 8.22584C87.2547 7.21265 87.0625 6.313 86.6782 5.52691C86.2939 4.72334 85.7436 4.05079 85.0274 3.50926C84.3112 2.95026 83.429 2.531 82.3809 2.2515ZM73.236 12.6804V3.77129H78.8697C80.2497 3.77129 81.3153 4.13814 82.0665 4.87183C82.8176 5.58805 83.1932 6.70605 83.1932 8.22584C83.1932 9.74563 82.8176 10.8724 82.0665 11.6061C81.3153 12.3223 80.2497 12.6804 78.8697 12.6804H73.236ZM98.1229 3.77129H105.198V1.80605H87.2486V3.77129H94.3234V20.1483H98.1229V3.77129ZM119.481 17.528H119.219L112.406 1.80605H106.772V20.1483H110.571V5.4745H110.833L117.122 20.1483H121.577L127.866 5.4745H128.128V20.1483H131.927V1.80605H126.293L119.481 17.528ZM138.861 9.79803V3.77129H151.045V1.80605H135.061V20.1483H151.045V18.1831H138.861V11.7633H148.425V9.79803H138.861ZM166.059 2.40872C164.783 2.00694 163.36 1.80605 161.788 1.80605H153.14V20.1483H161.788C163.36 20.1483 164.783 19.9562 166.059 19.5718C167.351 19.1701 168.452 18.5848 169.36 17.8162C170.286 17.0476 171.002 16.0955 171.509 14.9601C172.016 13.8071 172.269 12.4795 172.269 10.9772C172.269 9.47486 172.016 8.15596 171.509 7.02049C171.002 5.86755 170.286 4.90676 169.36 4.13814C168.452 3.36951 167.351 2.79304 166.059 2.40872ZM156.94 18.1831V3.77129H161.788C162.678 3.77129 163.508 3.91104 164.277 4.19054C165.063 4.45257 165.744 4.88056 166.321 5.4745C166.897 6.05097 167.351 6.7934 167.683 7.70177C168.033 8.61015 168.207 9.70195 168.207 10.9772C168.207 12.2524 168.033 13.3442 167.683 14.2526C167.351 15.161 166.897 15.9121 166.321 16.5061C165.744 17.0825 165.063 17.5105 164.277 17.79C163.508 18.052 162.678 18.1831 161.788 18.1831H156.94ZM174.623 20.1483H178.422V1.80605H174.623V20.1483Z" fill="url(#paint0_linear_1442_28706)"/>
    <defs>
        <linearGradient id="paint0_linear_1442_28706" x1="0" y1="13" x2="207.996" y2="13" gradientUnits="userSpaceOnUse">
            <stop offset="0.349" stop-color="#014FE6"/>
            <stop offset="0.714" stop-color="#D400F7"/>
            <stop offset="1" stop-color="#EA1246"/>
        </linearGradient>
    </defs>
</svg>