<svg width="32" height="32" viewBox="0 0 32 32" fill="none" xmlns="http://www.w3.org/2000/svg">
    <path d="M23.9995 9.547C23.9195 9.53366 23.8261 9.53366 23.7461 9.547C21.9061 9.48033 20.4395 7.97366 20.4395 6.10699C20.4395 4.20033 21.9728 2.66699 23.8795 2.66699C25.7861 2.66699 27.3194 4.21366 27.3194 6.10699C27.3061 7.97366 25.8395 9.48033 23.9995 9.547Z" stroke="#014FE6" stroke-width="2" stroke-linecap="round" stroke-linejoin="round"/>
    <path d="M22.6259 19.2539C24.4526 19.5605 26.4659 19.2405 27.8793 18.2939C29.7593 17.0405 29.7593 14.9872 27.8793 13.7339C26.4526 12.7872 24.4126 12.4672 22.5859 12.7872" stroke="#014FE6" stroke-width="2" stroke-linecap="round" stroke-linejoin="round"/>
    <path d="M7.96063 9.547C8.04063 9.53366 8.13396 9.53366 8.21396 9.547C10.054 9.48033 11.5206 7.97366 11.5206 6.10699C11.5206 4.20033 9.98729 2.66699 8.08063 2.66699C6.17396 2.66699 4.64062 4.21366 4.64062 6.10699C4.65396 7.97366 6.12063 9.48033 7.96063 9.547Z" stroke="#014FE6" stroke-width="2" stroke-linecap="round" stroke-linejoin="round"/>
    <path d="M9.33325 19.2539C7.50659 19.5605 5.49325 19.2405 4.07992 18.2939C2.19992 17.0405 2.19992 14.9872 4.07992 13.7339C5.50659 12.7872 7.54658 12.4672 9.37325 12.7872" stroke="#014FE6" stroke-width="2" stroke-linecap="round" stroke-linejoin="round"/>
    <path d="M15.9995 19.507C15.9195 19.4936 15.8261 19.4936 15.7461 19.507C13.9061 19.4403 12.4395 17.9336 12.4395 16.067C12.4395 14.1603 13.9728 12.627 15.8795 12.627C17.7861 12.627 19.3195 14.1736 19.3195 16.067C19.3061 17.9336 17.8395 19.4536 15.9995 19.507Z" stroke="#014FE6" stroke-width="2" stroke-linecap="round" stroke-linejoin="round"/>
    <path d="M12.119 23.7065C10.239 24.9598 10.239 27.0131 12.119 28.2665C14.2523 29.6931 17.7457 29.6931 19.879 28.2665C21.759 27.0131 21.759 24.9598 19.879 23.7065C17.759 22.2932 14.2523 22.2932 12.119 23.7065Z" stroke="#014FE6" stroke-width="2" stroke-linecap="round" stroke-linejoin="round"/>
</svg>