<svg width="23" height="25" viewBox="0 0 23 25" fill="none" xmlns="http://www.w3.org/2000/svg">
    <path d="M17.0805 18.4446H12.3217C11.3847 18.4446 10.625 17.5613 10.625 16.4717V16.465H18.7772V16.4717C18.7772 17.5613 18.0176 18.4446 17.0805 18.4446Z" stroke="#292929" stroke-miterlimit="10" stroke-linecap="round" stroke-linejoin="round"/>
    <path d="M12.3122 16.465H7.95738C7.72311 16.465 7.5332 16.2442 7.5332 15.9718V14.9787C7.5332 14.7063 7.72311 14.4855 7.95738 14.4855H11.888C12.1223 14.4855 12.3122 14.7063 12.3122 14.9787V16.465Z" stroke="#292929" stroke-miterlimit="10" stroke-linecap="round" stroke-linejoin="round"/>
    <path d="M17.0915 16.465H12.3125V14.9787C12.3125 14.7063 12.5024 14.4855 12.7367 14.4855H16.6673C16.9016 14.4855 17.0915 14.7063 17.0915 14.9787L17.0915 16.465Z" stroke="#292929" stroke-miterlimit="10" stroke-linecap="round" stroke-linejoin="round"/>
    <path d="M21.4447 16.465H17.0898V14.9787C17.0898 14.7063 17.2797 14.4855 17.514 14.4855H21.4447C21.6789 14.4855 21.8689 14.7063 21.8689 14.9787V15.9718C21.8689 16.2442 21.6789 16.465 21.4447 16.465Z" stroke="#292929" stroke-miterlimit="10" stroke-linecap="round" stroke-linejoin="round"/>
    <path d="M16.4814 24H12.9222C12.688 24 12.498 23.7791 12.498 23.5067V23.0454C12.498 22.4793 12.8927 22.0204 13.3795 22.0204H16.024C16.5109 22.0204 16.9055 22.4793 16.9055 23.0454V23.5067C16.9056 23.7791 16.7157 24 16.4814 24Z" stroke="#292929" stroke-miterlimit="10" stroke-linecap="round" stroke-linejoin="round"/>
    <path d="M4.98333 23.9999H1.42418C1.1899 23.9999 1 23.7791 1 23.5066V22.226C1 21.6599 1.39466 21.201 1.88149 21.201H4.52598C5.01281 21.201 5.40747 21.6599 5.40747 22.226V23.5066C5.40751 23.779 5.21761 23.9999 4.98333 23.9999Z" stroke="#292929" stroke-miterlimit="10" stroke-linecap="round" stroke-linejoin="round"/>
    <path d="M15.5672 18.4445H13.8359V22.0202H15.5672V18.4445Z" stroke="#292929" stroke-miterlimit="10" stroke-linecap="round" stroke-linejoin="round"/>
    <path d="M4.71557 21.201H1.69122V13.4376C1.69122 13.1652 1.88113 12.9443 2.1154 12.9443H4.2914C4.52567 12.9443 4.71557 13.1652 4.71557 13.4376V21.201Z" stroke="#292929" stroke-miterlimit="10" stroke-linecap="round" stroke-linejoin="round"/>
    <path d="M4.05469 12.9255L4.05469 5.50214H2.35225L2.35225 12.9255H4.05469Z" stroke="#292929" stroke-miterlimit="10" stroke-linecap="round" stroke-linejoin="round"/>
    <path d="M15.5527 4.67794V2.69836L13.8503 2.69836V4.67794H15.5527Z" stroke="#292929" stroke-miterlimit="10" stroke-linecap="round" stroke-linejoin="round"/>
    <path d="M10.3569 0.493225H14.7044C15.173 0.493225 15.5528 0.934862 15.5528 1.47968V2.69821H1.28906V1.47968C1.28906 0.934862 1.66887 0.493225 2.13742 0.493225H6.49182" stroke="#292929" stroke-miterlimit="10" stroke-linecap="round" stroke-linejoin="round"/>
    <path d="M12.4683 4.67767H16.9329C17.6715 4.67767 18.2703 5.37392 18.2703 6.23277V6.88265H11.1309V6.23277C11.1309 5.37392 11.7296 4.67767 12.4683 4.67767Z" stroke="#292929" stroke-miterlimit="10" stroke-linecap="round" stroke-linejoin="round"/>
    <path d="M1.28906 2.69818L2.35307 5.50209H4.05551L5.11952 2.69818H1.28906Z" stroke="#292929" stroke-miterlimit="10" stroke-linecap="round" stroke-linejoin="round"/>
    <path d="M14.7012 7.08398V9.2138" stroke="#292929" stroke-miterlimit="10" stroke-linecap="round" stroke-linejoin="round"/>
    <path d="M15.1281 11.2641H14.274C14.0397 11.2641 13.8498 11.0432 13.8498 10.7708V10.2709C13.8498 9.72612 14.2296 9.28448 14.6982 9.28448H14.7039C15.1725 9.28448 15.5523 9.72612 15.5523 10.2709V10.7708C15.5523 11.0432 15.3624 11.2641 15.1281 11.2641Z" stroke="#292929" stroke-miterlimit="10" stroke-linecap="round" stroke-linejoin="round"/>
    <path d="M14.7012 11.4083V12.2386" stroke="#292929" stroke-miterlimit="10" stroke-linecap="round" stroke-linejoin="round"/>
    <path d="M19.9074 11.2641H19.0533C18.819 11.2641 18.6291 11.0432 18.6291 10.7708V10.2709C18.6291 9.72612 19.0089 9.28448 19.4774 9.28448H19.4832C19.9517 9.28448 20.3315 9.72612 20.3315 10.2709V10.7708C20.3315 11.0432 20.1416 11.2641 19.9074 11.2641Z" stroke="#292929" stroke-miterlimit="10" stroke-linecap="round" stroke-linejoin="round"/>
    <path d="M19.4805 11.4083V12.2386" stroke="#292929" stroke-miterlimit="10" stroke-linecap="round" stroke-linejoin="round"/>
    <path d="M18.2695 6.88269C18.9374 6.88269 19.4789 7.51225 19.4789 8.28889V9.06735" stroke="#292929" stroke-miterlimit="10" stroke-linecap="round" stroke-linejoin="round"/>
    <path d="M9.16246 11.2641H10.0165C10.2508 11.2641 10.4407 11.0432 10.4407 10.7708V10.2709C10.4407 9.72612 10.0609 9.28448 9.59236 9.28448H9.58664C9.11809 9.28448 8.73828 9.72612 8.73828 10.2709V10.7708C8.73828 11.0432 8.92819 11.2641 9.16246 11.2641Z" stroke="#292929" stroke-miterlimit="10" stroke-linecap="round" stroke-linejoin="round"/>
    <path d="M9.58777 11.4083V12.2386" stroke="#292929" stroke-miterlimit="10" stroke-linecap="round" stroke-linejoin="round"/>
    <path d="M11.1314 6.88263H10.7971C10.1292 6.88263 9.58777 7.51219 9.58777 8.28882V9.06729" stroke="#292929" stroke-miterlimit="10" stroke-linecap="round" stroke-linejoin="round"/>
    <ellipse cx="8.42043" cy="0.493229" rx="0.424179" ry="0.493229" fill="#292929"/>
</svg>