<svg width="25" height="24" viewBox="0 0 25 24" fill="none" xmlns="http://www.w3.org/2000/svg">
    <path d="M9.17 14H4.5C3.4 14 2.5 14.9 2.5 16V22H9.17V14Z" stroke="#B1B1B1" stroke-width="1.5" stroke-miterlimit="10" stroke-linecap="round" stroke-linejoin="round"/>
    <path d="M13.83 10H11.16C10.06 10 9.16 10.9 9.16 12V22H15.83V12C15.83 10.9 14.94 10 13.83 10Z" stroke="#B1B1B1" stroke-width="1.5" stroke-miterlimit="10" stroke-linecap="round" stroke-linejoin="round"/>
    <path d="M20.5 17H15.83V22H22.5V19C22.5 17.9 21.6 17 20.5 17Z" stroke="#B1B1B1" stroke-width="1.5" stroke-miterlimit="10" stroke-linecap="round" stroke-linejoin="round"/>
    <path d="M13.02 2.06982L13.55 3.12982C13.62 3.27982 13.81 3.41982 13.97 3.43982L14.93 3.59982C15.54 3.69982 15.69 4.1498 15.25 4.5798L14.5 5.3298C14.37 5.4598 14.3 5.69981 14.34 5.86981L14.55 6.78982C14.72 7.51982 14.33 7.79983 13.69 7.41983L12.79 6.88983C12.63 6.78983 12.36 6.78983 12.2 6.88983L11.3 7.41983C10.66 7.79983 10.27 7.51982 10.44 6.78982L10.65 5.86981C10.69 5.69981 10.62 5.4498 10.49 5.3298L9.74999 4.58981C9.30999 4.14981 9.44999 3.7098 10.07 3.6098L11.03 3.44983C11.19 3.41983 11.38 3.27983 11.45 3.13983L11.98 2.0798C12.27 1.4998 12.73 1.49982 13.02 2.06982Z" stroke="#B1B1B1" stroke-width="1.5" stroke-linecap="round" stroke-linejoin="round"/>
</svg>