<svg width="38" height="38" viewBox="0 0 38 38" fill="none" xmlns="http://www.w3.org/2000/svg">
    <path d="M19.0013 34.8337C27.7458 34.8337 34.8346 27.7448 34.8346 19.0003C34.8346 10.2558 27.7458 3.16699 19.0013 3.16699C10.2568 3.16699 3.16797 10.2558 3.16797 19.0003C3.16797 27.7448 10.2568 34.8337 19.0013 34.8337Z" stroke="#014FE6" stroke-width="1.5" stroke-linecap="round" stroke-linejoin="round"/>
    <path d="M12.6816 22.9749C12.9666 23.4499 13.315 23.8933 13.7108 24.2891C16.6241 27.2024 21.3583 27.2024 24.2875 24.2891C25.475 23.1016 26.1558 21.5974 26.3775 20.0615" stroke="#014FE6" stroke-width="1.5" stroke-linecap="round" stroke-linejoin="round"/>
    <path d="M11.6211 17.9399C11.8428 16.3882 12.5236 14.8998 13.7111 13.7123C16.6244 10.799 21.3586 10.799 24.2878 13.7123C24.6994 14.124 25.0319 14.5674 25.3169 15.0265" stroke="#014FE6" stroke-width="1.5" stroke-linecap="round" stroke-linejoin="round"/>
    <path d="M12.3809 27.2021V22.9746H16.6083" stroke="#014FE6" stroke-width="1.5" stroke-linecap="round" stroke-linejoin="round"/>
    <path d="M25.6181 10.7988V15.0263H21.3906" stroke="#014FE6" stroke-width="1.5" stroke-linecap="round" stroke-linejoin="round"/>
</svg>