<svg width="38" height="38" viewBox="0 0 38 38" fill="none" xmlns="http://www.w3.org/2000/svg">
    <path d="M3.2784 7.28355C4.54507 1.80522 12.7942 1.80522 14.0451 7.28355C14.7892 10.4977 12.7467 13.2211 10.9734 14.9152C9.67507 16.1502 7.63257 16.1344 6.33423 14.9152C4.57673 13.2211 2.53424 10.4977 3.2784 7.28355Z" stroke="#014FE6" stroke-width="1.5"/>
    <path d="M23.8603 26.2836C25.127 20.8052 33.4237 20.8052 34.6903 26.2836C35.4345 29.4977 33.392 32.2211 31.6028 33.9152C30.3045 35.1502 28.2462 35.1344 26.9478 33.9152C25.1587 32.2211 23.1162 29.4977 23.8603 26.2836Z" stroke="#014FE6" stroke-width="1.5"/>
    <path d="M18.9997 7.91699H23.243C26.1722 7.91699 27.5339 11.5428 25.333 13.4745L12.6822 24.542C10.4814 26.4578 11.843 30.0837 14.7564 30.0837H18.9997" stroke="#014FE6" stroke-width="1.5" stroke-linecap="round" stroke-linejoin="round"/>
    <path d="M8.68688 8.70866H8.70517" stroke="#014FE6" stroke-width="2" stroke-linecap="round" stroke-linejoin="round"/>
    <path d="M29.2689 27.7087H29.2872" stroke="#014FE6" stroke-width="2" stroke-linecap="round" stroke-linejoin="round"/>
</svg>