<svg width="38" height="38" viewBox="0 0 38 38" fill="none" xmlns="http://www.w3.org/2000/svg">
    <path d="M26.8533 9.76953C30.0199 11.9704 32.2049 15.4695 32.6483 19.507" stroke="#292929" stroke-width="1.5" stroke-linecap="round" stroke-linejoin="round"/>
    <path d="M5.52539 19.5861C5.93706 15.5645 8.09039 12.0653 11.2254 9.84863" stroke="#292929" stroke-width="1.5" stroke-linecap="round" stroke-linejoin="round"/>
    <path d="M12.9688 33.1553C14.8054 34.0894 16.8954 34.6119 19.0963 34.6119C21.2179 34.6119 23.2129 34.1369 25.0021 33.2661" stroke="#292929" stroke-width="1.5" stroke-linecap="round" stroke-linejoin="round"/>
    <path d="M19.095 12.192C21.526 12.192 23.4967 10.2213 23.4967 7.79034C23.4967 5.35936 21.526 3.38867 19.095 3.38867C16.6641 3.38867 14.6934 5.35936 14.6934 7.79034C14.6934 10.2213 16.6641 12.192 19.095 12.192Z" stroke="#292929" stroke-width="1.5" stroke-linecap="round" stroke-linejoin="round"/>
    <path d="M7.64776 31.5397C10.0787 31.5397 12.0494 29.569 12.0494 27.138C12.0494 24.707 10.0787 22.7363 7.64776 22.7363C5.21679 22.7363 3.24609 24.707 3.24609 27.138C3.24609 29.569 5.21679 31.5397 7.64776 31.5397Z" stroke="#292929" stroke-width="1.5" stroke-linecap="round" stroke-linejoin="round"/>
    <path d="M30.3528 31.5397C32.7838 31.5397 34.7545 29.569 34.7545 27.138C34.7545 24.707 32.7838 22.7363 30.3528 22.7363C27.9219 22.7363 25.9512 24.707 25.9512 27.138C25.9512 29.569 27.9219 31.5397 30.3528 31.5397Z" stroke="#292929" stroke-width="1.5" stroke-linecap="round" stroke-linejoin="round"/>
</svg>