<svg width="25" height="24" viewBox="0 0 25 24" fill="none" xmlns="http://www.w3.org/2000/svg">
    <path d="M13.5703 3.71896L15.4135 7.58435C15.5918 7.95543 15.9486 8.23374 16.3351 8.29559L20.4377 8.91405C21.4485 9.06866 21.8647 10.3674 21.1215 11.1096L18.1486 14.1091C17.8513 14.3874 17.7324 14.8204 17.7918 15.2533L18.5053 19.4898C18.6837 20.5411 17.6134 21.3451 16.7216 20.8504L13.0649 18.8404C12.7081 18.6548 12.2622 18.6548 11.9054 18.8404L8.24872 20.8504C7.32711 21.3451 6.28659 20.5411 6.46496 19.4898L7.17846 15.2533C7.23792 14.8204 7.11901 14.4184 6.82171 14.1091L3.87852 11.1096C3.13529 10.3674 3.55149 9.06866 4.56229 8.91405L8.66493 8.29559C9.08114 8.23374 9.40816 7.98635 9.58653 7.58435L11.4 3.71896C11.8162 2.76035 13.1243 2.76035 13.5703 3.71896Z" stroke="#B1B1B1" stroke-width="1.5" stroke-linecap="round" stroke-linejoin="round"/>
</svg>