<svg width="38" height="38" viewBox="0 0 38 38" fill="none" xmlns="http://www.w3.org/2000/svg">
    <path d="M13.2676 18.9996L17.0834 22.8313L24.7309 15.168" stroke="#292929" stroke-width="1.5" stroke-linecap="round" stroke-linejoin="round"/>
    <path d="M17.0201 3.87934C18.1126 2.94517 19.9017 2.94517 21.0101 3.87934L23.5117 6.03267C23.9867 6.44434 24.8734 6.77684 25.5067 6.77684H28.1984C29.8767 6.77684 31.2542 8.15434 31.2542 9.83267V12.5243C31.2542 13.1418 31.5867 14.0443 31.9984 14.5193L34.1517 17.021C35.0859 18.1135 35.0859 19.9027 34.1517 21.011L31.9984 23.5127C31.5867 23.9877 31.2542 24.8743 31.2542 25.5077V28.1993C31.2542 29.8777 29.8767 31.2552 28.1984 31.2552H25.5067C24.8892 31.2552 23.9867 31.5877 23.5117 31.9993L21.0101 34.1527C19.9176 35.0868 18.1284 35.0868 17.0201 34.1527L14.5184 31.9993C14.0434 31.5877 13.1567 31.2552 12.5234 31.2552H9.78424C8.10591 31.2552 6.72841 29.8777 6.72841 28.1993V25.4918C6.72841 24.8743 6.39591 23.9877 6.00008 23.5127L3.86258 20.9952C2.94424 19.9027 2.94424 18.1293 3.86258 17.0368L6.00008 14.5193C6.39591 14.0443 6.72841 13.1577 6.72841 12.5402V9.81684C6.72841 8.1385 8.10591 6.761 9.78424 6.761H12.5234C13.1409 6.761 14.0434 6.4285 14.5184 6.01684L17.0201 3.87934Z" stroke="#292929" stroke-width="1.5" stroke-linecap="round" stroke-linejoin="round"/>
</svg>